<?xml version="1.0" standalone="no"?>
 <!DOCTYPE svg PUBLIC "-//W3C//DTD SVG 1.1//EN" 
 "http://www.w3.org/Graphics/SVG/1.1/DTD/svg11.dtd"> 
<svg
  xmlns:svg="http://www.w3.org/2000/svg"
  xmlns="http://www.w3.org/2000/svg"
  xmlns:xlink="http://www.w3.org/1999/xlink"
  version="1.1"
  width="29.700220cm" height="21.000720cm" viewBox="0 0 116930 82680">
<title>SVG Picture created as schematic-F_Cu.svg date 2021/05/19 12:17:59 </title>
  <desc>Picture generated by PCBNEW </desc>
<g style="fill:#000000; fill-opacity:1;stroke:#000000; stroke-opacity:1;
stroke-linecap:round; stroke-linejoin:round;"
 transform="translate(0 0) scale(1 1)">
</g>
<g style="fill:#000000; fill-opacity:0.0; 
stroke:#000000; stroke-width:-0.000393701; stroke-opacity:1; 
stroke-linecap:round; stroke-linejoin:round;">
</g>
<g style="fill:#000000; fill-opacity:1.0; 
stroke:#000000; stroke-width:39.3701; stroke-opacity:1; 
stroke-linecap:round; stroke-linejoin:round;">
<rect x="6023.46" y="5216.54" width="108009" height="70236.3" rx="0" />
</g>
<g style="fill:#FFFFFF; fill-opacity:1.0; 
stroke:#FFFFFF; stroke-width:39.3701; stroke-opacity:1; 
stroke-linecap:round; stroke-linejoin:round;">
</g>
<g style="fill:#FFFFFF; fill-opacity:0.0; 
stroke:#FFFFFF; stroke-width:39.3701; stroke-opacity:1; 
stroke-linecap:round; stroke-linejoin:round;">
</g>
<g style="fill:#FFFFFF; fill-opacity:0.0; 
stroke:#FFFFFF; stroke-width:196.85; stroke-opacity:1; 
stroke-linecap:round; stroke-linejoin:round;">
<text x="82539.4" y="11870.1"
textLength="5747.19" font-size="1574.8" lengthAdjust="spacingAndGlyphs"
text-anchor="middle" opacity="0">FRONT</text>
<path d="M80430 11195
L80036 11195
" />
<path d="M80036 11813
L80036 10632
L80598 10632
" />
<path d="M81723 11813
L81330 11251
" />
<path d="M81048 11813
L81048 10632
L81498 10632
L81611 10688
L81667 10745
L81723 10857
L81723 11026
L81667 11138
L81611 11195
L81498 11251
L81048 11251
" />
<path d="M82455 10632
L82679 10632
L82792 10688
L82904 10801
L82961 11026
L82961 11420
L82904 11645
L82792 11757
L82679 11813
L82455 11813
L82342 11757
L82230 11645
L82173 11420
L82173 11026
L82230 10801
L82342 10688
L82455 10632
" />
<path d="M83467 11813
L83467 10632
L84142 11813
L84142 10632
" />
<path d="M84535 10632
L85210 10632
" />
<path d="M84873 11813
L84873 10632
" />
</g>
<g style="fill:#FFFFFF; fill-opacity:0.0; 
stroke:#FFFFFF; stroke-width:39.3701; stroke-opacity:1; 
stroke-linecap:round; stroke-linejoin:round;">
<path d="M65019 13188
L101318 13188
" />
<path d="M101318 15748
L101318 13188
" />
<path d="M103681 15748
L101318 15748
" />
<path d="M103681 15748
L103681 31968
" />
<path d="M101318 31968
L103681 31968
" />
<path d="M101318 34527
L101318 31968
" />
<path d="M65019 32007
L65019 34527
" />
<path d="M65019 34527
L101318 34527
" />
<path d="M62657 32007
L65019 32007
" />
<path d="M62657 32007
L62657 15748
" />
<path d="M62657 15748
L65019 15748
" />
<path d="M65019 13188
L65019 15748
" />
<g >
</g>
<g >
</g>
<g style="fill:#FFFFFF; fill-opacity:0.0; 
stroke:#FFFFFF; stroke-width:39.3701; stroke-opacity:1; 
stroke-linecap:round; stroke-linejoin:round;">
</g>
<g style="fill:#FFFFFF; fill-opacity:1.0; 
stroke:#FFFFFF; stroke-width:0; stroke-opacity:1; 
stroke-linecap:round; stroke-linejoin:round;">
<circle cx="69448.8" cy="33267.7" r="1122.05" /> 
</g>
<g style="fill:#FFFFFF; fill-opacity:1.0; 
stroke:#FFFFFF; stroke-width:39.3701; stroke-opacity:1; 
stroke-linecap:round; stroke-linejoin:round;">
</g>
<g >
</g>
<g style="fill:#FFFFFF; fill-opacity:1.0; 
stroke:#FFFFFF; stroke-width:39.3701; stroke-opacity:1; 
stroke-linecap:round; stroke-linejoin:round;">
</g>
<g style="fill:#FFFFFF; fill-opacity:1.0; 
stroke:#FFFFFF; stroke-width:0; stroke-opacity:1; 
stroke-linecap:round; stroke-linejoin:round;">
<circle cx="96889.8" cy="33267.7" r="1122.05" /> 
</g>
<g style="fill:#FFFFFF; fill-opacity:1.0; 
stroke:#FFFFFF; stroke-width:39.3701; stroke-opacity:1; 
stroke-linecap:round; stroke-linejoin:round;">
</g>
<g >
</g>
<g style="fill:#FFFFFF; fill-opacity:1.0; 
stroke:#FFFFFF; stroke-width:39.3701; stroke-opacity:1; 
stroke-linecap:round; stroke-linejoin:round;">
</g>
<g style="fill:#FFFFFF; fill-opacity:1.0; 
stroke:#FFFFFF; stroke-width:0; stroke-opacity:1; 
stroke-linecap:round; stroke-linejoin:round;">
<circle cx="91082.7" cy="14448.8" r="1122.05" /> 
</g>
<g style="fill:#FFFFFF; fill-opacity:1.0; 
stroke:#FFFFFF; stroke-width:39.3701; stroke-opacity:1; 
stroke-linecap:round; stroke-linejoin:round;">
</g>
<g >
</g>
<g style="fill:#FFFFFF; fill-opacity:1.0; 
stroke:#FFFFFF; stroke-width:39.3701; stroke-opacity:1; 
stroke-linecap:round; stroke-linejoin:round;">
</g>
<g style="fill:#FFFFFF; fill-opacity:1.0; 
stroke:#FFFFFF; stroke-width:0; stroke-opacity:1; 
stroke-linecap:round; stroke-linejoin:round;">
<circle cx="75255.9" cy="14448.8" r="1122.05" /> 
</g>
<g style="fill:#FFFFFF; fill-opacity:1.0; 
stroke:#FFFFFF; stroke-width:39.3701; stroke-opacity:1; 
stroke-linecap:round; stroke-linejoin:round;">
</g>
<g >
</g>
<g style="fill:#FFFFFF; fill-opacity:1.0; 
stroke:#FFFFFF; stroke-width:39.3701; stroke-opacity:1; 
stroke-linecap:round; stroke-linejoin:round;">
</g>
<g style="fill:#FFFFFF; fill-opacity:1.0; 
stroke:#FFFFFF; stroke-width:0; stroke-opacity:1; 
stroke-linecap:round; stroke-linejoin:round;">
<circle cx="60000" cy="37755.9" r="1122.05" /> 
</g>
<g style="fill:#FFFFFF; fill-opacity:1.0; 
stroke:#FFFFFF; stroke-width:39.3701; stroke-opacity:1; 
stroke-linecap:round; stroke-linejoin:round;">
</g>
<g >
</g>
<g style="fill:#FFFFFF; fill-opacity:1.0; 
stroke:#FFFFFF; stroke-width:39.3701; stroke-opacity:1; 
stroke-linecap:round; stroke-linejoin:round;">
</g>
<g style="fill:#FFFFFF; fill-opacity:1.0; 
stroke:#FFFFFF; stroke-width:0; stroke-opacity:1; 
stroke-linecap:round; stroke-linejoin:round;">
<circle cx="106260" cy="37755.9" r="1122.05" /> 
</g>
<g style="fill:#FFFFFF; fill-opacity:1.0; 
stroke:#FFFFFF; stroke-width:39.3701; stroke-opacity:1; 
stroke-linecap:round; stroke-linejoin:round;">
</g>
<g >
</g>
<g style="fill:#FFFFFF; fill-opacity:1.0; 
stroke:#FFFFFF; stroke-width:39.3701; stroke-opacity:1; 
stroke-linecap:round; stroke-linejoin:round;">
</g>
<g style="fill:#FFFFFF; fill-opacity:1.0; 
stroke:#FFFFFF; stroke-width:0; stroke-opacity:1; 
stroke-linecap:round; stroke-linejoin:round;">
<circle cx="106260" cy="10196.9" r="1122.05" /> 
</g>
<g style="fill:#FFFFFF; fill-opacity:1.0; 
stroke:#FFFFFF; stroke-width:39.3701; stroke-opacity:1; 
stroke-linecap:round; stroke-linejoin:round;">
</g>
<g >
</g>
<g style="fill:#FFFFFF; fill-opacity:1.0; 
stroke:#FFFFFF; stroke-width:39.3701; stroke-opacity:1; 
stroke-linecap:round; stroke-linejoin:round;">
</g>
<g style="fill:#FFFFFF; fill-opacity:1.0; 
stroke:#FFFFFF; stroke-width:0; stroke-opacity:1; 
stroke-linecap:round; stroke-linejoin:round;">
<circle cx="60000" cy="10196.9" r="1122.05" /> 
</g>
<g style="fill:#FFFFFF; fill-opacity:1.0; 
stroke:#FFFFFF; stroke-width:39.3701; stroke-opacity:1; 
stroke-linecap:round; stroke-linejoin:round;">
</g>
<g >
</g>
<g >
</g>
<g >
</g>
<g >
</g>
<g >
</g>
<g >
</g>
<g >
</g>
<g >
</g>
<g >
</g>
<g >
</g>
<g style="fill:#FFFFFF; fill-opacity:1.0; 
stroke:#FFFFFF; stroke-width:39.3701; stroke-opacity:1; 
stroke-linecap:round; stroke-linejoin:round;">
</g>
<g style="fill:#FFFFFF; fill-opacity:1.0; 
stroke:#FFFFFF; stroke-width:1259.84; stroke-opacity:1; 
stroke-linecap:round; stroke-linejoin:round;">
</g>
<g style="fill:#FFFFFF; fill-opacity:0.0; 
stroke:#FFFFFF; stroke-width:1259.84; stroke-opacity:1; 
stroke-linecap:round; stroke-linejoin:round;">
<path d="M99606 22874
L99094 22874
" />
<path d="M99606 24842
L99094 24842
" />
<path d="M94685 22874
L94173 22874
" />
<path d="M94685 24842
L94173 24842
" />
</g>
<g >
</g>
<g style="fill:#FFFFFF; fill-opacity:0.0; 
stroke:#FFFFFF; stroke-width:1259.84; stroke-opacity:1; 
stroke-linecap:round; stroke-linejoin:round;">
<path d="M72165 22893
L71653 22893
" />
<path d="M72165 24862
L71653 24862
" />
<path d="M67244 22893
L66732 22893
" />
<path d="M67244 24862
L66732 24862
" />
</g>
<g >
</g>
<g >
</g>
<g >
</g>
<g >
</g>
<g >
</g>
<g >
</g>
<g >
</g>
<g >
</g>
<g >
</g>
<g >
</g>
<g >
</g>
<g >
</g>
<g >
</g>
<g >
</g>
<g >
</g>
<g >
</g>
<g >
</g>
<g >
</g>
<g >
</g>
<g >
</g>
<g >
</g>
<g >
</g>
<g >
</g>
<g >
</g>
<g >
</g>
<g >
</g>
<g >
</g>
<g >
</g>
<g >
</g>
<g >
</g>
<g >
</g>
<g >
</g>
<g >
</g>
<g >
</g>
<g >
</g>
<g >
</g>
<g >
</g>
<g >
</g>
<g >
</g>
<g >
</g>
<g >
</g>
<g >
</g>
<g >
</g>
<g style="fill:#FFFFFF; fill-opacity:0.0; 
stroke:#FFFFFF; stroke-width:1259.84; stroke-opacity:1; 
stroke-linecap:round; stroke-linejoin:round;">
</g>
<g style="fill:#FFFFFF; fill-opacity:1.0; 
stroke:#FFFFFF; stroke-width:0; stroke-opacity:1; 
stroke-linecap:round; stroke-linejoin:round;">
<circle cx="85807.1" cy="15954.7" r="374.016" /> 
</g>
<g style="fill:#FFFFFF; fill-opacity:1.0; 
stroke:#FFFFFF; stroke-width:39.3701; stroke-opacity:1; 
stroke-linecap:round; stroke-linejoin:round;">
</g>
<g style="fill:#FFFFFF; fill-opacity:1.0; 
stroke:#FFFFFF; stroke-width:0; stroke-opacity:1; 
stroke-linecap:round; stroke-linejoin:round;">
<circle cx="88946.9" cy="19399.6" r="374.016" /> 
</g>
<g style="fill:#FFFFFF; fill-opacity:1.0; 
stroke:#FFFFFF; stroke-width:39.3701; stroke-opacity:1; 
stroke-linecap:round; stroke-linejoin:round;">
</g>
<g style="fill:#FFFFFF; fill-opacity:1.0; 
stroke:#FFFFFF; stroke-width:0; stroke-opacity:1; 
stroke-linecap:round; stroke-linejoin:round;">
<circle cx="77893.7" cy="23799.2" r="374.016" /> 
</g>
<g style="fill:#FFFFFF; fill-opacity:1.0; 
stroke:#FFFFFF; stroke-width:39.3701; stroke-opacity:1; 
stroke-linecap:round; stroke-linejoin:round;">
</g>
<g style="fill:#FFFFFF; fill-opacity:1.0; 
stroke:#FFFFFF; stroke-width:0; stroke-opacity:1; 
stroke-linecap:round; stroke-linejoin:round;">
<circle cx="83513.8" cy="24320.9" r="374.016" /> 
</g>
<g style="fill:#FFFFFF; fill-opacity:1.0; 
stroke:#FFFFFF; stroke-width:39.3701; stroke-opacity:1; 
stroke-linecap:round; stroke-linejoin:round;">
</g>
<g style="fill:#FFFFFF; fill-opacity:1.0; 
stroke:#FFFFFF; stroke-width:0; stroke-opacity:1; 
stroke-linecap:round; stroke-linejoin:round;">
<circle cx="83503.9" cy="27047.2" r="374.016" /> 
</g>
<g style="fill:#FFFFFF; fill-opacity:1.0; 
stroke:#FFFFFF; stroke-width:39.3701; stroke-opacity:1; 
stroke-linecap:round; stroke-linejoin:round;">
</g>
<g style="fill:#FFFFFF; fill-opacity:1.0; 
stroke:#FFFFFF; stroke-width:0; stroke-opacity:1; 
stroke-linecap:round; stroke-linejoin:round;">
<circle cx="73444.9" cy="25669.3" r="374.016" /> 
</g>
<g style="fill:#FFFFFF; fill-opacity:1.0; 
stroke:#FFFFFF; stroke-width:39.3701; stroke-opacity:1; 
stroke-linecap:round; stroke-linejoin:round;">
</g>
<g style="fill:#FFFFFF; fill-opacity:1.0; 
stroke:#FFFFFF; stroke-width:0; stroke-opacity:1; 
stroke-linecap:round; stroke-linejoin:round;">
<circle cx="80187" cy="21889.8" r="374.016" /> 
</g>
<g style="fill:#FFFFFF; fill-opacity:1.0; 
stroke:#FFFFFF; stroke-width:39.3701; stroke-opacity:1; 
stroke-linecap:round; stroke-linejoin:round;">
</g>
<g style="fill:#FFFFFF; fill-opacity:1.0; 
stroke:#FFFFFF; stroke-width:0; stroke-opacity:1; 
stroke-linecap:round; stroke-linejoin:round;">
<circle cx="81131.9" cy="24320.9" r="374.016" /> 
</g>
<g style="fill:#FFFFFF; fill-opacity:1.0; 
stroke:#FFFFFF; stroke-width:39.3701; stroke-opacity:1; 
stroke-linecap:round; stroke-linejoin:round;">
</g>
<g style="fill:#FFFFFF; fill-opacity:1.0; 
stroke:#FFFFFF; stroke-width:0; stroke-opacity:1; 
stroke-linecap:round; stroke-linejoin:round;">
<circle cx="83503.9" cy="30000" r="374.016" /> 
</g>
<g style="fill:#FFFFFF; fill-opacity:1.0; 
stroke:#FFFFFF; stroke-width:39.3701; stroke-opacity:1; 
stroke-linecap:round; stroke-linejoin:round;">
</g>
<g style="fill:#FFFFFF; fill-opacity:1.0; 
stroke:#FFFFFF; stroke-width:0; stroke-opacity:1; 
stroke-linecap:round; stroke-linejoin:round;">
<circle cx="81131.9" cy="15954.7" r="374.016" /> 
</g>
<g style="fill:#FFFFFF; fill-opacity:1.0; 
stroke:#FFFFFF; stroke-width:39.3701; stroke-opacity:1; 
stroke-linecap:round; stroke-linejoin:round;">
</g>
<g style="fill:#FFFFFF; fill-opacity:1.0; 
stroke:#FFFFFF; stroke-width:0; stroke-opacity:1; 
stroke-linecap:round; stroke-linejoin:round;">
<circle cx="82419.3" cy="20088.6" r="374.016" /> 
</g>
<g style="fill:#FFFFFF; fill-opacity:1.0; 
stroke:#FFFFFF; stroke-width:39.3701; stroke-opacity:1; 
stroke-linecap:round; stroke-linejoin:round;">
</g>
<g style="fill:#FFFFFF; fill-opacity:1.0; 
stroke:#FFFFFF; stroke-width:0; stroke-opacity:1; 
stroke-linecap:round; stroke-linejoin:round;">
<circle cx="83503.9" cy="28031.5" r="374.016" /> 
</g>
<g style="fill:#FFFFFF; fill-opacity:1.0; 
stroke:#FFFFFF; stroke-width:39.3701; stroke-opacity:1; 
stroke-linecap:round; stroke-linejoin:round;">
</g>
<g style="fill:#FFFFFF; fill-opacity:1.0; 
stroke:#FFFFFF; stroke-width:0; stroke-opacity:1; 
stroke-linecap:round; stroke-linejoin:round;">
<circle cx="81919.3" cy="18907.5" r="374.016" /> 
</g>
<g style="fill:#FFFFFF; fill-opacity:1.0; 
stroke:#FFFFFF; stroke-width:39.3701; stroke-opacity:1; 
stroke-linecap:round; stroke-linejoin:round;">
</g>
<g style="fill:#FFFFFF; fill-opacity:1.0; 
stroke:#FFFFFF; stroke-width:0; stroke-opacity:1; 
stroke-linecap:round; stroke-linejoin:round;">
<circle cx="83503.9" cy="29015.7" r="374.016" /> 
</g>
<g style="fill:#FFFFFF; fill-opacity:1.0; 
stroke:#FFFFFF; stroke-width:39.3701; stroke-opacity:1; 
stroke-linecap:round; stroke-linejoin:round;">
</g>
<g >
</g>
<g style="fill:#FFFFFF; fill-opacity:1.0; 
stroke:#FFFFFF; stroke-width:39.3701; stroke-opacity:1; 
stroke-linecap:round; stroke-linejoin:round;">
</g>
<g style="fill:#FFFFFF; fill-opacity:1.0; 
stroke:#FFFFFF; stroke-width:118.11; stroke-opacity:1; 
stroke-linecap:round; stroke-linejoin:round;">
</g>
<g style="fill:#FFFFFF; fill-opacity:0.0; 
stroke:#FFFFFF; stroke-width:118.11; stroke-opacity:1; 
stroke-linecap:round; stroke-linejoin:round;">
<path d="M62952 10196
L57047 10196
" />
<path d="M60000 13149
L60000 7244
" />
<path d="M60000 13149
L60000 7244
" />
<path d="M62952 10196
L57047 10196
" />
<path d="M106259 13149
L106259 7244
" />
<path d="M109212 10196
L103307 10196
" />
<path d="M109212 37755
L103307 37755
" />
<path d="M106259 40708
L106259 34803
" />
<path d="M62952 37755
L57047 37755
" />
<path d="M60000 40708
L60000 34803
" />
<path d="M83513 27037
L83503 27047
" />
<path d="M83513 24320
L83513 27037
" />
<path d="M77224 21889
L80187 21889
" />
<path d="M77224 21889
L73444 25669
" />
<path d="M81948 29389
L81948 25137
" />
<path d="M82559 30000
L81948 29389
" />
<path d="M81948 25137
L81131 24320
" />
<path d="M83503 30000
L82559 30000
" />
<path d="M81131 16483
L81131 24320
" />
<path d="M81131 15954
L81131 16483
" />
<path d="M82421 27477
L82421 23721
" />
<path d="M82974 28031
L82421 27477
" />
<path d="M83503 28031
L82974 28031
" />
<path d="M82419 23719
L82419 20088
" />
<path d="M82421 23721
L82419 23719
" />
<path d="M95433 22874
L99350 22874
" />
<path d="M94429 22874
L95433 22874
" />
<path d="M66988 22893
L71909 22893
" />
<path d="M81669 19157
L81919 18907
" />
<path d="M82183 20933
L81669 20419
" />
<path d="M82185 23818
L82183 23816
" />
<path d="M82183 23816
L82183 20933
" />
<path d="M82185 28494
L82185 23818
" />
<path d="M81669 20419
L81669 19157
" />
<path d="M82706 29015
L82185 28494
" />
<path d="M83503 29015
L82706 29015
" />
</g>
<g >
</g>
<g style="fill:#FFFFFF; fill-opacity:0.0; 
stroke:#FFFFFF; stroke-width:118.11; stroke-opacity:1; 
stroke-linecap:round; stroke-linejoin:round;">
<g >
</g>
<g style="fill:#FFFFFF; fill-opacity:1.0; 
stroke:#FFFFFF; stroke-width:100; stroke-opacity:1; 
stroke-linecap:round; stroke-linejoin:round;">
<path style="fill:#FFFFFF; fill-opacity:1.0; 
stroke:#FFFFFF; stroke-width:100; stroke-opacity:1; 
stroke-linecap:round; stroke-linejoin:round;fill-rule:evenodd;"
d="M 67234.5,13516.5
67149.5,13573.3
67077.3,13645.6
67020.5,13730.6
66981.4,13825
66961.4,13925.3
66961.4,14027.5
66981.4,14127.7
67020.5,14222.2
67077.3,14307.2
67149.5,14379.4
67234.5,14436.2
67329,14475.3
67429.2,14495.3
67531.4,14495.3
67631.7,14475.3
67726.1,14436.2
67811.1,14379.4
67883.4,14307.2
67940.2,14222.2
67979.3,14127.7
67999.2,14027.5
67999.2,13925.3
67979.3,13825
67940.2,13730.6
67883.4,13645.6
67811.1,13573.3
67726.1,13516.5
67646.3,13483.5
71251.4,13483.5
71171.5,13516.5
71086.5,13573.3
71014.3,13645.6
70957.5,13730.6
70918.4,13825
70898.4,13925.3
70898.4,14027.5
70918.4,14127.7
70957.5,14222.2
71014.3,14307.2
71086.5,14379.4
71171.5,14436.2
71266,14475.3
71366.2,14495.3
71468.4,14495.3
71568.7,14475.3
71663.1,14436.2
71748.1,14379.4
71820.4,14307.2
71877.2,14222.2
71916.3,14127.7
71936.2,14027.5
71936.2,13925.3
71916.3,13825
71877.2,13730.6
71820.4,13645.6
71748.1,13573.3
71663.1,13516.5
71583.3,13483.5
74245.8,13483.5
74170.9,13558.4
74018,13787.2
73912.7,14041.4
73859.1,14311.2
73859.1,14586.4
73912.7,14856.3
74018,15110.5
74170.9,15339.3
74365.5,15533.8
74594.2,15686.7
74848.5,15792
75118.3,15845.7
75393.5,15845.7
75663.4,15792
75917.6,15686.7
76146.3,15533.8
76340.9,15339.3
76493.8,15110.5
76599.1,14856.3
76652.8,14586.4
76652.8,14311.2
76599.1,14041.4
76493.8,13787.2
76340.9,13558.4
76266,13483.5
90072.6,13483.5
89997.7,13558.4
89844.8,13787.2
89739.5,14041.4
89685.8,14311.2
89685.8,14586.4
89739.5,14856.3
89844.8,15110.5
89997.7,15339.3
90192.2,15533.8
90421,15686.7
90675.2,15792
90945.1,15845.7
91220.3,15845.7
91490.1,15792
91744.3,15686.7
91973.1,15533.8
92167.7,15339.3
92320.6,15110.5
92425.8,14856.3
92479.5,14586.4
92479.5,14311.2
92425.8,14041.4
92320.6,13787.2
92167.7,13558.4
92092.8,13483.5
94755.3,13483.5
94675.5,13516.5
94590.5,13573.3
94518.2,13645.6
94461.4,13730.6
94422.3,13825
94402.4,13925.3
94402.4,14027.5
94422.3,14127.7
94461.4,14222.2
94518.2,14307.2
94590.5,14379.4
94675.5,14436.2
94769.9,14475.3
94870.2,14495.3
94972.4,14495.3
95072.6,14475.3
95167.1,14436.2
95252,14379.4
95324.3,14307.2
95381.1,14222.2
95420.2,14127.7
95440.2,14027.5
95440.2,13925.3
95420.2,13825
95381.1,13730.6
95324.3,13645.6
95252,13573.3
95167.1,13516.5
95087.2,13483.5
98692.3,13483.5
98612.5,13516.5
98527.5,13573.3
98455.2,13645.6
98398.4,13730.6
98359.3,13825
98339.4,13925.3
98339.4,14027.5
98359.3,14127.7
98398.4,14222.2
98455.2,14307.2
98527.5,14379.4
98612.5,14436.2
98706.9,14475.3
98807.2,14495.3
98909.4,14495.3
99009.6,14475.3
99104.1,14436.2
99189,14379.4
99261.3,14307.2
99318.1,14222.2
99357.2,14127.7
99377.2,14027.5
99377.2,13925.3
99357.2,13825
99318.1,13730.6
99261.3,13645.6
99189,13573.3
99104.1,13516.5
99024.2,13483.5
101024,13483.5
101024,15733.6
101023,15748
101029,15805.8
101046,15861.3
101073,15912.4
101110,15957.3
101154,15994.1
101206,16021.4
101261,16038.3
101319,16043.9
101333,16042.5
103387,16042.5
103387,31674
101333,31674
101319,31672.6
101304,31674
101261,31678.3
101206,31695.1
101154,31722.5
101110,31759.3
101073,31804.1
101046,31855.3
101029,31910.8
101023,31968.5
101024,31983
101024,34233.1
97899.9,34233.1
97974.8,34158.2
98127.6,33929.4
98232.9,33675.2
98286.6,33405.3
98286.6,33130.1
98232.9,32860.3
98127.6,32606.1
97974.8,32377.3
97780.2,32182.7
97551.4,32029.8
97297.2,31924.5
97027.3,31870.9
96752.2,31870.9
96482.3,31924.5
96228.1,32029.8
95999.3,32182.7
95804.8,32377.3
95651.9,32606.1
95546.6,32860.3
95492.9,33130.1
95492.9,33405.3
95546.6,33675.2
95651.9,33929.4
95804.8,34158.2
95879.7,34233.1
90579.3,34233.1
90659.2,34200
90744.2,34143.2
90816.4,34070.9
90873.2,33985.9
90912.3,33891.5
90932.3,33791.3
90932.3,33689.1
90912.3,33588.8
90873.2,33494.4
90816.4,33409.4
90744.2,33337.1
90659.2,33280.3
90564.7,33241.2
90464.5,33221.3
90362.3,33221.3
90262,33241.2
90167.6,33280.3
90082.6,33337.1
90010.3,33409.4
89953.5,33494.4
89914.4,33588.8
89894.5,33689.1
89894.5,33791.3
89914.4,33891.5
89953.5,33985.9
90010.3,34070.9
90082.6,34143.2
90167.6,34200
90247.4,34233.1
86642.3,34233.1
86722.2,34200
86807.2,34143.2
86879.4,34070.9
86936.2,33985.9
86975.3,33891.5
86995.3,33791.3
86995.3,33689.1
86975.3,33588.8
86936.2,33494.4
86879.4,33409.4
86807.2,33337.1
86722.2,33280.3
86627.7,33241.2
86527.5,33221.3
86425.3,33221.3
86325,33241.2
86230.6,33280.3
86145.6,33337.1
86073.3,33409.4
86016.5,33494.4
85977.4,33588.8
85957.5,33689.1
85957.5,33791.3
85977.4,33891.5
86016.5,33985.9
86073.3,34070.9
86145.6,34143.2
86230.6,34200
86310.4,34233.1
70432.9,34233.1
70458.9,34207.1
70414.2,34162.4
70592.9,34037.1
70721,33799.1
70800.2,33540.7
70827.5,33271.8
70801.8,33002.8
70724.1,32743.9
70597.4,32505.2
70592.9,32498.3
70414.2,32373.1
69519.5,33267.7
69525.1,33273.3
69454.4,33344
69448.8,33338.4
69443.3,33344
69372.5,33273.3
69378.1,33267.7
68483.5,32373.1
68304.8,32498.3
68176.7,32736.3
68097.4,32994.7
68070.1,33263.6
68095.8,33532.6
68173.5,33791.5
68300.2,34030.2
68304.8,34037.1
68483.5,34162.4
68438.8,34207.1
68464.8,34233.1
65314.2,34233.1
65314.2,32047.2
65451.3,32047.2
65460.4,32139.7
65487.3,32228.6
65531.1,32310.5
65590.1,32382.4
65661.9,32441.3
65743.8,32485.1
65832.7,32512.1
65902,32518.9
66735.8,32518.9
66805.1,32512.1
66894,32485.1
66975.9,32441.3
67047.7,32382.4
67106.7,32310.5
67111,32302.3
68554.2,32302.3
69448.8,33197
70304.3,32341.5
74075.6,32341.5
74075.6,32453.8
74097.5,32563.9
74140.5,32667.7
74202.9,32761
74282.3,32840.4
74375.6,32902.8
74479.4,32945.8
74589.5,32967.7
74701.8,32967.7
74812,32945.8
74915.7,32902.8
75009.1,32840.4
75088.5,32761
75150.9,32667.7
75193.8,32563.9
75215.7,32453.8
75215.7,32341.5
80571.7,32341.5
80571.7,32453.8
80593.6,32563.9
80636.5,32667.7
80698.9,32761
80778.3,32840.4
80871.7,32902.8
80975.4,32945.8
81085.6,32967.7
81197.9,32967.7
81308,32945.8
81411.8,32902.8
81505.1,32840.4
81584.5,32761
81646.9,32667.7
81689.9,32563.9
81711.8,32453.8
81711.8,32341.5
81689.9,32231.4
81646.9,32127.6
81584.5,32034.2
81505.1,31954.8
81411.8,31892.4
81308,31849.5
81197.9,31827.6
81085.6,31827.6
80975.4,31849.5
80871.7,31892.4
80778.3,31954.8
80698.9,32034.2
80636.5,32127.6
80593.6,32231.4
80571.7,32341.5
75215.7,32341.5
75193.8,32231.4
75150.9,32127.6
75088.5,32034.2
75009.1,31954.8
74915.7,31892.4
74812,31849.5
74701.8,31827.6
74589.5,31827.6
74479.4,31849.5
74375.6,31892.4
74282.3,31954.8
74202.9,32034.2
74140.5,32127.6
74097.5,32231.4
74075.6,32341.5
70304.3,32341.5
70343.5,32302.3
70218.2,32123.7
69980.2,31995.6
69721.8,31916.3
69452.9,31889
69183.9,31914.7
68925,31992.4
68686.3,32119.1
68679.4,32123.7
68554.2,32302.3
67111,32302.3
67150.5,32228.6
67177.4,32139.7
67186.5,32047.2
67177.4,31954.8
67150.5,31865.9
67106.7,31783.9
67047.7,31712.1
66975.9,31653.2
66894,31609.4
66805.1,31582.4
66735.8,31575.6
65902,31575.6
65832.7,31582.4
65743.8,31609.4
65661.9,31653.2
65590.1,31712.1
65531.1,31783.9
65487.3,31865.9
65460.4,31954.8
65451.3,32047.2
65314.2,32047.2
65314.2,32022.3
65315.6,32007.9
65309.9,31950.1
65293.1,31894.6
65265.7,31843.5
65228.9,31798.6
65184.1,31761.8
65132.9,31734.5
65077.4,31717.6
65034.2,31713.4
65019.7,31712
65005.2,31713.4
62952,31713.4
62952,29780
64666.1,29780
64666.1,30613.7
64673,30683
64699.9,30771.9
64743.7,30853.9
64802.7,30925.7
64874.5,30984.6
64956.4,31028.4
65045.3,31055.4
65137.8,31064.5
65230.3,31055.4
65319.2,31028.4
65401.1,30984.6
65472.9,30925.7
65531.9,30853.9
65575.7,30771.9
65602.6,30683
65609.4,30613.7
65609.4,29780
67028.3,29780
67028.3,30613.7
67035.2,30683
67062.1,30771.9
67105.9,30853.9
67164.9,30925.7
67236.7,30984.6
67318.6,31028.4
67407.5,31055.4
67500,31064.5
67592.5,31055.4
67681.4,31028.4
67763.3,30984.6
67835.1,30925.7
67894.1,30853.9
67937.9,30771.9
67964.8,30683
67971.7,30613.7
67971.7,29841.5
74075.6,29841.5
74075.6,29953.8
74097.5,30063.9
74140.5,30167.7
74202.9,30261
74282.3,30340.4
74375.6,30402.8
74479.4,30445.8
74589.5,30467.7
74701.8,30467.7
74812,30445.8
74915.7,30402.8
75009.1,30340.4
75088.5,30261
75150.9,30167.7
75193.8,30063.9
75215.7,29953.8
75215.7,29841.5
80571.7,29841.5
80571.7,29953.8
80593.6,30063.9
80636.5,30167.7
80698.9,30261
80778.3,30340.4
80871.7,30402.8
80975.4,30445.8
81085.6,30467.7
81197.9,30467.7
81308,30445.8
81411.8,30402.8
81505.1,30340.4
81584.5,30261
81646.9,30167.7
81689.9,30063.9
81711.8,29953.8
81711.8,29841.5
81689.9,29731.4
81646.9,29627.6
81584.5,29534.2
81505.1,29454.8
81411.8,29392.4
81308,29349.5
81197.9,29327.6
81085.6,29327.6
80975.4,29349.5
80871.7,29392.4
80778.3,29454.8
80698.9,29534.2
80636.5,29627.6
80593.6,29731.4
80571.7,29841.5
75215.7,29841.5
75193.8,29731.4
75150.9,29627.6
75088.5,29534.2
75009.1,29454.8
74915.7,29392.4
74812,29349.5
74701.8,29327.6
74589.5,29327.6
74479.4,29349.5
74375.6,29392.4
74282.3,29454.8
74202.9,29534.2
74140.5,29627.6
74097.5,29731.4
74075.6,29841.5
67971.7,29841.5
67971.7,29780
67964.8,29710.7
67937.9,29621.8
67894.1,29539.8
67835.1,29468
67763.3,29409.1
67681.4,29365.3
67592.5,29338.3
67500,29329.2
67407.5,29338.3
67318.6,29365.3
67236.7,29409.1
67164.9,29468
67105.9,29539.8
67062.1,29621.8
67035.2,29710.7
67028.3,29780
65609.4,29780
65609.4,29780
65602.6,29710.7
65575.7,29621.8
65531.9,29539.8
65472.9,29468
65401.1,29409.1
65319.2,29365.3
65230.3,29338.3
65137.8,29329.2
65045.3,29338.3
64956.4,29365.3
64874.5,29409.1
64802.7,29468
64743.7,29539.8
64699.9,29621.8
64673,29710.7
64666.1,29780
62952,29780
62952,27341.5
74075.6,27341.5
74075.6,27453.8
74097.5,27563.9
74140.5,27667.7
74202.9,27761
74282.3,27840.4
74375.6,27902.8
74479.4,27945.8
74589.5,27967.7
74701.8,27967.7
74812,27945.8
74915.7,27902.8
75009.1,27840.4
75088.5,27761
75150.9,27667.7
75193.8,27563.9
75215.7,27453.8
75215.7,27341.5
75193.8,27231.4
75150.9,27127.6
75088.5,27034.2
75009.1,26954.8
74915.7,26892.4
74812,26849.5
74701.8,26827.6
74589.5,26827.6
74479.4,26849.5
74375.6,26892.4
74282.3,26954.8
74202.9,27034.2
74140.5,27127.6
74097.5,27231.4
74075.6,27341.5
62952,27341.5
62952,25049
65872.4,25049
65900.2,25152.7
65972.9,25309.5
66074.7,25449
66201.9,25566.1
66349.4,25656
66511.6,25715.5
66682.3,25742.1
66938.2,25742.1
66938.2,24912.2
67038.2,24912.2
67038.2,25742.1
67294.1,25742.1
67464.8,25715.5
67627,25656
67774.5,25566.1
67901.6,25449
68003.5,25309.5
68076.2,25152.7
68104,25049
70793.7,25049
70821.5,25152.7
70894.1,25309.5
70996,25449
71123.1,25566.1
71270.6,25656
71432.8,25715.5
71603.5,25742.1
71859.4,25742.1
71859.4,24912.2
71959.4,24912.2
71959.4,25742.1
72215.4,25742.1
72386.1,25715.5
72548.3,25656
72695.8,25566.1
72822.9,25449
72848.2,25414.4
72821,25480
72796.1,25605.4
72796.1,25733.2
72821,25858.5
72869.9,25976.6
72940.9,26082.9
73031.3,26173.3
73137.6,26244.3
73255.6,26293.2
73381,26318.1
73508.8,26318.1
73634.1,26293.2
73752.2,26244.3
73858.5,26173.3
73948.9,26082.9
74019.9,25976.6
74068.8,25858.5
74093.7,25733.2
74093.7,25605.4
74075,25511.3
77362.7,22223.6
79629.8,22223.6
79683,22303.4
79773.4,22393.7
79879.7,22464.7
79997.8,22513.6
80123.1,22538.6
80250.9,22538.6
80376.3,22513.6
80494.3,22464.7
80600.6,22393.7
80691,22303.4
80762,22197.1
80798,22110.1
80798,23763.6
80718.3,23816.9
80627.9,23907.3
80556.9,24013.5
80508,24131.6
80483.1,24257
80483.1,24384.8
80508,24510.1
80556.9,24628.2
80627.9,24734.5
80718.3,24824.8
80824.6,24895.8
80942.6,24944.8
81068,24969.7
81195.8,24969.7
81289.9,24951
81615,25276.1
81615,27079.8
81584.5,27034.2
81505.1,26954.8
81411.8,26892.4
81308,26849.5
81197.9,26827.6
81085.6,26827.6
80975.4,26849.5
80871.7,26892.4
80778.3,26954.8
80698.9,27034.2
80636.5,27127.6
80593.6,27231.4
80571.7,27341.5
80571.7,27453.8
80593.6,27563.9
80636.5,27667.7
80698.9,27761
80778.3,27840.4
80871.7,27902.8
80975.4,27945.8
81085.6,27967.7
81197.9,27967.7
81308,27945.8
81411.8,27902.8
81505.1,27840.4
81584.5,27761
81615,27715.5
81615,29373.4
81613.3,29389.8
81619.8,29455.2
81632.2,29496
81638.9,29518.1
81669.9,29576.1
81711.6,29627
81724.3,29637.4
82311.4,30224.5
82321.8,30237.2
82372.7,30278.9
82425.8,30307.3
82430.7,30309.9
82493.6,30329
82559.1,30335.5
82575.5,30333.9
82946.7,30333.9
83000,30413.6
83090.3,30504
83196.6,30575
83314.7,30623.9
83440,30648.8
83567.8,30648.8
83693.2,30623.9
83811.3,30575
83917.5,30504
84007.9,30413.6
84078.9,30307.3
84127.8,30189.3
84152.8,30063.9
84152.8,29945.8
84941.7,29945.8
84941.7,30054.2
84962.9,30160.5
85004.4,30260.7
85064.6,30350.9
85141.3,30427.5
85231.4,30487.8
85331.6,30529.2
85437.9,30550.4
85546.3,30550.4
85652.7,30529.2
85752.8,30487.8
85843,30427.5
85919.6,30350.9
85979.9,30260.7
86021.4,30160.5
86042.5,30054.2
86042.5,29945.8
87894.5,29945.8
87894.5,30054.2
87915.6,30160.5
87957.1,30260.7
88017.4,30350.9
88094,30427.5
88184.2,30487.8
88284.3,30529.2
88390.7,30550.4
88499.1,30550.4
88605.4,30529.2
88705.6,30487.8
88795.7,30427.5
88872.4,30350.9
88932.6,30260.7
88974.1,30160.5
88995.3,30054.2
88995.3,29945.8
90847.2,29945.8
90847.2,30054.2
90868.4,30160.5
90909.9,30260.7
90970.1,30350.9
91046.8,30427.5
91136.9,30487.8
91237.1,30529.2
91343.4,30550.4
91451.8,30550.4
91558.2,30529.2
91658.3,30487.8
91748.5,30427.5
91825.2,30350.9
91885.4,30260.7
91926.9,30160.5
91948,30054.2
91948,29945.8
91926.9,29839.5
91885.4,29739.3
91825.2,29649.1
91748.5,29572.5
91658.3,29512.2
91558.2,29470.8
91451.8,29449.6
91343.4,29449.6
91237.1,29470.8
91136.9,29512.2
91046.8,29572.5
90970.1,29649.1
90909.9,29739.3
90868.4,29839.5
90847.2,29945.8
88995.3,29945.8
88974.1,29839.5
88932.6,29739.3
88872.4,29649.1
88795.7,29572.5
88705.6,29512.2
88605.4,29470.8
88499.1,29449.6
88390.7,29449.6
88284.3,29470.8
88184.2,29512.2
88094,29572.5
88017.4,29649.1
87957.1,29739.3
87915.6,29839.5
87894.5,29945.8
86042.5,29945.8
86021.4,29839.5
85979.9,29739.3
85919.6,29649.1
85843,29572.5
85752.8,29512.2
85652.7,29470.8
85546.3,29449.6
85437.9,29449.6
85331.6,29470.8
85231.4,29512.2
85141.3,29572.5
85064.6,29649.1
85004.4,29739.3
84962.9,29839.5
84941.7,29945.8
84152.8,29945.8
84152.8,29936.1
84127.8,29810.7
84078.9,29692.7
84007.9,29586.4
83929.4,29507.9
84007.9,29429.3
84078.9,29323.1
84127.8,29205
84152.8,29079.7
84152.8,28961.5
85926,28961.5
85926,29070
85947.1,29176.3
85988.6,29276.5
86048.9,29366.6
86125.5,29443.3
86215.7,29503.5
86315.8,29545
86422.2,29566.1
86530.6,29566.1
86636.9,29545
86737.1,29503.5
86827.2,29443.3
86903.9,29366.6
86964.1,29276.5
87005.6,29176.3
87026.8,29070
87026.8,28961.5
89863,28961.5
89863,29070
89884.1,29176.3
89925.6,29276.5
89985.9,29366.6
90062.5,29443.3
90152.7,29503.5
90252.8,29545
90359.2,29566.1
90467.6,29566.1
90573.9,29545
90674.1,29503.5
90764.2,29443.3
90840.9,29366.6
90901.1,29276.5
90942.6,29176.3
90963.8,29070
90963.8,28961.5
90942.6,28855.2
90901.1,28755
90840.9,28664.9
90764.2,28588.2
90674.1,28528
90573.9,28486.5
90467.6,28465.4
90359.2,28465.4
90252.8,28486.5
90152.7,28528
90062.5,28588.2
89985.9,28664.9
89925.6,28755
89884.1,28855.2
89863,28961.5
87026.8,28961.5
87005.6,28855.2
86964.1,28755
86903.9,28664.9
86827.2,28588.2
86737.1,28528
86636.9,28486.5
86530.6,28465.4
86422.2,28465.4
86315.8,28486.5
86215.7,28528
86125.5,28588.2
86048.9,28664.9
85988.6,28755
85947.1,28855.2
85926,28961.5
84152.8,28961.5
84152.8,28951.8
84127.8,28826.5
84078.9,28708.4
84007.9,28602.1
83929.4,28523.6
84007.9,28445.1
84078.9,28338.8
84127.8,28220.7
84152.8,28095.4
84152.8,27977.3
87894.5,27977.3
87894.5,28085.7
87915.6,28192
87957.1,28292.2
88017.4,28382.4
88094,28459
88184.2,28519.2
88284.3,28560.7
88390.7,28581.9
88499.1,28581.9
88605.4,28560.7
88705.6,28519.2
88795.7,28459
88872.4,28382.4
88932.6,28292.2
88974.1,28192
88995.3,28085.7
88995.3,27977.3
88974.1,27871
88932.6,27770.8
88872.4,27680.6
88795.7,27604
88705.6,27543.7
88605.4,27502.3
88499.1,27481.1
88390.7,27481.1
88284.3,27502.3
88184.2,27543.7
88094,27604
88017.4,27680.6
87957.1,27770.8
87915.6,27871
87894.5,27977.3
84152.8,27977.3
84152.8,27967.6
84127.8,27842.2
84078.9,27724.2
84007.9,27617.9
83929.4,27539.4
84007.9,27460.8
84078.9,27354.6
84127.8,27236.5
84152.8,27111.1
84152.8,26983.3
84127.8,26858
84078.9,26739.9
84007.9,26633.6
83917.5,26543.3
83847.6,26496.6
83847.6,25029.3
93313.4,25029.3
93341.2,25133.1
93413.8,25289.8
93515.7,25429.4
93642.8,25546.4
93790.3,25636.3
93952.5,25695.8
94123.2,25722.4
94379.1,25722.4
94379.1,24892.5
94479.1,24892.5
94479.1,25722.4
94735,25722.4
94905.7,25695.8
95068,25636.3
95215.5,25546.4
95342.6,25429.4
95444.4,25289.8
95517.1,25133.1
95544.9,25029.3
98234.6,25029.3
98262.4,25133.1
98335.1,25289.8
98436.9,25429.4
98564.1,25546.4
98711.6,25636.3
98873.8,25695.8
99044.5,25722.4
99300.4,25722.4
99300.4,24892.5
99400.4,24892.5
99400.4,25722.4
99656.3,25722.4
99827,25695.8
99989.2,25636.3
100137,25546.4
100264,25429.4
100366,25289.8
100438,25133.1
100466,25029.3
100422,24892.5
99400.4,24892.5
99300.4,24892.5
98278.6,24892.5
98234.6,25029.3
95544.9,25029.3
95500.9,24892.5
94479.1,24892.5
94379.1,24892.5
93357.3,24892.5
93313.4,25029.3
83847.6,25029.3
83847.6,24878.1
83927.4,24824.8
84017.8,24734.5
84070.4,24655.7
93313.4,24655.7
93357.3,24792.5
94379.1,24792.5
94379.1,23962.6
94479.1,23962.6
94479.1,24792.5
95500.9,24792.5
95544.9,24655.7
98234.6,24655.7
98278.6,24792.5
99300.4,24792.5
99300.4,23962.6
99400.4,23962.6
99400.4,24792.5
100422,24792.5
100466,24655.7
100438,24552
100366,24395.2
100264,24255.7
100137,24138.7
99989.2,24048.7
99827,23989.3
99656.3,23962.6
99400.4,23962.6
99300.4,23962.6
99044.5,23962.6
98873.8,23989.3
98711.6,24048.7
98564.1,24138.7
98436.9,24255.7
98335.1,24395.2
98262.4,24552
98234.6,24655.7
95544.9,24655.7
95517.1,24552
95444.4,24395.2
95342.6,24255.7
95215.5,24138.7
95068,24048.7
94905.7,23989.3
94735,23962.6
94479.1,23962.6
94379.1,23962.6
94123.2,23962.6
93952.5,23989.3
93790.3,24048.7
93642.8,24138.7
93515.7,24255.7
93413.8,24395.2
93341.2,24552
93313.4,24655.7
84070.4,24655.7
84088.8,24628.2
84137.7,24510.1
84162.6,24384.8
84162.6,24257
84137.7,24131.6
84088.8,24013.5
84017.8,23907.3
83927.4,23816.9
83837.2,23756.6
88514.6,23756.6
88514.6,23841.8
88531.2,23925.3
88563.8,24004
88611.1,24074.8
88671.3,24135
88742.1,24182.3
88820.8,24214.9
88904.3,24231.5
88989.4,24231.5
89072.9,24214.9
89151.6,24182.3
89222.4,24135
89282.6,24074.8
89329.9,24004
89362.5,23925.3
89379.1,23841.8
89379.1,23756.6
91514.6,23756.6
91514.6,23841.8
91531.2,23925.3
91563.8,24004
91611.1,24074.8
91671.3,24135
91742.1,24182.3
91820.8,24214.9
91904.3,24231.5
91989.4,24231.5
92072.9,24214.9
92151.6,24182.3
92222.4,24135
92282.6,24074.8
92329.9,24004
92362.5,23925.3
92379.1,23841.8
92379.1,23756.6
92362.5,23673.1
92329.9,23594.4
92282.6,23523.6
92222.4,23463.4
92151.6,23416.1
92072.9,23383.5
91989.4,23366.9
91904.3,23366.9
91820.8,23383.5
91742.1,23416.1
91671.3,23463.4
91611.1,23523.6
91563.8,23594.4
91531.2,23673.1
91514.6,23756.6
89379.1,23756.6
89362.5,23673.1
89329.9,23594.4
89282.6,23523.6
89222.4,23463.4
89151.6,23416.1
89072.9,23383.5
88989.4,23366.9
88904.3,23366.9
88820.8,23383.5
88742.1,23416.1
88671.3,23463.4
88611.1,23523.6
88563.8,23594.4
88531.2,23673.1
88514.6,23756.6
83837.2,23756.6
83821.1,23745.9
83703,23697
83577.7,23672
83449.9,23672
83324.5,23697
83206.4,23745.9
83100.2,23816.9
83009.8,23907.3
82938.8,24013.5
82889.9,24131.6
82865,24257
82865,24384.8
82889.9,24510.1
82938.8,24628.2
83009.8,24734.5
83100.2,24824.8
83179.9,24878.1
83179.9,26483.4
83090.3,26543.3
83000,26633.6
82929,26739.9
82880.1,26858
82855.1,26983.3
82855.1,27111.1
82880.1,27236.5
82929,27354.6
83000,27460.8
83078.5,27539.4
83016.8,27601.1
82755.1,27339.5
82755.1,23737.5
82756.7,23721.1
82753.1,23684.6
82753.1,22756.6
88514.6,22756.6
88514.6,22841.8
88531.2,22925.3
88563.8,23004
88611.1,23074.8
88671.3,23135
88742.1,23182.3
88820.8,23214.9
88904.3,23231.5
88989.4,23231.5
89072.9,23214.9
89151.6,23182.3
89222.4,23135
89282.6,23074.8
89329.9,23004
89362.5,22925.3
89379.1,22841.8
89379.1,22756.6
91514.6,22756.6
91514.6,22841.8
91531.2,22925.3
91563.8,23004
91611.1,23074.8
91671.3,23135
91742.1,23182.3
91820.8,23214.9
91904.3,23231.5
91989.4,23231.5
92072.9,23214.9
92151.6,23182.3
92222.4,23135
92282.6,23074.8
92329.9,23004
92362.5,22925.3
92372.7,22874
93264.1,22874
93281.6,23051.4
93333.3,23221.9
93417.3,23379.1
93530.4,23516.8
93668.2,23629.9
93825.3,23713.9
93995.9,23765.6
94128.8,23778.7
94729.5,23778.7
94862.4,23765.6
95032.9,23713.9
95190.1,23629.9
95327.9,23516.8
95440.9,23379.1
95524.9,23221.9
95529.2,23207.9
98250.3,23207.9
98254.6,23221.9
98338.6,23379.1
98451.7,23516.8
98589.4,23629.9
98746.6,23713.9
98917.1,23765.6
99050,23778.7
99650.7,23778.7
99783.7,23765.6
99954.2,23713.9
100111,23629.9
100249,23516.8
100362,23379.1
100446,23221.9
100498,23051.4
100515,22874
100498,22696.7
100446,22526.1
100362,22368.9
100249,22231.2
100111,22118.1
99954.2,22034.1
99783.7,21982.4
99650.7,21969.3
99050,21969.3
98917.1,21982.4
98746.6,22034.1
98589.4,22118.1
98451.7,22231.2
98338.6,22368.9
98254.6,22526.1
98250.3,22540.2
95529.2,22540.2
95524.9,22526.1
95440.9,22368.9
95327.9,22231.2
95190.1,22118.1
95032.9,22034.1
94862.4,21982.4
94729.5,21969.3
94128.8,21969.3
93995.9,21982.4
93825.3,22034.1
93668.2,22118.1
93530.4,22231.2
93417.3,22368.9
93333.3,22526.1
93281.6,22696.7
93264.1,22874
92372.7,22874
92379.1,22841.8
92379.1,22756.6
92362.5,22673.1
92329.9,22594.4
92282.6,22523.6
92222.4,22463.4
92151.6,22416.1
92072.9,22383.5
91989.4,22366.9
91904.3,22366.9
91820.8,22383.5
91742.1,22416.1
91671.3,22463.4
91611.1,22523.6
91563.8,22594.4
91531.2,22673.1
91514.6,22756.6
89379.1,22756.6
89362.5,22673.1
89329.9,22594.4
89282.6,22523.6
89222.4,22463.4
89151.6,22416.1
89072.9,22383.5
88989.4,22366.9
88904.3,22366.9
88820.8,22383.5
88742.1,22416.1
88671.3,22463.4
88611.1,22523.6
88563.8,22594.4
88531.2,22673.1
88514.6,22756.6
82753.1,22756.6
82753.1,21756.6
88514.6,21756.6
88514.6,21841.8
88531.2,21925.3
88563.8,22004
88611.1,22074.8
88671.3,22135
88742.1,22182.3
88820.8,22214.9
88904.3,22231.5
88989.4,22231.5
89072.9,22214.9
89151.6,22182.3
89222.4,22135
89282.6,22074.8
89329.9,22004
89362.5,21925.3
89379.1,21841.8
89379.1,21756.6
91514.6,21756.6
91514.6,21841.8
91531.2,21925.3
91563.8,22004
91611.1,22074.8
91671.3,22135
91742.1,22182.3
91820.8,22214.9
91904.3,22231.5
91989.4,22231.5
92072.9,22214.9
92151.6,22182.3
92222.4,22135
92282.6,22074.8
92329.9,22004
92362.5,21925.3
92379.1,21841.8
92379.1,21756.6
92362.5,21673.1
92329.9,21594.4
92282.6,21523.6
92222.4,21463.4
92151.6,21416.1
92072.9,21383.5
91989.4,21366.9
91904.3,21366.9
91820.8,21383.5
91742.1,21416.1
91671.3,21463.4
91611.1,21523.6
91563.8,21594.4
91531.2,21673.1
91514.6,21756.6
89379.1,21756.6
89362.5,21673.1
89329.9,21594.4
89282.6,21523.6
89222.4,21463.4
89151.6,21416.1
89072.9,21383.5
88989.4,21366.9
88904.3,21366.9
88820.8,21383.5
88742.1,21416.1
88671.3,21463.4
88611.1,21523.6
88563.8,21594.4
88531.2,21673.1
88514.6,21756.6
82753.1,21756.6
82753.1,20756.6
88514.6,20756.6
88514.6,20841.8
88531.2,20925.3
88563.8,21004
88611.1,21074.8
88671.3,21135
88742.1,21182.3
88820.8,21214.9
88904.3,21231.5
88989.4,21231.5
89072.9,21214.9
89151.6,21182.3
89222.4,21135
89282.6,21074.8
89329.9,21004
89362.5,20925.3
89379.1,20841.8
89379.1,20756.6
91514.6,20756.6
91514.6,20841.8
91531.2,20925.3
91563.8,21004
91611.1,21074.8
91671.3,21135
91742.1,21182.3
91820.8,21214.9
91904.3,21231.5
91989.4,21231.5
92072.9,21214.9
92151.6,21182.3
92222.4,21135
92282.6,21074.8
92329.9,21004
92362.5,20925.3
92379.1,20841.8
92379.1,20756.6
92362.5,20673.1
92329.9,20594.4
92282.6,20523.6
92222.4,20463.4
92151.6,20416.1
92072.9,20383.5
91989.4,20366.9
91904.3,20366.9
91820.8,20383.5
91742.1,20416.1
91671.3,20463.4
91611.1,20523.6
91563.8,20594.4
91531.2,20673.1
91514.6,20756.6
89379.1,20756.6
89362.5,20673.1
89329.9,20594.4
89282.6,20523.6
89222.4,20463.4
89151.6,20416.1
89072.9,20383.5
88989.4,20366.9
88904.3,20366.9
88820.8,20383.5
88742.1,20416.1
88671.3,20463.4
88611.1,20523.6
88563.8,20594.4
88531.2,20673.1
88514.6,20756.6
82753.1,20756.6
82753.1,20645.8
82832.9,20592.6
82923.3,20502.2
82994.3,20395.9
83043.2,20277.8
83068.1,20152.5
83068.1,20024.7
83043.2,19899.3
82994.3,19781.3
82923.3,19675
82832.9,19584.6
82726.6,19513.6
82608.5,19464.7
82483.2,19439.8
82355.4,19439.8
82263,19458.1
82332.9,19411.5
82423.3,19321.1
82494.3,19214.8
82543.2,19096.7
82568.1,18971.4
82568.1,18843.6
82543.2,18718.2
82513.5,18646.6
94370.9,18646.6
94370.9,18755
94392,18861.3
94433.5,18961.5
94493.7,19051.6
94570.4,19128.3
94660.6,19188.5
94760.7,19230
94867.1,19251.2
94975.5,19251.2
95081.8,19230
95182,19188.5
95272.1,19128.3
95348.8,19051.6
95409,18961.5
95450.5,18861.3
95471.7,18755
95471.7,18646.6
98307.9,18646.6
98307.9,18755
98329,18861.3
98370.5,18961.5
98430.7,19051.6
98507.4,19128.3
98597.6,19188.5
98697.7,19230
98804.1,19251.2
98912.5,19251.2
99018.8,19230
99119,19188.5
99209.1,19128.3
99285.8,19051.6
99346,18961.5
99387.5,18861.3
99408.7,18755
99408.7,18646.6
99387.5,18540.2
99346,18440.1
99285.8,18349.9
99209.1,18273.3
99119,18213
99018.8,18171.5
98912.5,18150.4
98804.1,18150.4
98697.7,18171.5
98597.6,18213
98507.4,18273.3
98430.7,18349.9
98370.5,18440.1
98329,18540.2
98307.9,18646.6
95471.7,18646.6
95450.5,18540.2
95409,18440.1
95348.8,18349.9
95272.1,18273.3
95182,18213
95081.8,18171.5
94975.5,18150.4
94867.1,18150.4
94760.7,18171.5
94660.6,18213
94570.4,18273.3
94493.7,18349.9
94433.5,18440.1
94392,18540.2
94370.9,18646.6
82513.5,18646.6
82494.3,18600.1
82423.3,18493.9
82332.9,18403.5
82226.6,18332.5
82108.5,18283.6
81983.2,18258.7
81855.4,18258.7
81730,18283.6
81612,18332.5
81505.7,18403.5
81465.7,18443.5
81465.7,17662.3
93386.6,17662.3
93386.6,17770.7
93407.8,17877.1
93449.3,17977.2
93509.5,18067.4
93586.2,18144.1
93676.3,18204.3
93776.5,18245.8
93882.8,18266.9
93991.2,18266.9
94097.6,18245.8
94197.7,18204.3
94287.9,18144.1
94364.5,18067.4
94424.8,17977.2
94466.2,17877.1
94487.4,17770.7
94487.4,17662.3
96339.4,17662.3
96339.4,17770.7
96360.5,17877.1
96402,17977.2
96462.2,18067.4
96538.9,18144.1
96629.1,18204.3
96729.2,18245.8
96835.6,18266.9
96944,18266.9
97050.3,18245.8
97150.5,18204.3
97240.6,18144.1
97317.3,18067.4
97377.5,17977.2
97419,17877.1
97440.2,17770.7
97440.2,17662.3
99292.1,17662.3
99292.1,17770.7
99313.3,17877.1
99354.8,17977.2
99415,18067.4
99491.7,18144.1
99581.8,18204.3
99682,18245.8
99788.3,18266.9
99896.7,18266.9
100003,18245.8
100103,18204.3
100193,18144.1
100270,18067.4
100330,17977.2
100372,17877.1
100393,17770.7
100393,17662.3
100372,17556
100330,17455.8
100270,17365.7
100193,17289
100103,17228.8
100003,17187.3
99896.7,17166.1
99788.3,17166.1
99682,17187.3
99581.8,17228.8
99491.7,17289
99415,17365.7
99354.8,17455.8
99313.3,17556
99292.1,17662.3
97440.2,17662.3
97419,17556
97377.5,17455.8
97317.3,17365.7
97240.6,17289
97150.5,17228.8
97050.3,17187.3
96944,17166.1
96835.6,17166.1
96729.2,17187.3
96629.1,17228.8
96538.9,17289
96462.2,17365.7
96402,17455.8
96360.5,17556
96339.4,17662.3
94487.4,17662.3
94466.2,17556
94424.8,17455.8
94364.5,17365.7
94287.9,17289
94197.7,17228.8
94097.6,17187.3
93991.2,17166.1
93882.8,17166.1
93776.5,17187.3
93676.3,17228.8
93586.2,17289
93509.5,17365.7
93449.3,17455.8
93407.8,17556
93386.6,17662.3
81465.7,17662.3
81465.7,16512
81545.5,16458.7
81635.9,16368.3
81706.9,16262.1
81755.8,16144
81780.7,16018.6
81780.7,15910.2
82215.4,15910.2
82215.4,15999.2
82232.7,16086.6
82266.8,16168.8
82316.3,16242.8
82379.2,16305.8
82453.2,16355.3
82535.5,16389.3
82622.8,16406.7
82711.8,16406.7
82799.2,16389.3
82881.4,16355.3
82955.4,16305.8
83018.4,16242.8
83067.9,16168.8
83101.9,16086.6
83119.3,15999.2
83119.3,15910.2
83215.4,15910.2
83215.4,15999.2
83232.7,16086.6
83266.8,16168.8
83316.3,16242.8
83379.2,16305.8
83453.2,16355.3
83535.5,16389.3
83622.8,16406.7
83711.8,16406.7
83799.2,16389.3
83881.4,16355.3
83955.4,16305.8
84018.4,16242.8
84067.9,16168.8
84101.9,16086.6
84119.3,15999.2
84119.3,15910.2
87490.9,15910.2
87490.9,15999.2
87508.3,16086.6
87542.4,16168.8
87591.8,16242.8
87654.8,16305.8
87728.8,16355.3
87811.1,16389.3
87898.4,16406.7
87987.4,16406.7
88074.7,16389.3
88157,16355.3
88231,16305.8
88294,16242.8
88343.4,16168.8
88377.5,16086.6
88394.9,15999.2
88394.9,15910.2
88490.9,15910.2
88490.9,15999.2
88508.3,16086.6
88542.4,16168.8
88591.8,16242.8
88654.8,16305.8
88728.8,16355.3
88811.1,16389.3
88898.4,16406.7
88987.4,16406.7
89074.7,16389.3
89157,16355.3
89231,16305.8
89294,16242.8
89343.4,16168.8
89377.5,16086.6
89394.9,15999.2
89394.9,15910.2
89377.5,15822.9
89343.4,15740.6
89294,15666.6
89231,15603.7
89157,15554.2
89074.7,15520.1
88987.4,15502.8
88898.4,15502.8
88811.1,15520.1
88728.8,15554.2
88654.8,15603.7
88591.8,15666.6
88542.4,15740.6
88508.3,15822.9
88490.9,15910.2
88394.9,15910.2
88377.5,15822.9
88343.4,15740.6
88294,15666.6
88231,15603.7
88157,15554.2
88074.7,15520.1
87987.4,15502.8
87898.4,15502.8
87811.1,15520.1
87728.8,15554.2
87654.8,15603.7
87591.8,15666.6
87542.4,15740.6
87508.3,15822.9
87490.9,15910.2
84119.3,15910.2
84101.9,15822.9
84067.9,15740.6
84018.4,15666.6
83955.4,15603.7
83881.4,15554.2
83799.2,15520.1
83711.8,15502.8
83622.8,15502.8
83535.5,15520.1
83453.2,15554.2
83379.2,15603.7
83316.3,15666.6
83266.8,15740.6
83232.7,15822.9
83215.4,15910.2
83119.3,15910.2
83101.9,15822.9
83067.9,15740.6
83018.4,15666.6
82955.4,15603.7
82881.4,15554.2
82799.2,15520.1
82711.8,15502.8
82622.8,15502.8
82535.5,15520.1
82453.2,15554.2
82379.2,15603.7
82316.3,15666.6
82266.8,15740.6
82232.7,15822.9
82215.4,15910.2
81780.7,15910.2
81780.7,15890.8
81755.8,15765.5
81706.9,15647.4
81635.9,15541.1
81545.5,15450.8
81439.2,15379.7
81321.1,15330.8
81195.8,15305.9
81068,15305.9
80942.6,15330.8
80824.6,15379.7
80718.3,15450.8
80627.9,15541.1
80556.9,15647.4
80508,15765.5
80483.1,15890.8
80483.1,16018.6
80508,16144
80556.9,16262.1
80627.9,16368.3
80718.3,16458.7
80798,16512
80798,21669.5
80762,21582.4
80691,21476.2
80600.6,21385.8
80494.3,21314.8
80376.3,21265.9
80250.9,21240.9
80123.1,21240.9
79997.8,21265.9
79879.7,21314.8
79773.4,21385.8
79683,21476.2
79629.8,21555.9
77240.8,21555.9
77224.4,21554.3
77159,21560.7
77144.3,21565.2
77096,21579.8
77038,21610.8
76987.2,21652.5
76976.7,21665.3
73602.8,25039.2
73508.8,25020.5
73381,25020.5
73255.6,25045.4
73137.6,25094.3
73031.3,25165.3
72957.3,25239.3
72997.4,25152.7
73025.2,25049
72981.2,24912.2
71959.4,24912.2
71859.4,24912.2
70837.7,24912.2
70793.7,25049
68104,25049
68060,24912.2
67038.2,24912.2
66938.2,24912.2
65916.4,24912.2
65872.4,25049
62952,25049
62952,24675.4
65872.4,24675.4
65916.4,24812.2
66938.2,24812.2
66938.2,23982.3
67038.2,23982.3
67038.2,24812.2
68060,24812.2
68104,24675.4
70793.7,24675.4
70837.7,24812.2
71859.4,24812.2
71859.4,23982.3
71959.4,23982.3
71959.4,24812.2
72981.2,24812.2
73025.2,24675.4
72997.4,24571.7
72924.8,24414.9
72822.9,24275.4
72695.8,24158.4
72548.3,24068.4
72386.1,24008.9
72215.4,23982.3
71959.4,23982.3
71859.4,23982.3
71603.5,23982.3
71432.8,24008.9
71270.6,24068.4
71123.1,24158.4
70996,24275.4
70894.1,24414.9
70821.5,24571.7
70793.7,24675.4
68104,24675.4
68076.2,24571.7
68003.5,24414.9
67901.6,24275.4
67774.5,24158.4
67627,24068.4
67464.8,24008.9
67294.1,23982.3
67038.2,23982.3
66938.2,23982.3
66682.3,23982.3
66511.6,24008.9
66349.4,24068.4
66201.9,24158.4
66074.7,24275.4
65972.9,24414.9
65900.2,24571.7
65872.4,24675.4
62952,24675.4
62952,22893.7
65823.2,22893.7
65840.6,23071.1
65892.4,23241.6
65976.4,23398.8
66089.5,23536.5
66227.2,23649.6
66384.4,23733.6
66554.9,23785.3
66687.8,23798.4
67288.5,23798.4
67421.5,23785.3
67592,23733.6
67749.2,23649.6
67886.9,23536.5
68000,23398.8
68084,23241.6
68088.3,23227.6
70809.4,23227.6
70813.6,23241.6
70897.7,23398.8
71010.7,23536.5
71148.5,23649.6
71305.6,23733.6
71476.2,23785.3
71609.1,23798.4
72209.8,23798.4
72342.7,23785.3
72513.3,23733.6
72670.4,23649.6
72808.2,23536.5
72921.2,23398.8
73005.3,23241.6
73057,23071.1
73074.5,22893.7
73057,22716.3
73005.3,22545.8
72921.2,22388.6
72808.2,22250.9
72670.4,22137.8
72513.3,22053.8
72342.7,22002.1
72209.8,21989
71609.1,21989
71476.2,22002.1
71305.6,22053.8
71148.5,22137.8
71010.7,22250.9
70897.7,22388.6
70813.6,22545.8
70809.4,22559.8
68088.3,22559.8
68084,22545.8
68000,22388.6
67886.9,22250.9
67749.2,22137.8
67592,22053.8
67421.5,22002.1
67288.5,21989
66687.8,21989
66554.9,22002.1
66384.4,22053.8
66227.2,22137.8
66089.5,22250.9
65976.4,22388.6
65892.4,22545.8
65840.6,22716.3
65823.2,22893.7
62952,22893.7
62952,18646.6
66929.9,18646.6
66929.9,18755
66951.1,18861.3
66992.6,18961.5
67052.8,19051.6
67129.5,19128.3
67219.6,19188.5
67319.8,19230
67426.1,19251.2
67534.5,19251.2
67640.9,19230
67741,19188.5
67831.2,19128.3
67907.8,19051.6
67968.1,18961.5
68009.6,18861.3
68030.7,18755
68030.7,18646.6
70866.9,18646.6
70866.9,18755
70888.1,18861.3
70929.6,18961.5
70989.8,19051.6
71066.5,19128.3
71156.6,19188.5
71256.8,19230
71363.1,19251.2
71471.5,19251.2
71577.9,19230
71678,19188.5
71768.2,19128.3
71844.8,19051.6
71905.1,18961.5
71946.6,18861.3
71967.7,18755
71967.7,18646.6
71946.6,18540.2
71905.1,18440.1
71844.8,18349.9
71768.2,18273.3
71678,18213
71577.9,18171.5
71471.5,18150.4
71363.1,18150.4
71256.8,18171.5
71156.6,18213
71066.5,18273.3
70989.8,18349.9
70929.6,18440.1
70888.1,18540.2
70866.9,18646.6
68030.7,18646.6
68009.6,18540.2
67968.1,18440.1
67907.8,18349.9
67831.2,18273.3
67741,18213
67640.9,18171.5
67534.5,18150.4
67426.1,18150.4
67319.8,18171.5
67219.6,18213
67129.5,18273.3
67052.8,18349.9
66992.6,18440.1
66951.1,18540.2
66929.9,18646.6
62952,18646.6
62952,17662.3
65945.7,17662.3
65945.7,17770.7
65966.8,17877.1
66008.3,17977.2
66068.5,18067.4
66145.2,18144.1
66235.4,18204.3
66335.5,18245.8
66441.9,18266.9
66550.3,18266.9
66656.6,18245.8
66756.8,18204.3
66846.9,18144.1
66923.6,18067.4
66983.8,17977.2
67025.3,17877.1
67046.5,17770.7
67046.5,17662.3
68898.4,17662.3
68898.4,17770.7
68919.6,17877.1
68961.1,17977.2
69021.3,18067.4
69098,18144.1
69188.1,18204.3
69288.3,18245.8
69394.6,18266.9
69503,18266.9
69609.4,18245.8
69709.5,18204.3
69799.7,18144.1
69876.3,18067.4
69936.6,17977.2
69978.1,17877.1
69999.2,17770.7
69999.2,17662.3
71851.2,17662.3
71851.2,17770.7
71872.3,17877.1
71913.8,17977.2
71974.1,18067.4
72050.7,18144.1
72140.9,18204.3
72241,18245.8
72347.4,18266.9
72455.8,18266.9
72562.1,18245.8
72662.3,18204.3
72752.4,18144.1
72829.1,18067.4
72889.3,17977.2
72930.8,17877.1
72952,17770.7
72952,17662.3
72930.8,17556
72889.3,17455.8
72829.1,17365.7
72752.4,17289
72662.3,17228.8
72562.1,17187.3
72455.8,17166.1
72347.4,17166.1
72241,17187.3
72140.9,17228.8
72050.7,17289
71974.1,17365.7
71913.8,17455.8
71872.3,17556
71851.2,17662.3
69999.2,17662.3
69978.1,17556
69936.6,17455.8
69876.3,17365.7
69799.7,17289
69709.5,17228.8
69609.4,17187.3
69503,17166.1
69394.6,17166.1
69288.3,17187.3
69188.1,17228.8
69098,17289
69021.3,17365.7
68961.1,17455.8
68919.6,17556
68898.4,17662.3
67046.5,17662.3
67025.3,17556
66983.8,17455.8
66923.6,17365.7
66846.9,17289
66756.8,17228.8
66656.6,17187.3
66550.3,17166.1
66441.9,17166.1
66335.5,17187.3
66235.4,17228.8
66145.2,17289
66068.5,17365.7
66008.3,17455.8
65966.8,17556
65945.7,17662.3
62952,17662.3
62952,16042.5
65005.2,16042.5
65019.7,16043.9
65077.4,16038.3
65132.9,16021.4
65184.1,15994.1
65228.9,15957.3
65265.7,15912.4
65266.9,15910.2
76939.8,15910.2
76939.8,15999.2
76957.1,16086.6
76991.2,16168.8
77040.7,16242.8
77103.6,16305.8
77177.6,16355.3
77259.9,16389.3
77347.2,16406.7
77436.2,16406.7
77523.6,16389.3
77605.8,16355.3
77679.8,16305.8
77742.8,16242.8
77792.3,16168.8
77826.3,16086.6
77843.7,15999.2
77843.7,15910.2
77939.8,15910.2
77939.8,15999.2
77957.1,16086.6
77991.2,16168.8
78040.7,16242.8
78103.6,16305.8
78177.6,16355.3
78259.9,16389.3
78347.2,16406.7
78436.2,16406.7
78523.6,16389.3
78605.8,16355.3
78679.8,16305.8
78742.8,16242.8
78792.3,16168.8
78826.3,16086.6
78843.7,15999.2
78843.7,15910.2
78826.3,15822.9
78792.3,15740.6
78742.8,15666.6
78679.8,15603.7
78605.8,15554.2
78523.6,15520.1
78436.2,15502.8
78347.2,15502.8
78259.9,15520.1
78177.6,15554.2
78103.6,15603.7
78040.7,15666.6
77991.2,15740.6
77957.1,15822.9
77939.8,15910.2
77843.7,15910.2
77826.3,15822.9
77792.3,15740.6
77742.8,15666.6
77679.8,15603.7
77605.8,15554.2
77523.6,15520.1
77436.2,15502.8
77347.2,15502.8
77259.9,15520.1
77177.6,15554.2
77103.6,15603.7
77040.7,15666.6
76991.2,15740.6
76957.1,15822.9
76939.8,15910.2
65266.9,15910.2
65293.1,15861.3
65309.9,15805.8
65314.2,15762.5
65314.2,15762.5
65315.6,15748
65314.2,15733.6
65314.2,13483.5
67314.4,13483.5
Z" /> 
</g>
</g>
</g>
<g style="fill:#000000; fill-opacity:1.0; 
stroke:#000000; stroke-width:100; stroke-opacity:1; 
stroke-linecap:round; stroke-linejoin:round;">
</g>
<g style="fill:#000000; fill-opacity:1.0; 
stroke:#000000; stroke-width:0; stroke-opacity:1; 
stroke-linecap:round; stroke-linejoin:round;">
<circle cx="85807.1" cy="15954.7" r="68.8976" /> 
</g>
<g style="fill:#000000; fill-opacity:1.0; 
stroke:#000000; stroke-width:39.3701; stroke-opacity:1; 
stroke-linecap:round; stroke-linejoin:round;">
</g>
<g style="fill:#000000; fill-opacity:1.0; 
stroke:#000000; stroke-width:0; stroke-opacity:1; 
stroke-linecap:round; stroke-linejoin:round;">
<circle cx="88946.9" cy="19399.6" r="68.8976" /> 
</g>
<g style="fill:#000000; fill-opacity:1.0; 
stroke:#000000; stroke-width:39.3701; stroke-opacity:1; 
stroke-linecap:round; stroke-linejoin:round;">
</g>
<g style="fill:#000000; fill-opacity:1.0; 
stroke:#000000; stroke-width:0; stroke-opacity:1; 
stroke-linecap:round; stroke-linejoin:round;">
<circle cx="77893.7" cy="23799.2" r="68.8976" /> 
</g>
<g style="fill:#000000; fill-opacity:1.0; 
stroke:#000000; stroke-width:39.3701; stroke-opacity:1; 
stroke-linecap:round; stroke-linejoin:round;">
</g>
<g style="fill:#000000; fill-opacity:1.0; 
stroke:#000000; stroke-width:0; stroke-opacity:1; 
stroke-linecap:round; stroke-linejoin:round;">
<circle cx="83513.8" cy="24320.9" r="68.8976" /> 
</g>
<g style="fill:#000000; fill-opacity:1.0; 
stroke:#000000; stroke-width:39.3701; stroke-opacity:1; 
stroke-linecap:round; stroke-linejoin:round;">
</g>
<g style="fill:#000000; fill-opacity:1.0; 
stroke:#000000; stroke-width:0; stroke-opacity:1; 
stroke-linecap:round; stroke-linejoin:round;">
<circle cx="83503.9" cy="27047.2" r="68.8976" /> 
</g>
<g style="fill:#000000; fill-opacity:1.0; 
stroke:#000000; stroke-width:39.3701; stroke-opacity:1; 
stroke-linecap:round; stroke-linejoin:round;">
</g>
<g style="fill:#000000; fill-opacity:1.0; 
stroke:#000000; stroke-width:0; stroke-opacity:1; 
stroke-linecap:round; stroke-linejoin:round;">
<circle cx="73444.9" cy="25669.3" r="68.8976" /> 
</g>
<g style="fill:#000000; fill-opacity:1.0; 
stroke:#000000; stroke-width:39.3701; stroke-opacity:1; 
stroke-linecap:round; stroke-linejoin:round;">
</g>
<g style="fill:#000000; fill-opacity:1.0; 
stroke:#000000; stroke-width:0; stroke-opacity:1; 
stroke-linecap:round; stroke-linejoin:round;">
<circle cx="80187" cy="21889.8" r="68.8976" /> 
</g>
<g style="fill:#000000; fill-opacity:1.0; 
stroke:#000000; stroke-width:39.3701; stroke-opacity:1; 
stroke-linecap:round; stroke-linejoin:round;">
</g>
<g style="fill:#000000; fill-opacity:1.0; 
stroke:#000000; stroke-width:0; stroke-opacity:1; 
stroke-linecap:round; stroke-linejoin:round;">
<circle cx="81131.9" cy="24320.9" r="68.8976" /> 
</g>
<g style="fill:#000000; fill-opacity:1.0; 
stroke:#000000; stroke-width:39.3701; stroke-opacity:1; 
stroke-linecap:round; stroke-linejoin:round;">
</g>
<g style="fill:#000000; fill-opacity:1.0; 
stroke:#000000; stroke-width:0; stroke-opacity:1; 
stroke-linecap:round; stroke-linejoin:round;">
<circle cx="83503.9" cy="30000" r="68.8976" /> 
</g>
<g style="fill:#000000; fill-opacity:1.0; 
stroke:#000000; stroke-width:39.3701; stroke-opacity:1; 
stroke-linecap:round; stroke-linejoin:round;">
</g>
<g style="fill:#000000; fill-opacity:1.0; 
stroke:#000000; stroke-width:0; stroke-opacity:1; 
stroke-linecap:round; stroke-linejoin:round;">
<circle cx="81131.9" cy="15954.7" r="68.8976" /> 
</g>
<g style="fill:#000000; fill-opacity:1.0; 
stroke:#000000; stroke-width:39.3701; stroke-opacity:1; 
stroke-linecap:round; stroke-linejoin:round;">
</g>
<g style="fill:#000000; fill-opacity:1.0; 
stroke:#000000; stroke-width:0; stroke-opacity:1; 
stroke-linecap:round; stroke-linejoin:round;">
<circle cx="82419.3" cy="20088.6" r="68.8976" /> 
</g>
<g style="fill:#000000; fill-opacity:1.0; 
stroke:#000000; stroke-width:39.3701; stroke-opacity:1; 
stroke-linecap:round; stroke-linejoin:round;">
</g>
<g style="fill:#000000; fill-opacity:1.0; 
stroke:#000000; stroke-width:0; stroke-opacity:1; 
stroke-linecap:round; stroke-linejoin:round;">
<circle cx="83503.9" cy="28031.5" r="68.8976" /> 
</g>
<g style="fill:#000000; fill-opacity:1.0; 
stroke:#000000; stroke-width:39.3701; stroke-opacity:1; 
stroke-linecap:round; stroke-linejoin:round;">
</g>
<g style="fill:#000000; fill-opacity:1.0; 
stroke:#000000; stroke-width:0; stroke-opacity:1; 
stroke-linecap:round; stroke-linejoin:round;">
<circle cx="81919.3" cy="18907.5" r="68.8976" /> 
</g>
<g style="fill:#000000; fill-opacity:1.0; 
stroke:#000000; stroke-width:39.3701; stroke-opacity:1; 
stroke-linecap:round; stroke-linejoin:round;">
</g>
<g style="fill:#000000; fill-opacity:1.0; 
stroke:#000000; stroke-width:0; stroke-opacity:1; 
stroke-linecap:round; stroke-linejoin:round;">
<circle cx="83503.9" cy="29015.7" r="68.8976" /> 
</g>
<g style="fill:#000000; fill-opacity:1.0; 
stroke:#000000; stroke-width:39.3701; stroke-opacity:1; 
stroke-linecap:round; stroke-linejoin:round;">
</g>
<g style="fill:#000000; fill-opacity:1.0; 
stroke:#000000; stroke-width:0; stroke-opacity:1; 
stroke-linecap:round; stroke-linejoin:round;">
<circle cx="69448.8" cy="33267.7" r="68.8976" /> 
</g>
<g style="fill:#000000; fill-opacity:1.0; 
stroke:#000000; stroke-width:39.3701; stroke-opacity:1; 
stroke-linecap:round; stroke-linejoin:round;">
</g>
<g style="fill:#000000; fill-opacity:1.0; 
stroke:#000000; stroke-width:0; stroke-opacity:1; 
stroke-linecap:round; stroke-linejoin:round;">
<circle cx="96889.8" cy="33267.7" r="68.8976" /> 
</g>
<g style="fill:#000000; fill-opacity:1.0; 
stroke:#000000; stroke-width:39.3701; stroke-opacity:1; 
stroke-linecap:round; stroke-linejoin:round;">
</g>
<g style="fill:#000000; fill-opacity:1.0; 
stroke:#000000; stroke-width:0; stroke-opacity:1; 
stroke-linecap:round; stroke-linejoin:round;">
<circle cx="91082.7" cy="14448.8" r="68.8976" /> 
</g>
<g style="fill:#000000; fill-opacity:1.0; 
stroke:#000000; stroke-width:39.3701; stroke-opacity:1; 
stroke-linecap:round; stroke-linejoin:round;">
</g>
<g style="fill:#000000; fill-opacity:1.0; 
stroke:#000000; stroke-width:0; stroke-opacity:1; 
stroke-linecap:round; stroke-linejoin:round;">
<circle cx="75255.9" cy="14448.8" r="68.8976" /> 
</g>
<g style="fill:#000000; fill-opacity:1.0; 
stroke:#000000; stroke-width:39.3701; stroke-opacity:1; 
stroke-linecap:round; stroke-linejoin:round;">
</g>
<g style="fill:#000000; fill-opacity:1.0; 
stroke:#000000; stroke-width:0; stroke-opacity:1; 
stroke-linecap:round; stroke-linejoin:round;">
<circle cx="60000" cy="37755.9" r="68.8976" /> 
</g>
<g style="fill:#000000; fill-opacity:1.0; 
stroke:#000000; stroke-width:39.3701; stroke-opacity:1; 
stroke-linecap:round; stroke-linejoin:round;">
</g>
<g style="fill:#000000; fill-opacity:1.0; 
stroke:#000000; stroke-width:0; stroke-opacity:1; 
stroke-linecap:round; stroke-linejoin:round;">
<circle cx="106260" cy="37755.9" r="68.8976" /> 
</g>
<g style="fill:#000000; fill-opacity:1.0; 
stroke:#000000; stroke-width:39.3701; stroke-opacity:1; 
stroke-linecap:round; stroke-linejoin:round;">
</g>
<g style="fill:#000000; fill-opacity:1.0; 
stroke:#000000; stroke-width:0; stroke-opacity:1; 
stroke-linecap:round; stroke-linejoin:round;">
<circle cx="106260" cy="10196.9" r="68.8976" /> 
</g>
<g style="fill:#000000; fill-opacity:1.0; 
stroke:#000000; stroke-width:39.3701; stroke-opacity:1; 
stroke-linecap:round; stroke-linejoin:round;">
</g>
<g style="fill:#000000; fill-opacity:1.0; 
stroke:#000000; stroke-width:0; stroke-opacity:1; 
stroke-linecap:round; stroke-linejoin:round;">
<circle cx="60000" cy="10196.9" r="68.8976" /> 
</g>
<g style="fill:#000000; fill-opacity:1.0; 
stroke:#000000; stroke-width:39.3701; stroke-opacity:1; 
stroke-linecap:round; stroke-linejoin:round;">
</g>
<g style="fill:#000000; fill-opacity:1.0; 
stroke:#000000; stroke-width:0; stroke-opacity:1; 
stroke-linecap:round; stroke-linejoin:round;">
<circle cx="74645.7" cy="29897.6" r="68.8976" /> 
</g>
<g style="fill:#000000; fill-opacity:1.0; 
stroke:#000000; stroke-width:39.3701; stroke-opacity:1; 
stroke-linecap:round; stroke-linejoin:round;">
</g>
<g style="fill:#000000; fill-opacity:1.0; 
stroke:#000000; stroke-width:0; stroke-opacity:1; 
stroke-linecap:round; stroke-linejoin:round;">
<circle cx="81141.7" cy="29897.6" r="68.8976" /> 
</g>
<g style="fill:#000000; fill-opacity:1.0; 
stroke:#000000; stroke-width:39.3701; stroke-opacity:1; 
stroke-linecap:round; stroke-linejoin:round;">
</g>
<g style="fill:#000000; fill-opacity:1.0; 
stroke:#000000; stroke-width:0; stroke-opacity:1; 
stroke-linecap:round; stroke-linejoin:round;">
<circle cx="81141.7" cy="27397.6" r="68.8976" /> 
</g>
<g style="fill:#000000; fill-opacity:1.0; 
stroke:#000000; stroke-width:39.3701; stroke-opacity:1; 
stroke-linecap:round; stroke-linejoin:round;">
</g>
<g style="fill:#000000; fill-opacity:1.0; 
stroke:#000000; stroke-width:0; stroke-opacity:1; 
stroke-linecap:round; stroke-linejoin:round;">
<circle cx="81141.7" cy="32397.6" r="68.8976" /> 
</g>
<g style="fill:#000000; fill-opacity:1.0; 
stroke:#000000; stroke-width:39.3701; stroke-opacity:1; 
stroke-linecap:round; stroke-linejoin:round;">
</g>
<g style="fill:#000000; fill-opacity:1.0; 
stroke:#000000; stroke-width:0; stroke-opacity:1; 
stroke-linecap:round; stroke-linejoin:round;">
<circle cx="74645.7" cy="32397.6" r="68.8976" /> 
</g>
<g style="fill:#000000; fill-opacity:1.0; 
stroke:#000000; stroke-width:39.3701; stroke-opacity:1; 
stroke-linecap:round; stroke-linejoin:round;">
</g>
<g style="fill:#000000; fill-opacity:1.0; 
stroke:#000000; stroke-width:0; stroke-opacity:1; 
stroke-linecap:round; stroke-linejoin:round;">
<circle cx="74645.7" cy="27397.6" r="68.8976" /> 
</g>
<g style="fill:#000000; fill-opacity:1.0; 
stroke:#000000; stroke-width:39.3701; stroke-opacity:1; 
stroke-linecap:round; stroke-linejoin:round;">
</g>
<g style="fill:#000000; fill-opacity:1.0; 
stroke:#000000; stroke-width:0; stroke-opacity:1; 
stroke-linecap:round; stroke-linejoin:round;">
<circle cx="88942.9" cy="15954.7" r="68.8976" /> 
</g>
<g style="fill:#000000; fill-opacity:1.0; 
stroke:#000000; stroke-width:39.3701; stroke-opacity:1; 
stroke-linecap:round; stroke-linejoin:round;">
</g>
<g style="fill:#000000; fill-opacity:1.0; 
stroke:#000000; stroke-width:0; stroke-opacity:1; 
stroke-linecap:round; stroke-linejoin:round;">
<circle cx="87942.9" cy="15954.7" r="68.8976" /> 
</g>
<g style="fill:#000000; fill-opacity:1.0; 
stroke:#000000; stroke-width:39.3701; stroke-opacity:1; 
stroke-linecap:round; stroke-linejoin:round;">
</g>
<g style="fill:#000000; fill-opacity:1.0; 
stroke:#000000; stroke-width:0; stroke-opacity:1; 
stroke-linecap:round; stroke-linejoin:round;">
<circle cx="83667.3" cy="15954.7" r="68.8976" /> 
</g>
<g style="fill:#000000; fill-opacity:1.0; 
stroke:#000000; stroke-width:39.3701; stroke-opacity:1; 
stroke-linecap:round; stroke-linejoin:round;">
</g>
<g style="fill:#000000; fill-opacity:1.0; 
stroke:#000000; stroke-width:0; stroke-opacity:1; 
stroke-linecap:round; stroke-linejoin:round;">
<circle cx="82667.3" cy="15954.7" r="68.8976" /> 
</g>
<g style="fill:#000000; fill-opacity:1.0; 
stroke:#000000; stroke-width:39.3701; stroke-opacity:1; 
stroke-linecap:round; stroke-linejoin:round;">
</g>
<g style="fill:#000000; fill-opacity:1.0; 
stroke:#000000; stroke-width:0; stroke-opacity:1; 
stroke-linecap:round; stroke-linejoin:round;">
<circle cx="78391.7" cy="15954.7" r="68.8976" /> 
</g>
<g style="fill:#000000; fill-opacity:1.0; 
stroke:#000000; stroke-width:39.3701; stroke-opacity:1; 
stroke-linecap:round; stroke-linejoin:round;">
</g>
<g style="fill:#000000; fill-opacity:1.0; 
stroke:#000000; stroke-width:0; stroke-opacity:1; 
stroke-linecap:round; stroke-linejoin:round;">
<circle cx="77391.7" cy="15954.7" r="68.8976" /> 
</g>
<g style="fill:#000000; fill-opacity:1.0; 
stroke:#000000; stroke-width:39.3701; stroke-opacity:1; 
stroke-linecap:round; stroke-linejoin:round;">
</g>
<g style="fill:#000000; fill-opacity:1.0; 
stroke:#000000; stroke-width:0; stroke-opacity:1; 
stroke-linecap:round; stroke-linejoin:round;">
<circle cx="99350.4" cy="22874" r="68.8976" /> 
</g>
<g style="fill:#000000; fill-opacity:1.0; 
stroke:#000000; stroke-width:39.3701; stroke-opacity:1; 
stroke-linecap:round; stroke-linejoin:round;">
</g>
<g style="fill:#000000; fill-opacity:1.0; 
stroke:#000000; stroke-width:0; stroke-opacity:1; 
stroke-linecap:round; stroke-linejoin:round;">
<circle cx="99350.4" cy="24842.5" r="68.8976" /> 
</g>
<g style="fill:#000000; fill-opacity:1.0; 
stroke:#000000; stroke-width:39.3701; stroke-opacity:1; 
stroke-linecap:round; stroke-linejoin:round;">
</g>
<g style="fill:#000000; fill-opacity:1.0; 
stroke:#000000; stroke-width:0; stroke-opacity:1; 
stroke-linecap:round; stroke-linejoin:round;">
<circle cx="94429.1" cy="22874" r="68.8976" /> 
</g>
<g style="fill:#000000; fill-opacity:1.0; 
stroke:#000000; stroke-width:39.3701; stroke-opacity:1; 
stroke-linecap:round; stroke-linejoin:round;">
</g>
<g style="fill:#000000; fill-opacity:1.0; 
stroke:#000000; stroke-width:0; stroke-opacity:1; 
stroke-linecap:round; stroke-linejoin:round;">
<circle cx="94429.1" cy="24842.5" r="68.8976" /> 
</g>
<g style="fill:#000000; fill-opacity:1.0; 
stroke:#000000; stroke-width:39.3701; stroke-opacity:1; 
stroke-linecap:round; stroke-linejoin:round;">
</g>
<g style="fill:#000000; fill-opacity:1.0; 
stroke:#000000; stroke-width:0; stroke-opacity:1; 
stroke-linecap:round; stroke-linejoin:round;">
<circle cx="71909.4" cy="22893.7" r="68.8976" /> 
</g>
<g style="fill:#000000; fill-opacity:1.0; 
stroke:#000000; stroke-width:39.3701; stroke-opacity:1; 
stroke-linecap:round; stroke-linejoin:round;">
</g>
<g style="fill:#000000; fill-opacity:1.0; 
stroke:#000000; stroke-width:0; stroke-opacity:1; 
stroke-linecap:round; stroke-linejoin:round;">
<circle cx="71909.4" cy="24862.2" r="68.8976" /> 
</g>
<g style="fill:#000000; fill-opacity:1.0; 
stroke:#000000; stroke-width:39.3701; stroke-opacity:1; 
stroke-linecap:round; stroke-linejoin:round;">
</g>
<g style="fill:#000000; fill-opacity:1.0; 
stroke:#000000; stroke-width:0; stroke-opacity:1; 
stroke-linecap:round; stroke-linejoin:round;">
<circle cx="66988.2" cy="22893.7" r="68.8976" /> 
</g>
<g style="fill:#000000; fill-opacity:1.0; 
stroke:#000000; stroke-width:39.3701; stroke-opacity:1; 
stroke-linecap:round; stroke-linejoin:round;">
</g>
<g style="fill:#000000; fill-opacity:1.0; 
stroke:#000000; stroke-width:0; stroke-opacity:1; 
stroke-linecap:round; stroke-linejoin:round;">
<circle cx="66988.2" cy="24862.2" r="68.8976" /> 
</g>
<g style="fill:#000000; fill-opacity:1.0; 
stroke:#000000; stroke-width:39.3701; stroke-opacity:1; 
stroke-linecap:round; stroke-linejoin:round;">
</g>
<g style="fill:#000000; fill-opacity:1.0; 
stroke:#000000; stroke-width:0; stroke-opacity:1; 
stroke-linecap:round; stroke-linejoin:round;">
<circle cx="88946.9" cy="23799.2" r="68.8976" /> 
</g>
<g style="fill:#000000; fill-opacity:1.0; 
stroke:#000000; stroke-width:39.3701; stroke-opacity:1; 
stroke-linecap:round; stroke-linejoin:round;">
</g>
<g style="fill:#000000; fill-opacity:1.0; 
stroke:#000000; stroke-width:0; stroke-opacity:1; 
stroke-linecap:round; stroke-linejoin:round;">
<circle cx="91946.9" cy="20799.2" r="68.8976" /> 
</g>
<g style="fill:#000000; fill-opacity:1.0; 
stroke:#000000; stroke-width:39.3701; stroke-opacity:1; 
stroke-linecap:round; stroke-linejoin:round;">
</g>
<g style="fill:#000000; fill-opacity:1.0; 
stroke:#000000; stroke-width:0; stroke-opacity:1; 
stroke-linecap:round; stroke-linejoin:round;">
<circle cx="88946.9" cy="22799.2" r="68.8976" /> 
</g>
<g style="fill:#000000; fill-opacity:1.0; 
stroke:#000000; stroke-width:39.3701; stroke-opacity:1; 
stroke-linecap:round; stroke-linejoin:round;">
</g>
<g style="fill:#000000; fill-opacity:1.0; 
stroke:#000000; stroke-width:0; stroke-opacity:1; 
stroke-linecap:round; stroke-linejoin:round;">
<circle cx="91946.9" cy="21799.2" r="68.8976" /> 
</g>
<g style="fill:#000000; fill-opacity:1.0; 
stroke:#000000; stroke-width:39.3701; stroke-opacity:1; 
stroke-linecap:round; stroke-linejoin:round;">
</g>
<g style="fill:#000000; fill-opacity:1.0; 
stroke:#000000; stroke-width:0; stroke-opacity:1; 
stroke-linecap:round; stroke-linejoin:round;">
<circle cx="88946.9" cy="21799.2" r="68.8976" /> 
</g>
<g style="fill:#000000; fill-opacity:1.0; 
stroke:#000000; stroke-width:39.3701; stroke-opacity:1; 
stroke-linecap:round; stroke-linejoin:round;">
</g>
<g style="fill:#000000; fill-opacity:1.0; 
stroke:#000000; stroke-width:0; stroke-opacity:1; 
stroke-linecap:round; stroke-linejoin:round;">
<circle cx="91946.9" cy="22799.2" r="68.8976" /> 
</g>
<g style="fill:#000000; fill-opacity:1.0; 
stroke:#000000; stroke-width:39.3701; stroke-opacity:1; 
stroke-linecap:round; stroke-linejoin:round;">
</g>
<g style="fill:#000000; fill-opacity:1.0; 
stroke:#000000; stroke-width:0; stroke-opacity:1; 
stroke-linecap:round; stroke-linejoin:round;">
<circle cx="88946.9" cy="20799.2" r="68.8976" /> 
</g>
<g style="fill:#000000; fill-opacity:1.0; 
stroke:#000000; stroke-width:39.3701; stroke-opacity:1; 
stroke-linecap:round; stroke-linejoin:round;">
</g>
<g style="fill:#000000; fill-opacity:1.0; 
stroke:#000000; stroke-width:0; stroke-opacity:1; 
stroke-linecap:round; stroke-linejoin:round;">
<circle cx="91946.9" cy="23799.2" r="68.8976" /> 
</g>
<g style="fill:#000000; fill-opacity:1.0; 
stroke:#000000; stroke-width:39.3701; stroke-opacity:1; 
stroke-linecap:round; stroke-linejoin:round;">
</g>
<g style="fill:#000000; fill-opacity:1.0; 
stroke:#000000; stroke-width:0; stroke-opacity:1; 
stroke-linecap:round; stroke-linejoin:round;">
<circle cx="91397.6" cy="30000" r="68.8976" /> 
</g>
<g style="fill:#000000; fill-opacity:1.0; 
stroke:#000000; stroke-width:39.3701; stroke-opacity:1; 
stroke-linecap:round; stroke-linejoin:round;">
</g>
<g style="fill:#000000; fill-opacity:1.0; 
stroke:#000000; stroke-width:0; stroke-opacity:1; 
stroke-linecap:round; stroke-linejoin:round;">
<circle cx="88444.9" cy="30000" r="68.8976" /> 
</g>
<g style="fill:#000000; fill-opacity:1.0; 
stroke:#000000; stroke-width:39.3701; stroke-opacity:1; 
stroke-linecap:round; stroke-linejoin:round;">
</g>
<g style="fill:#000000; fill-opacity:1.0; 
stroke:#000000; stroke-width:0; stroke-opacity:1; 
stroke-linecap:round; stroke-linejoin:round;">
<circle cx="85492.1" cy="30000" r="68.8976" /> 
</g>
<g style="fill:#000000; fill-opacity:1.0; 
stroke:#000000; stroke-width:39.3701; stroke-opacity:1; 
stroke-linecap:round; stroke-linejoin:round;">
</g>
<g style="fill:#000000; fill-opacity:1.0; 
stroke:#000000; stroke-width:0; stroke-opacity:1; 
stroke-linecap:round; stroke-linejoin:round;">
<circle cx="90413.4" cy="29015.7" r="68.8976" /> 
</g>
<g style="fill:#000000; fill-opacity:1.0; 
stroke:#000000; stroke-width:39.3701; stroke-opacity:1; 
stroke-linecap:round; stroke-linejoin:round;">
</g>
<g style="fill:#000000; fill-opacity:1.0; 
stroke:#000000; stroke-width:0; stroke-opacity:1; 
stroke-linecap:round; stroke-linejoin:round;">
<circle cx="86476.4" cy="29015.7" r="68.8976" /> 
</g>
<g style="fill:#000000; fill-opacity:1.0; 
stroke:#000000; stroke-width:39.3701; stroke-opacity:1; 
stroke-linecap:round; stroke-linejoin:round;">
</g>
<g style="fill:#000000; fill-opacity:1.0; 
stroke:#000000; stroke-width:0; stroke-opacity:1; 
stroke-linecap:round; stroke-linejoin:round;">
<circle cx="90413.4" cy="33740.2" r="68.8976" /> 
</g>
<g style="fill:#000000; fill-opacity:1.0; 
stroke:#000000; stroke-width:39.3701; stroke-opacity:1; 
stroke-linecap:round; stroke-linejoin:round;">
</g>
<g style="fill:#000000; fill-opacity:1.0; 
stroke:#000000; stroke-width:0; stroke-opacity:1; 
stroke-linecap:round; stroke-linejoin:round;">
<circle cx="86476.4" cy="33740.2" r="68.8976" /> 
</g>
<g style="fill:#000000; fill-opacity:1.0; 
stroke:#000000; stroke-width:39.3701; stroke-opacity:1; 
stroke-linecap:round; stroke-linejoin:round;">
</g>
<g style="fill:#000000; fill-opacity:1.0; 
stroke:#000000; stroke-width:0; stroke-opacity:1; 
stroke-linecap:round; stroke-linejoin:round;">
<circle cx="88444.9" cy="28031.5" r="68.8976" /> 
</g>
<g style="fill:#000000; fill-opacity:1.0; 
stroke:#000000; stroke-width:39.3701; stroke-opacity:1; 
stroke-linecap:round; stroke-linejoin:round;">
</g>
<g style="fill:#000000; fill-opacity:1.0; 
stroke:#000000; stroke-width:0; stroke-opacity:1; 
stroke-linecap:round; stroke-linejoin:round;">
<circle cx="66496.1" cy="17716.5" r="68.8976" /> 
</g>
<g style="fill:#000000; fill-opacity:1.0; 
stroke:#000000; stroke-width:39.3701; stroke-opacity:1; 
stroke-linecap:round; stroke-linejoin:round;">
</g>
<g style="fill:#000000; fill-opacity:1.0; 
stroke:#000000; stroke-width:0; stroke-opacity:1; 
stroke-linecap:round; stroke-linejoin:round;">
<circle cx="69448.8" cy="17716.5" r="68.8976" /> 
</g>
<g style="fill:#000000; fill-opacity:1.0; 
stroke:#000000; stroke-width:39.3701; stroke-opacity:1; 
stroke-linecap:round; stroke-linejoin:round;">
</g>
<g style="fill:#000000; fill-opacity:1.0; 
stroke:#000000; stroke-width:0; stroke-opacity:1; 
stroke-linecap:round; stroke-linejoin:round;">
<circle cx="72401.6" cy="17716.5" r="68.8976" /> 
</g>
<g style="fill:#000000; fill-opacity:1.0; 
stroke:#000000; stroke-width:39.3701; stroke-opacity:1; 
stroke-linecap:round; stroke-linejoin:round;">
</g>
<g style="fill:#000000; fill-opacity:1.0; 
stroke:#000000; stroke-width:0; stroke-opacity:1; 
stroke-linecap:round; stroke-linejoin:round;">
<circle cx="67480.3" cy="18700.8" r="68.8976" /> 
</g>
<g style="fill:#000000; fill-opacity:1.0; 
stroke:#000000; stroke-width:39.3701; stroke-opacity:1; 
stroke-linecap:round; stroke-linejoin:round;">
</g>
<g style="fill:#000000; fill-opacity:1.0; 
stroke:#000000; stroke-width:0; stroke-opacity:1; 
stroke-linecap:round; stroke-linejoin:round;">
<circle cx="71417.3" cy="18700.8" r="68.8976" /> 
</g>
<g style="fill:#000000; fill-opacity:1.0; 
stroke:#000000; stroke-width:39.3701; stroke-opacity:1; 
stroke-linecap:round; stroke-linejoin:round;">
</g>
<g style="fill:#000000; fill-opacity:1.0; 
stroke:#000000; stroke-width:0; stroke-opacity:1; 
stroke-linecap:round; stroke-linejoin:round;">
<circle cx="67480.3" cy="13976.4" r="68.8976" /> 
</g>
<g style="fill:#000000; fill-opacity:1.0; 
stroke:#000000; stroke-width:39.3701; stroke-opacity:1; 
stroke-linecap:round; stroke-linejoin:round;">
</g>
<g style="fill:#000000; fill-opacity:1.0; 
stroke:#000000; stroke-width:0; stroke-opacity:1; 
stroke-linecap:round; stroke-linejoin:round;">
<circle cx="71417.3" cy="13976.4" r="68.8976" /> 
</g>
<g style="fill:#000000; fill-opacity:1.0; 
stroke:#000000; stroke-width:39.3701; stroke-opacity:1; 
stroke-linecap:round; stroke-linejoin:round;">
</g>
<g style="fill:#000000; fill-opacity:1.0; 
stroke:#000000; stroke-width:0; stroke-opacity:1; 
stroke-linecap:round; stroke-linejoin:round;">
<circle cx="98858.3" cy="13976.4" r="68.8976" /> 
</g>
<g style="fill:#000000; fill-opacity:1.0; 
stroke:#000000; stroke-width:39.3701; stroke-opacity:1; 
stroke-linecap:round; stroke-linejoin:round;">
</g>
<g style="fill:#000000; fill-opacity:1.0; 
stroke:#000000; stroke-width:0; stroke-opacity:1; 
stroke-linecap:round; stroke-linejoin:round;">
<circle cx="94921.3" cy="13976.4" r="68.8976" /> 
</g>
<g style="fill:#000000; fill-opacity:1.0; 
stroke:#000000; stroke-width:39.3701; stroke-opacity:1; 
stroke-linecap:round; stroke-linejoin:round;">
</g>
<g style="fill:#000000; fill-opacity:1.0; 
stroke:#000000; stroke-width:0; stroke-opacity:1; 
stroke-linecap:round; stroke-linejoin:round;">
<circle cx="98858.3" cy="18700.8" r="68.8976" /> 
</g>
<g style="fill:#000000; fill-opacity:1.0; 
stroke:#000000; stroke-width:39.3701; stroke-opacity:1; 
stroke-linecap:round; stroke-linejoin:round;">
</g>
<g style="fill:#000000; fill-opacity:1.0; 
stroke:#000000; stroke-width:0; stroke-opacity:1; 
stroke-linecap:round; stroke-linejoin:round;">
<circle cx="94921.3" cy="18700.8" r="68.8976" /> 
</g>
<g style="fill:#000000; fill-opacity:1.0; 
stroke:#000000; stroke-width:39.3701; stroke-opacity:1; 
stroke-linecap:round; stroke-linejoin:round;">
</g>
<g style="fill:#000000; fill-opacity:1.0; 
stroke:#000000; stroke-width:0; stroke-opacity:1; 
stroke-linecap:round; stroke-linejoin:round;">
<circle cx="99842.5" cy="17716.5" r="68.8976" /> 
</g>
<g style="fill:#000000; fill-opacity:1.0; 
stroke:#000000; stroke-width:39.3701; stroke-opacity:1; 
stroke-linecap:round; stroke-linejoin:round;">
</g>
<g style="fill:#000000; fill-opacity:1.0; 
stroke:#000000; stroke-width:0; stroke-opacity:1; 
stroke-linecap:round; stroke-linejoin:round;">
<circle cx="96889.8" cy="17716.5" r="68.8976" /> 
</g>
<g style="fill:#000000; fill-opacity:1.0; 
stroke:#000000; stroke-width:39.3701; stroke-opacity:1; 
stroke-linecap:round; stroke-linejoin:round;">
</g>
<g style="fill:#000000; fill-opacity:1.0; 
stroke:#000000; stroke-width:0; stroke-opacity:1; 
stroke-linecap:round; stroke-linejoin:round;">
<circle cx="93937" cy="17716.5" r="68.8976" /> 
</g>
<g style="fill:#000000; fill-opacity:1.0; 
stroke:#000000; stroke-width:39.3701; stroke-opacity:1; 
stroke-linecap:round; stroke-linejoin:round;">
</g>
<g style="fill:#000000; fill-opacity:1.0; 
stroke:#000000; stroke-width:393.701; stroke-opacity:1; 
stroke-linecap:round; stroke-linejoin:round;">
</g>
<g style="fill:#000000; fill-opacity:0.0; 
stroke:#000000; stroke-width:393.701; stroke-opacity:1; 
stroke-linecap:round; stroke-linejoin:round;">
<path d="M65925 32047
L66712 32047
" />
<path d="M65137 29803
L65137 30590
" />
<path d="M67500 29803
L67500 30590
" />
</g>
<g style="fill:#FFFFFF; fill-opacity:0.0; 
stroke:#FFFFFF; stroke-width:393.701; stroke-opacity:1; 
stroke-linecap:round; stroke-linejoin:round;">
</g> 
</svg>
