<?xml version="1.0" standalone="no"?>
 <!DOCTYPE svg PUBLIC "-//W3C//DTD SVG 1.1//EN" 
 "http://www.w3.org/Graphics/SVG/1.1/DTD/svg11.dtd"> 
<svg
  xmlns:svg="http://www.w3.org/2000/svg"
  xmlns="http://www.w3.org/2000/svg"
  xmlns:xlink="http://www.w3.org/1999/xlink"
  version="1.1"
  width="29.700220cm" height="21.000720cm" viewBox="0 0 116930 82680">
<title>SVG Picture created as schematic-F_SilkS.svg date 2021/05/19 12:18:02 </title>
  <desc>Picture generated by PCBNEW </desc>
<g style="fill:#000000; fill-opacity:1;stroke:#000000; stroke-opacity:1;
stroke-linecap:round; stroke-linejoin:round;"
 transform="translate(0 0) scale(1 1)">
</g>
<g style="fill:#000000; fill-opacity:0.0; 
stroke:#000000; stroke-width:-0.000393701; stroke-opacity:1; 
stroke-linecap:round; stroke-linejoin:round;">
</g>
<g style="fill:#000000; fill-opacity:1.0; 
stroke:#000000; stroke-width:39.3701; stroke-opacity:1; 
stroke-linecap:round; stroke-linejoin:round;">
<rect x="6023.46" y="5216.54" width="108009" height="70236.3" rx="0" />
</g>
<g style="fill:#FFFFFF; fill-opacity:1.0; 
stroke:#FFFFFF; stroke-width:39.3701; stroke-opacity:1; 
stroke-linecap:round; stroke-linejoin:round;">
</g>
<g style="fill:#FFFFFF; fill-opacity:0.0; 
stroke:#FFFFFF; stroke-width:39.3701; stroke-opacity:1; 
stroke-linecap:round; stroke-linejoin:round;">
</g>
<g style="fill:#FFFFFF; fill-opacity:0.0; 
stroke:#FFFFFF; stroke-width:196.85; stroke-opacity:1; 
stroke-linecap:round; stroke-linejoin:round;">
<text x="82539.4" y="11870.1"
textLength="5823.96" font-size="1574.8" lengthAdjust="spacingAndGlyphs"
text-anchor="middle" opacity="0">FRONT</text>
<path d="M80430 11195
L80036 11195
" />
<path d="M80036 11813
L80036 10632
L80598 10632
" />
<path d="M81723 11813
L81330 11251
" />
<path d="M81048 11813
L81048 10632
L81498 10632
L81611 10688
L81667 10745
L81723 10857
L81723 11026
L81667 11138
L81611 11195
L81498 11251
L81048 11251
" />
<path d="M82455 10632
L82679 10632
L82792 10688
L82904 10801
L82961 11026
L82961 11420
L82904 11645
L82792 11757
L82679 11813
L82455 11813
L82342 11757
L82230 11645
L82173 11420
L82173 11026
L82230 10801
L82342 10688
L82455 10632
" />
<path d="M83467 11813
L83467 10632
L84142 11813
L84142 10632
" />
<path d="M84535 10632
L85210 10632
" />
<path d="M84873 11813
L84873 10632
" />
</g>
<g style="fill:#FFFFFF; fill-opacity:0.0; 
stroke:#FFFFFF; stroke-width:59.0551; stroke-opacity:1; 
stroke-linecap:round; stroke-linejoin:round;">
<path d="M60000 37755
L60000 40708
" />
<path d="M60000 37755
L62952 37755
" />
<path d="M60000 37755
L57047 37755
" />
<path d="M60000 37755
L60000 34803
" />
<path d="M106259 37755
L106259 34803
" />
<path d="M106259 37755
L106259 40708
" />
<path d="M106259 37755
L109212 37755
" />
<path d="M106259 37755
L103307 37755
" />
<path d="M58031 10196
L57047 10196
" />
<path d="M60000 12165
L60000 13149
" />
<path d="M61968 10196
L62952 10196
" />
<path d="M60000 8228
L60000 7244
" />
<path d="M106259 10196
L106259 13149
" />
<path d="M106259 10196
L109212 10196
" />
<path d="M103307 10196
L106259 10196
" />
<path d="M106259 10196
L103307 10196
" />
<path d="M106259 10196
L106259 7244
" />
<path d="M60000 10196
L58031 10196
" />
<path d="M60000 12165
L60000 10196
" />
<path d="M61968 10196
L60000 10196
" />
<path d="M60000 10196
L61968 10196
" />
<path d="M60000 10196
L60000 8228
" />
</g>
<g style="fill:#FFFFFF; fill-opacity:0.0; 
stroke:#FFFFFF; stroke-width:157.48; stroke-opacity:1; 
stroke-linecap:round; stroke-linejoin:round;">
<path d="M98601 27493
L98447 27452
" />
<path d="M98447 27452
L98278 27406
" />
<path d="M98278 27406
L98177 27378
" />
<path d="M98177 27378
L98106 27358
" />
<path d="M98096.9 27352.7 A22.6382 22.6382 0.0 0 0 98106.6 27358.4" />
<path d="M98092.3 27339.1 A16.348 16.348 0.0 0 0 98096.9 27352.7" />
<path d="M98092 27339
L98143 26938
" />
<path d="M98143 26938
L98195 26537
" />
<path d="M98203 26531.1 A7.21417 7.21417 0.0 0 0 98195.8 26537.4" />
<path d="M98208 26532.8 A8.5185 8.5185 0.0 0 0 98203 26531.1" />
<path d="M98208 26532
L98303 26604
" />
<path d="M98303 26604
L98409 26684
" />
<path d="M98409 26684
L98533 26779
" />
<path d="M100674 26937
L100693 27086
" />
<path d="M100693 27086
L100710 27214
" />
<path d="M100710 27214
L100723 27327
" />
<path d="M96508 29183
L96360 29269
" />
<path d="M96360 29269
L96229 29344
" />
<path d="M96229 29344
L96118 29408
" />
<path d="M96118 29408
L96092 29424
" />
<path d="M96092 29424
L96054 29446
" />
<path d="M96054 29446
L96481 29692
" />
<path d="M96481 29692
L96644 29787
" />
<path d="M96644 29787
L96782 29867
" />
<path d="M96782 29867
L96905 29940
" />
<path d="M96907.7 29943.6 A3.67283 3.67283 0.0 0 0 96905.9 29940.5" />
<path d="M96906.5 29947.4 A6.25039 6.25039 0.0 0 0 96907.7 29943.6" />
<path d="M96906 29947
L96820 30060
" />
<path d="M96820 30060
L96724 30187
" />
<path d="M100687 26354
L100573 26439
" />
<path d="M100573 26439
L100447 26534
" />
<path d="M100447 26534
L100297 26648
" />
<path d="M97155 28045
L97010 28064
" />
<path d="M97010 28064
L96838 28086
" />
<path d="M96838 28086
L96664 28109
" />
<path d="M96664 28109
L96511 28129
" />
<path d="M96511 28129
L96380 28148
" />
<path d="M96380.7 28148.1 A254.632 254.632 0.0 0 0 96352.3 28153.8" />
<path d="M96352.3 28153.8 A16.5492 16.5492 0.0 0 0 96340.2 28173.1" />
<path d="M96340.2 28173.1 A110.556 110.556 0.0 0 0 96355.9 28211.6" />
<path d="M96355 28211
L96413 28293
" />
<path d="M96413 28293
L96612 28554
" />
<path d="M96612 28554
L96726 28704
" />
<path d="M96726 28704
L96819 28832
" />
<path d="M102203 28117
L102024 28094
" />
<path d="M102024 28094
L101844 28070
" />
<path d="M101844 28070
L101690 28050
" />
<path d="M101690 28050
L101555 28032
" />
<path d="M101543 28029.8 A120.022 120.022 0.0 0 0 101555 28032.1" />
<path d="M101538 28021.1 A7.26181 7.26181 0.0 0 0 101543 28029.8" />
<path d="M101537 28021
L101563 27905
" />
<path d="M102740 29447.7 A9.86654 9.86654 0.0 0 0 102739 29431.6" />
<path d="M102739 29431
L102721 29420
" />
<path d="M102721 29420
L102604 29352
" />
<path d="M102604 29352
L102468 29274
" />
<path d="M102468 29274
L102312 29184
" />
<path d="M102499 30723
L102415 30610
" />
<path d="M102415 30610
L102320 30484
" />
<path d="M102320 30484
L102206 30336
" />
<path d="M102206 30336
L102092 30187
" />
<path d="M101997 28824
L102092 28698
" />
<path d="M102092 28698
L102206 28550
" />
<path d="M102206 28550
L102319 28402
" />
<path d="M102319 28402
L102413 28277
" />
<path d="M98244 26439
L98130 26354
" />
<path d="M98130.5 26354.7 A3.20079 3.20079 0.0 0 0 98126.3 26355" />
<path d="M98126.3 26355 A8.25236 8.25236 0.0 0 0 98124 26359.7" />
<path d="M98124 26359
L98104 26499
" />
<path d="M98104 26499
L98083 26655
" />
<path d="M101698 31509
L101651 31330
" />
<path d="M101651 31330
L101604 31151
" />
<path d="M101604 31151
L101564 31000
" />
<path d="M101564 31000
L101529 30864
" />
<path d="M101531 30860.7 A3.99764 3.99764 0.0 0 0 101530 30864.4" />
<path d="M101534 30858.9 A5.5815 5.5815 0.0 0 0 101531 30860.7" />
<path d="M101534 30858
L101674 30839
" />
<path d="M101674 30839
L101830 30818
" />
<path d="M101830 30818
L102014 30794
" />
<path d="M102014 30794
L102199 30769
" />
<path d="M102199 30769
L102355 30748
" />
<path d="M97289.4 28027.4 A2.24843 2.24843 0.0 0 0 97290.2 28025.1" />
<path d="M97286.9 28028.5 A5.08661 5.08661 0.0 0 0 97289.4 28027.4" />
<path d="M97286 28028
L97155 28045
" />
<path d="M97344 27156
L97192 27117
" />
<path d="M97192 27117
L97058 27084
" />
<path d="M97058.3 27084.5 A8.63346 8.63346 0.0 0 0 97050.1 27086.8" />
<path d="M97050.1 27086.8 A8.63346 8.63346 0.0 0 0 97047.9 27094.9" />
<path d="M97047 27094
L97080 27229
" />
<path d="M102413 28277
L102497 28165
" />
<path d="M102497 28165.5 A3.74252 3.74252 0.0 0 0 102497 28160.6" />
<path d="M102497 28160.6 A9.65827 9.65827 0.0 0 0 102491 28157.8" />
<path d="M102491 28157
L102355 28138
" />
<path d="M102355 28138
L102203 28117
" />
<path d="M99856 27061
L100027 27357
" />
<path d="M100027 27357
L100171 27609
" />
<path d="M100171 27609
L100301 27834
" />
<path d="M100301 27834
L100305 27841
" />
<path d="M100304 27843.9 A1.32835 1.32835 0.0 0 0 100306 27842" />
<path d="M102092 30187
L101996 30061
" />
<path d="M101996 30061
L101911 29948
" />
<path d="M101910 29944.3 A6.60827 6.60827 0.0 0 0 101911 29948.2" />
<path d="M101912 29940.9 A3.88465 3.88465 0.0 0 0 101910 29944.3" />
<path d="M101911 29940
L102035 29868
" />
<path d="M102035 29868
L102172 29787
" />
<path d="M102172 29787
L102336 29693
" />
<path d="M102336 29693
L102570 29557
" />
<path d="M102570 29557
L102680 29489
" />
<path d="M102680 29489
L102739 29447
" />
<path d="M102355 30748
L102495 30729
" />
<path d="M102495 30729.5 A7.38937 7.38937 0.0 0 0 102499 30727.4" />
<path d="M102499 30727.4 A2.86535 2.86535 0.0 0 0 102500 30723.6" />
<path d="M98013 27181
L97994 27321
" />
<path d="M97992.4 27324.9 A6.6185 6.6185 0.0 0 0 97994.3 27321.1" />
<path d="M97988.7 27325.9 A3.89291 3.89291 0.0 0 0 97992.4 27324.9" />
<path d="M97988 27325
L97853 27290
" />
<path d="M98906.4 26931.1 A14.1453 14.1453 0.0 0 0 98925.2 26927.2" />
<path d="M98906 26931
L98840 26888
" />
<path d="M98840 26888
L98733 26811
" />
<path d="M98733 26811
L98520 26649
" />
<path d="M98520 26649
L98371 26534
" />
<path d="M98371 26534
L98244 26439
" />
<path d="M101115 27251
L100964 27291
" />
<path d="M100964 27291
L100829 27326
" />
<path d="M100826 27325.7 A3.76811 3.76811 0.0 0 0 100829 27326.7" />
<path d="M100824 27322 A6.43031 6.43031 0.0 0 0 100826 27325.7" />
<path d="M100823 27322
L100804 27181
" />
<path d="M100804 27181
L100783 27025
" />
<path d="M100783 27025
L100758 26840
" />
<path d="M100758 26840
L100733 26655
" />
<path d="M100733 26655
L100712 26499
" />
<path d="M100712 26499
L100692 26358
" />
<path d="M100693 26358.9 A7.38583 7.38583 0.0 0 0 100691 26354.7" />
<path d="M100691 26354.7 A2.8563 2.8563 0.0 0 0 100687 26354.4" />
<path d="M97853 27290
L97702 27251
" />
<path d="M97702 27251
L97523 27203
" />
<path d="M97523 27203
L97344 27156
" />
<path d="M101563 27905
L101599 27760
" />
<path d="M101599 27760
L101651 27560
" />
<path d="M101651 27560
L101698 27381
" />
<path d="M99542 26515
L99686 26765
" />
<path d="M99686 26765
L99856 27061
" />
<path d="M98533 26779
L98657 26875
" />
<path d="M99256 32536
L99336 32673
" />
<path d="M99336 32673
L99408 32796
" />
<path d="M99408.2 32796.5 A1.24213 1.24213 0.0 0 0 99410.2 32796.7" />
<path d="M101698 27381
L101736 27229
" />
<path d="M101736 27229
L101769 27094
" />
<path d="M101769 27094.7 A8.55748 8.55748 0.0 0 0 101767 27086.6" />
<path d="M99173 26498
L99083 26656
" />
<path d="M98657 26875
L98762 26957
" />
<path d="M98762 26957
L98854 27031
" />
<path d="M98857.6 27037.7 A8.29252 8.29252 0.0 0 0 98854.4 27031.2" />
<path d="M98855.7 27045 A15.2929 15.2929 0.0 0 0 98857.6 27037.7" />
<path d="M98855 27045
L98819 27110
" />
<path d="M97080 27229
L97119 27381
" />
<path d="M97119 27381
L97166 27560
" />
<path d="M97166 27560
L97214 27738
" />
<path d="M97214 27738
L97254 27889
" />
<path d="M97254 27889
L97290 28025
" />
<path d="M99255.1 27629.4 A1792.23 1792.23 0.0 0 0 98949.6 27682.1" />
<path d="M98949 27682
L98843 27713
" />
<path d="M98843 27713
L98732 27752
" />
<path d="M98732 27752
L98632 27792
" />
<path d="M96318.1 30723.6 A3.20079 3.20079 0.0 0 0 96318.4 30727.7" />
<path d="M96318.4 30727.7 A8.25236 8.25236 0.0 0 0 96323.1 30730.1" />
<path d="M96323 30730
L96462 30749
" />
<path d="M99083 26656
L99004 26792
" />
<path d="M100733 32235
L100757 32051
" />
<path d="M100757 32051
L100781 31866
" />
<path d="M100781 31866
L100802 31710
" />
<path d="M100802 31710
L100822 31570
" />
<path d="M100824 31567.2 A5.5815 5.5815 0.0 0 0 100822 31570.7" />
<path d="M100828 31566.4 A3.99764 3.99764 0.0 0 0 100824 31567.2" />
<path d="M96724 30187
L96610 30335
" />
<path d="M96610 30335
L96497 30484
" />
<path d="M96497 30484
L96402 30610
" />
<path d="M96402 30610
L96318 30723
" />
<path d="M99004 26792
L98935 26910
" />
<path d="M97702 31640
L97853 31600
" />
<path d="M97853 31600
L97989 31565
" />
<path d="M97993.3 31566.8 A3.92874 3.92874 0.0 0 0 97989.6 31565.8" />
<path d="M97995.2 31570.5 A6.46024 6.46024 0.0 0 0 97993.3 31566.8" />
<path d="M97995 31570
L98014 31710
" />
<path d="M98014 31710
L98035 31866
" />
<path d="M98035 31866
L98059 32051
" />
<path d="M100297 26648
L100148 26762
" />
<path d="M100148 26762
L100020 26856
" />
<path d="M100020 26856
L99907 26936
" />
<path d="M99898.2 26935.5 A7.2189 7.2189 0.0 0 0 99907.7 26936.5" />
<path d="M99890.7 26925.4 A57.8531 57.8531 0.0 0 0 99898.2 26935.5" />
<path d="M99890 26925
L99820 26805
" />
<path d="M99820 26805
L99741 26669
" />
<path d="M99741 26669
L99650 26510
" />
<path d="M99650 26510
L99558 26351
" />
<path d="M99558 26351
L99481 26217
" />
<path d="M99481 26217
L99412 26096
" />
<path d="M99412.2 26096.6 A13.8343 13.8343 0.0 0 0 99410.3 26094" />
<path d="M99410.3 26094 A1.20079 1.20079 0.0 0 0 99408.4 26094.3" />
<path d="M98632.4 27792.5 A633.386 633.386 0.0 0 0 98563 27827.6" />
<path d="M98562 27827
L98544 27837
" />
<path d="M98544 27837
L98528 27845
" />
<path d="M98528 27845
L98515 27851
" />
<path d="M98512.4 27850.9 A3.0126 3.0126 0.0 0 0 98515.7 27851.5" />
<path d="M98511.9 27847.1 A3.10079 3.10079 0.0 0 0 98512.4 27850.9" />
<path d="M98511 27847
L98641 27618
" />
<path d="M98641 27618
L98785 27365
" />
<path d="M98785 27365
L98958 27065
" />
<path d="M98958 27065
L99130 26766
" />
<path d="M99130 26766
L99276 26514
" />
<path d="M99276 26514
L99408 26287
" />
<path d="M99410.4 26287.1 A1.15118 1.15118 0.0 0 0 99408.5 26287.3" />
<path d="M99412.2 26289.5 A13.6197 13.6197 0.0 0 0 99410.4 26287.1" />
<path d="M99412 26289
L99542 26515
" />
<path d="M96888 28962
L96779 29026
" />
<path d="M96779 29026
L96654 29099
" />
<path d="M96654 29099
L96508 29183
" />
<path d="M96819 28832
L96900 28945
" />
<path d="M96899.2 28955.1 A7.11614 7.11614 0.0 0 0 96900.3 28945.7" />
<path d="M96889 28962.5 A64.2469 64.2469 0.0 0 0 96899.2 28955.1" />
<path d="M100827 31566
L100963 31601
" />
<path d="M100963 31601
L101114 31640
" />
<path d="M101114 31640
L101293 31688
" />
<path d="M101293 31688
L101472 31735
" />
<path d="M98819 27110
L98778 27184
" />
<path d="M98778 27184
L98729 27270
" />
<path d="M98729 27270
L98601 27493
" />
<path d="M100304 27843
L100270 27830
" />
<path d="M100270 27830
L100227 27813
" />
<path d="M100227 27813
L100176 27790
" />
<path d="M100177 27791 A1996.58 1996.58 0.0 0 0 99874.8 27684.4" />
<path d="M99874.8 27684.4 A1844.18 1844.18 0.0 0 0 99565.5 27630.1" />
<path d="M99565.5 27630.1 A1800.97 1800.97 0.0 0 0 99255.1 27629.4" />
<path d="M96988 30819
L97144 30840
" />
<path d="M97144 30840
L97284 30859
" />
<path d="M97288.2 30861.5 A6.42756 6.42756 0.0 0 0 97284.5 30859.7" />
<path d="M97289.2 30865.2 A3.78504 3.78504 0.0 0 0 97288.2 30861.5" />
<path d="M97289 30865
L97254 31000
" />
<path d="M99898.2 31955.2 A57.8531 57.8531 0.0 0 0 99890.7 31965.3" />
<path d="M99907.7 31954.2 A7.21929 7.21929 0.0 0 0 99898.2 31955.2" />
<path d="M99907 31954
L100020 32034
" />
<path d="M100020 32034
L100148 32128
" />
<path d="M100148 32128
L100297 32241
" />
<path d="M100297 32241
L100447 32355
" />
<path d="M100447 32355
L100573 32451
" />
<path d="M100573 32451
L100687 32536
" />
<path d="M100687 32536.3 A2.86496 2.86496 0.0 0 0 100691 32536" />
<path d="M100691 32536 A7.38937 7.38937 0.0 0 0 100693 32531.8" />
<path d="M100692 32531
L100712 32391
" />
<path d="M100712 32391
L100733 32235
" />
<path d="M97119 31509
L97081 31661
" />
<path d="M97081 31661
L97048 31796
" />
<path d="M97048.3 31796.3 A8.45827 8.45827 0.0 0 0 97050.5 31804.3" />
<path d="M97050.5 31804.3 A8.45984 8.45984 0.0 0 0 97058.5 31806.5" />
<path d="M97058 31806
L97193 31773
" />
<path d="M97193 31773
L97345 31735
" />
<path d="M97345 31735
L97524 31687
" />
<path d="M97524 31687
L97702 31640
" />
<path d="M101434 28373
L101473 28231
" />
<path d="M101494 28169.6 A674.091 674.091 0.0 0 0 101474 28231.2" />
<path d="M101511 28138.9 A141.117 141.117 0.0 0 0 101494 28169.6" />
<path d="M101529 28129.2 A22.9358 22.9358 0.0 0 0 101511 28138.9" />
<path d="M101551 28130.4 A170.492 170.492 0.0 0 0 101529 28129.2" />
<path d="M101550 28130
L101663 28144
" />
<path d="M101663 28144
L101794 28160
" />
<path d="M101794 28160
L101944 28179
" />
<path d="M97791 28599
L97777 28624
" />
<path d="M97777 28624
L97759 28663
" />
<path d="M97759 28663
L97739 28707
" />
<path d="M97739 28707
L97721 28751
" />
<path d="M101061 29110.6 A1647.88 1647.88 0.0 0 0 100946 28757.8" />
<path d="M101061 29110
L101069 29152
" />
<path d="M101069 29152
L101076 29189
" />
<path d="M101076 29189
L101082 29221
" />
<path d="M101083 29231.4 A58.6453 58.6453 0.0 0 0 101082 29221.5" />
<path d="M101079 29234.9 A3.57913 3.57913 0.0 0 0 101083 29231.4" />
<path d="M101058 29229.1 A226.564 226.564 0.0 0 0 101079 29234.9" />
<path d="M101031 29218.5 A310.779 310.779 0.0 0 0 101058 29229.1" />
<path d="M101030 29218
L100998 29203
" />
<path d="M100998 29203.1 A1262.97 1262.97 0.0 0 0 100830 29132.9" />
<path d="M100829 29132
L100615 29070
" />
<path d="M100615 29070
L100362 29017
" />
<path d="M100362 29017
L100077 28974
" />
<path d="M100077 28974.4 A2869.75 2869.75 0.0 0 0 99809.6 28953.9" />
<path d="M99809 28953
L99409 28947
" />
<path d="M99409 28947
L99008 28953
" />
<path d="M99008.8 28953.8 A2897.55 2897.55 0.0 0 0 98740.4 28974.2" />
<path d="M98740 28974
L98469 29014
" />
<path d="M98469 29014
L98226 29064
" />
<path d="M98226 29064
L98017 29123
" />
<path d="M98017.8 29123.6 A1450.94 1450.94 0.0 0 0 97848.3 29190.5" />
<path d="M97848 29190
L97734 29243
" />
<path d="M97734 29243
L97742 29186
" />
<path d="M97821.5 28876.4 A1521.67 1521.67 0.0 0 0 97742.8 29186.1" />
<path d="M97964.8 28579.9 A1713.04 1713.04 0.0 0 0 97821.5 28876.4" />
<path d="M98164.5 28312.6 A1759.74 1759.74 0.0 0 0 97964.8 28579.9" />
<path d="M98410.2 28089.1 A1727 1727 0.0 0 0 98164.5 28312.6" />
<path d="M98678.9 27927 A1591.46 1591.46 0.0 0 0 98410.2 28089.1" />
<path d="M98980.4 27816.2 A1746.54 1746.54 0.0 0 0 98678.9 27927" />
<path d="M99295.4 27762.9 A1727.83 1727.83 0.0 0 0 98980.4 27816.2" />
<path d="M99604.1 27771.4 A1510.41 1510.41 0.0 0 0 99295.4 27762.9" />
<path d="M97402 28434
L97455 28637
" />
<path d="M97455 28637
L97239 28761
" />
<path d="M100050 27887.1 A1515.12 1515.12 0.0 0 0 99910.9 27836.2" />
<path d="M100050 27887
L100193 27954
" />
<path d="M100498 28160.4 A1599.14 1599.14 0.0 0 0 100194 27954.5" />
<path d="M100754 28434.2 A1729.88 1729.88 0.0 0 0 100498 28160.4" />
<path d="M100946 28757.8 A1741.3 1741.3 0.0 0 0 100754 28434.2" />
<path d="M98925.2 26927.2 A206.902 206.902 0.0 0 0 98935.9 26910.8" />
<path d="M98914.5 31948.5 A4.48268 4.48268 0.0 0 0 98910.7 31946.3" />
<path d="M98914 31948
L98987 32071
" />
<path d="M98987 32071
L99067 32209
" />
<path d="M99067 32209
L99162 32373
" />
<path d="M99162 32373
L99256 32536
" />
<path d="M99410.2 32796.7 A14.2197 14.2197 0.0 0 0 99412.2 32794.1" />
<path d="M99412 32794
L99481 32673
" />
<path d="M99481 32673
L99558 32539
" />
<path d="M99558 32539
L99650 32380
" />
<path d="M101472 31735
L101624 31773
" />
<path d="M101624 31773
L101759 31806
" />
<path d="M101759 31806.2 A8.43937 8.43937 0.0 0 0 101767 31803.9" />
<path d="M101767 31803.9 A8.43976 8.43976 0.0 0 0 101770 31796" />
<path d="M101769 31795
L101736 31661
" />
<path d="M101736 31661
L101698 31509
" />
<path d="M101767 27086.6 A8.52323 8.52323 0.0 0 0 101759 27084.4" />
<path d="M101759 27084
L101624 27117
" />
<path d="M101624 27117
L101472 27156
" />
<path d="M101472 27156
L101294 27203
" />
<path d="M101294 27203
L101115 27251
" />
<path d="M102312 29184
L102158 29094
" />
<path d="M102158 29094
L102028 29017
" />
<path d="M102028 29017
L101912 28948
" />
<path d="M101910 28943.8 A5.62205 5.62205 0.0 0 0 101913 28948.9" />
<path d="M101912 28937.8 A10.726 10.726 0.0 0 0 101910 28943.8" />
<path d="M101912 28937
L101997 28824
" />
<path d="M98083 26655
L98058 26840
" />
<path d="M98058 26840
L98034 27024
" />
<path d="M98034 27024
L98013 27181
" />
<path d="M96462 30749
L96619 30770
" />
<path d="M96619 30770
L96803 30795
" />
<path d="M96803 30795
L96988 30819
" />
<path d="M99408 26094
L99339 26211
" />
<path d="M99339 26211
L99263 26342
" />
<path d="M99263 26342
L99173 26498
" />
<path d="M99650 32380
L99741 32221
" />
<path d="M99741 32221
L99820 32084
" />
<path d="M99820 32084
L99890 31965
" />
<path d="M98059 32051
L98084 32235
" />
<path d="M98084 32235
L98105 32391
" />
<path d="M98105 32391
L98124 32531
" />
<path d="M98124.6 32531.8 A7.38937 7.38937 0.0 0 0 98126.7 32536" />
<path d="M98126.7 32536 A2.86535 2.86535 0.0 0 0 98130.5 32536.3" />
<path d="M98130 32536
L98243 32451
" />
<path d="M98243 32451
L98369 32356
" />
<path d="M98369 32356
L98517 32243
" />
<path d="M98517 32243
L98666 32129
" />
<path d="M98666 32129
L98792 32033
" />
<path d="M98792 32033
L98906 31947
" />
<path d="M98910.7 31946.3 A7.63622 7.63622 0.0 0 0 98906.1 31947.9" />
<path d="M97254 31000
L97214 31151
" />
<path d="M97214 31151
L97166 31330
" />
<path d="M97166 31330
L97119 31509
" />
<path d="M101367 28619
L101387 28549
" />
<path d="M101387 28549
L101409 28468
" />
<path d="M101409 28468
L101434 28373
" />
<path d="M102077 28562
L101978 28689
" />
<path d="M101978 28689
L101893 28795
" />
<path d="M101893 28795
L101818 28887
" />
<path d="M101810 28890.2 A8.31535 8.31535 0.0 0 0 101819 28887.5" />
<path d="M101768 28872 A190.196 190.196 0.0 0 0 101810 28890.2" />
<path d="M101767 28871
L101573 28757
" />
<path d="M101573 28757
L101366 28635
" />
<path d="M101365 28626.7 A6.1378 6.1378 0.0 0 0 101367 28635.2" />
<path d="M101365 28626.7 A27.1587 27.1587 0.0 0 0 101367 28620" />
<path d="M97380 28353
L97402 28434
" />
<path d="M101944 28179
L102331 28230
" />
<path d="M102331 28230
L102077 28562
" />
<path d="M96485 28230
L96899 28175
" />
<path d="M96899 28175
L97314 28121
" />
<path d="M97314 28121
L97331 28176
" />
<path d="M97331 28176
L97341 28209
" />
<path d="M97341 28209
L97359 28275
" />
<path d="M97359 28275
L97380 28353
" />
<path d="M97082 28850
L97019 28885
" />
<path d="M97008.7 28889.8 A53.3319 53.3319 0.0 0 0 97019.5 28885.3" />
<path d="M96998.9 28886.8 A9.29094 9.29094 0.0 0 0 97008.7 28889.8" />
<path d="M96998 28886
L96923 28795
" />
<path d="M96923 28795
L96838 28689
" />
<path d="M96838 28689
L96739 28562
" />
<path d="M96739 28562
L96485 28230
" />
<path d="M97325 28823
L97807 28547
" />
<path d="M97813.6 28548.4 A4.86063 4.86063 0.0 0 0 97807.8 28547.6" />
<path d="M97239 28761
L97155 28809
" />
<path d="M97155 28809
L97082 28850
" />
<path d="M97808 30343
L97580 30213
" />
<path d="M97580 30213
L97327 30069
" />
<path d="M97327 30069
L97027 29896
" />
<path d="M97027 29896
L96709 29712
" />
<path d="M96709 29712
L96466 29567
" />
<path d="M96466 29567
L96263 29444
" />
<path d="M96263.8 29436.3 A5.04331 5.04331 0.0 0 0 96263.7 29445" />
<path d="M96263 29436
L96817 29116
" />
<path d="M96817 29116
L97325 28823
" />
<path d="M97721 30139
L97739 30182
" />
<path d="M97739 30182
L97759 30227
" />
<path d="M97759 30227
L97777 30266
" />
<path d="M97777 30266
L97791 30291
" />
<path d="M97791 30291
L97801 30309
" />
<path d="M97801 30309
L97808 30325
" />
<path d="M97808 30325
L97814 30338
" />
<path d="M97813.3 30342.6 A3.67362 3.67362 0.0 0 0 97814.2 30338.7" />
<path d="M97808.8 30343.2 A3.76654 3.76654 0.0 0 0 97813.3 30342.6" />
<path d="M97814 28552
L97808 28565
" />
<path d="M97808 28565
L97801 28581
" />
<path d="M97801 28581
L97791 28599
" />
<path d="M101813 29007
L102101 29174
" />
<path d="M102101 29174
L102344 29314
" />
<path d="M102344 29314
L102564 29441
" />
<path d="M102567 29444 A14.8531 14.8531 0.0 0 0 102565 29442" />
<path d="M102567 29447.5 A2.23071 2.23071 0.0 0 0 102567 29444" />
<path d="M102566 29447
L101799 29892
" />
<path d="M101799 29892
L101045 30328
" />
<path d="M97721.7 28751.5 A1886.6 1886.6 0.0 0 0 97621.6 29092.7" />
<path d="M97621.6 29092.7 A1857.69 1857.69 0.0 0 0 97587.8 29445.3" />
<path d="M97587.8 29445.3 A1857.69 1857.69 0.0 0 0 97621.6 29798" />
<path d="M97621.6 29798 A1886.6 1886.6 0.0 0 0 97721.7 30139.2" />
<path d="M101008 30343
L101014 30323
" />
<path d="M101014 30323
L101026 30296
" />
<path d="M101026 30296
L101042 30263
" />
<path d="M101042 30263.9 A1345.81 1345.81 0.0 0 0 101117 30084.8" />
<path d="M97814.4 28552.1 A3.45866 3.45866 0.0 0 0 97813.6 28548.4" />
<path d="M101013 28550.4 A3.40984 3.40984 0.0 0 0 101009 28554.1" />
<path d="M101011 30345.9 A267.635 267.635 0.0 0 0 101046 30329" />
<path d="M101008 30343.5 A1.97913 1.97913 0.0 0 0 101011 30345.9" />
<path d="M97727.9 29391 A74.7748 74.7748 0.0 0 0 97722.2 29414.8" />
<path d="M97740.4 29372.7 A55.8752 55.8752 0.0 0 0 97727.9 29391" />
<path d="M97765.5 29351.1 A256.615 256.615 0.0 0 0 97740.4 29372.7" />
<path d="M97936.3 29256.6 A708.802 708.802 0.0 0 0 97765.5 29351.1" />
<path d="M98192.1 29173.9 A2448.99 2448.99 0.0 0 0 97936.3 29256.6" />
<path d="M101117 30084.8 A2466.08 2466.08 0.0 0 0 101179 29867.3" />
<path d="M101179 29867.3 A2478.71 2478.71 0.0 0 0 101221 29644.2" />
<path d="M101221 29644.2 A1403.01 1403.01 0.0 0 0 101234 29448.1" />
<path d="M101234 29448.1 A1560.81 1560.81 0.0 0 0 101221 29243.8" />
<path d="M101221 29243.8 A2240.49 2240.49 0.0 0 0 101180 29023.3" />
<path d="M101180 29023.3 A2231.69 2231.69 0.0 0 0 101118 28808.4" />
<path d="M101118 28808.4 A1522.19 1522.19 0.0 0 0 101039 28621.2" />
<path d="M101039 28621
L101012 28567
" />
<path d="M101009 28554.1 A45.6016 45.6016 0.0 0 0 101013 28568" />
<path d="M97725.2 29511.6 A68.5709 68.5709 0.0 0 0 97740.1 29544.1" />
<path d="M97720.7 29457.7 A326.627 326.627 0.0 0 0 97725.2 29511.6" />
<path d="M97720 29457
L97722 29414
" />
<path d="M98858.3 29453.6 A452.62 452.62 0.0 0 0 98894.2 29632.9" />
<path d="M98894.2 29632.9 A595.209 595.209 0.0 0 0 98999.5 29798.5" />
<path d="M98999 29798
L99063 29869
" />
<path d="M99063 29869
L98932 29860
" />
<path d="M98932 29860
L98614 29825
" />
<path d="M98614 29825
L98314 29769
" />
<path d="M98314 29769
L98051 29698
" />
<path d="M97851.6 29615.2 A1284.98 1284.98 0.0 0 0 98051.8 29698.3" />
<path d="M97851 29615
L97773 29571
" />
<path d="M97740.1 29544.1 A123.79 123.79 0.0 0 0 97773.1 29572" />
<path d="M101030 28557
L101054 28571
" />
<path d="M101054 28571
L101273 28696
" />
<path d="M101273 28696
L101523 28840
" />
<path d="M101523 28840
L101813 29007
" />
<path d="M99003.5 29114.6 A569.286 569.286 0.0 0 0 98896.3 29275.9" />
<path d="M98896.3 29275.9 A446.372 446.372 0.0 0 0 98858.3 29453.6" />
<path d="M98174 28102
L98122 28152
" />
<path d="M98122 28152
L98071 28205
" />
<path d="M98071 28205
L98029 28251
" />
<path d="M98029 28251
L97973 28312
" />
<path d="M97922.7 28356.9 A498.137 498.137 0.0 0 0 97973.5 28312.3" />
<path d="M97857.1 28401.9 A785.197 785.197 0.0 0 0 97922.7 28356.9" />
<path d="M97857 28401
L97744 28468
" />
<path d="M97744 28468
L97669 28512
" />
<path d="M97669 28512
L97605 28547
" />
<path d="M97605 28547
L97548 28578
" />
<path d="M97545 28578.3 A3.19488 3.19488 0.0 0 0 97548.8 28578.9" />
<path d="M97542.6 28574.2 A9.28071 9.28071 0.0 0 0 97545 28578.3" />
<path d="M97542 28574
L97489 28382
" />
<path d="M97489 28382
L97431 28169
" />
<path d="M97431 28169
L97363 27917
" />
<path d="M97363 27917
L97294 27664
" />
<path d="M101031 28557.8 A114.41 114.41 0.0 0 0 101013 28550.4" />
<path d="M98322.3 27958.5 A779.05 779.05 0.0 0 0 98366.9 27893.5" />
<path d="M98278.6 28008.3 A480.394 480.394 0.0 0 0 98322.3 27958.5" />
<path d="M98278 28008
L98219 28062
" />
<path d="M98219 28062
L98174 28102
" />
<path d="M101072 28468
L100960 28402
" />
<path d="M100895 28357.4 A782.455 782.455 0.0 0 0 100960 28402" />
<path d="M98542 27586
L98512 27642
" />
<path d="M98512 27642
L98476 27706
" />
<path d="M98476 27706
L98433 27782
" />
<path d="M98433 27782
L98366 27893
" />
<path d="M101270 28574.7 A6.12677 6.12677 0.0 0 0 101277 28573.2" />
<path d="M101269 28574
L101213 28546
" />
<path d="M101213 28546
L101148 28511
" />
<path d="M101148 28511
L101072 28468
" />
<path d="M101529 27647
L101461 27902
" />
<path d="M101461 27902
L101393 28156
" />
<path d="M101393 28156
L101334 28372
" />
<path d="M101334 28372
L101281 28564
" />
<path d="M101277 28573.2 A23.4031 23.4031 0.0 0 0 101282 28564.4" />
<path d="M101644 27223.4 A151.183 151.183 0.0 0 0 101640 27237.3" />
<path d="M101639 27237
L101587 27429
" />
<path d="M101587 27429
L101529 27647
" />
<path d="M101643 27208.5 A6.03228 6.03228 0.0 0 0 101639 27207.7" />
<path d="M101645 27211.7 A5.91496 5.91496 0.0 0 0 101643 27208.5" />
<path d="M101646 27216.9 A11.578 11.578 0.0 0 0 101645 27211.7" />
<path d="M101644 27223.4 A29.2417 29.2417 0.0 0 0 101646 27216.9" />
<path d="M99604 27771
L99765 27798
" />
<path d="M99910.9 27836.2 A1554.64 1554.64 0.0 0 0 99765.5 27798.7" />
<path d="M97294 27664
L97234 27445
" />
<path d="M97234 27445
L97182 27255
" />
<path d="M97182 27255
L97176 27232
" />
<path d="M97171.9 27216.6 A166.491 166.491 0.0 0 0 97176.1 27232.5" />
<path d="M97173.7 27210.3 A6.86614 6.86614 0.0 0 0 97171.9 27216.6" />
<path d="M97180 27208.5 A6.86575 6.86575 0.0 0 0 97173.7 27210.3" />
<path d="M97195.9 27212.7 A166.491 166.491 0.0 0 0 97180 27208.5" />
<path d="M97195 27212
L97218 27219
" />
<path d="M97218 27219
L97409 27271
" />
<path d="M97409 27271
L97627 27330
" />
<path d="M97627 27330
L97881 27399
" />
<path d="M100452 27893
L100385 27780
" />
<path d="M100385 27780
L100339 27699
" />
<path d="M100339 27699
L100307 27636
" />
<path d="M100307 27636
L100285 27587
" />
<path d="M100289 27578.6 A6.57126 6.57126 0.0 0 0 100285 27587.3" />
<path d="M100316 27569.2 A238.064 238.064 0.0 0 0 100289 27578.6" />
<path d="M100316 27569
L100964 27391
" />
<path d="M100964 27391
L101613 27212
" />
<path d="M101639 27207.7 A184.868 184.868 0.0 0 0 101614 27212.8" />
<path d="M100752 28210
L100702 28158
" />
<path d="M100702 28158
L100649 28107
" />
<path d="M100649 28107
L100603 28065
" />
<path d="M100603 28065
L100540 28008
" />
<path d="M100496 27958.4 A475.708 475.708 0.0 0 0 100541 28008.7" />
<path d="M100452 27893.6 A744.324 744.324 0.0 0 0 100496 27958.4" />
<path d="M100727 31553
L100674 31952
" />
<path d="M100674 31952
L100621 32353
" />
<path d="M100615 32359.6 A7.12087 7.12087 0.0 0 0 100622 32353.4" />
<path d="M100587 32349.8 A45.5846 45.5846 0.0 0 0 100615 32359.6" />
<path d="M100587 32349
L100280 32107
" />
<path d="M100280 32107
L99969 31861
" />
<path d="M99964.2 31845.5 A15.6874 15.6874 0.0 0 0 99969.7 31861.8" />
<path d="M99987.5 31790.2 A217.872 217.872 0.0 0 0 99964.2 31845.5" />
<path d="M99987 31790
L100098 31605
" />
<path d="M100098 31605
L100219 31408
" />
<path d="M100234 31403 A12.2307 12.2307 0.0 0 0 100220 31408.1" />
<path d="M100234 31402
L100245 31406
" />
<path d="M100245 31406
L100313 31425
" />
<path d="M100313 31425
L100392 31446
" />
<path d="M100392 31446
L100483 31471
" />
<path d="M100846 28313.9 A475.05 475.05 0.0 0 0 100895 28357.4" />
<path d="M100845 28313
L100792 28255
" />
<path d="M100792 28255
L100752 28210
" />
<path d="M98676 31529
L98724 31612
" />
<path d="M100483 31471
L100573 31496
" />
<path d="M100573 31496
L100649 31517
" />
<path d="M100649 31517
L100717 31536
" />
<path d="M100722 31539.9 A11.6461 11.6461 0.0 0 0 100717 31537" />
<path d="M100727 31553.4 A16.0827 16.0827 0.0 0 0 100722 31539.9" />
<path d="M98443 31439
L98523 31417
" />
<path d="M98523 31417
L98595 31397
" />
<path d="M98596 31397 A5.90236 5.90236 0.0 0 0 98597.6 31396.3" />
<path d="M98598.8 31396.6 A0.85315 0.85315 0.0 0 0 98597.6 31396.3" />
<path d="M98598 31396
L98635 31459
" />
<path d="M98635 31459
L98676 31529
" />
<path d="M98172 31515
L98253 31492
" />
<path d="M98253 31492
L98348 31465
" />
<path d="M98348 31465
L98443 31439
" />
<path d="M98638.3 30943.1 A2003.66 2003.66 0.0 0 0 98827.6 31028.1" />
<path d="M98347.2 30752.3 A1634.1 1634.1 0.0 0 0 98638.3 30943.1" />
<path d="M98097.4 30501.1 A1754.31 1754.31 0.0 0 0 98347.2 30752.3" />
<path d="M97904.3 30206.2 A1735.79 1735.79 0.0 0 0 98097.4 30501.1" />
<path d="M97781.2 29886.3 A1554.6 1554.6 0.0 0 0 97904.3 30206.2" />
<path d="M97781 29886
L97765 29822
" />
<path d="M97765 29822
L97751 29749
" />
<path d="M97751 29749
L97738 29677
" />
<path d="M97741.7 29672.7 A3.69528 3.69528 0.0 0 0 97738.1 29677.1" />
<path d="M97744 29673.3 A4.87953 4.87953 0.0 0 0 97741.7 29672.7" />
<path d="M97743 29673
L97761 29682
" />
<path d="M97761 29682
L97781 29693
" />
<path d="M97781 29693
L97805 29706
" />
<path d="M97267 30147
L97455 30255
" />
<path d="M97455 30255
L97443 30298
" />
<path d="M97443 30298
L97436 30325
" />
<path d="M97436 30325
L97419 30388
" />
<path d="M97419 30388
L97399 30464
" />
<path d="M97399 30464
L97377 30545
" />
<path d="M97377 30545
L97355 30624
" />
<path d="M97355 30624
L97336 30692
" />
<path d="M97336 30692
L97319 30751
" />
<path d="M97315.5 30757.7 A15.0185 15.0185 0.0 0 0 97319.3 30751.4" />
<path d="M97296.1 30764.3 A23.1102 23.1102 0.0 0 0 97315.5 30757.7" />
<path d="M97296 30764
L96900 30711
" />
<path d="M96900 30711
L96504 30657
" />
<path d="M96497.8 30647.7 A7.70276 7.70276 0.0 0 0 96504.1 30657.8" />
<path d="M96501.9 30639.8 A28.0307 28.0307 0.0 0 0 96497.8 30647.7" />
<path d="M96501 30639
L96572 30544
" />
<path d="M96572 30544
L96653 30438
" />
<path d="M96653 30438
L96748 30313
" />
<path d="M96748 30313
L96994 29989
" />
<path d="M96994 29989
L97037 30014
" />
<path d="M97037 30014
L97063 30029
" />
<path d="M97063 30029
L97122 30063
" />
<path d="M97122 30063
L97192 30104
" />
<path d="M97192 30104
L97267 30147
" />
<path d="M102076 30322
L102170 30446
" />
<path d="M102170 30446
L102250 30551
" />
<path d="M102250 30551
L102321 30646
" />
<path d="M102323 30651.3 A8.80472 8.80472 0.0 0 0 102321 30646.1" />
<path d="M102317 30658.5 A7.17047 7.17047 0.0 0 0 102323 30651.3" />
<path d="M102316 30658
L101916 30711
" />
<path d="M101916 30711
L101516 30763
" />
<path d="M101503 30759 A16.2 16.2 0.0 0 0 101517 30763.6" />
<path d="M101498 30749.8 A21.0043 21.0043 0.0 0 0 101503 30759" />
<path d="M101497 30749
L101430 30507
" />
<path d="M101430 30507
L101363 30262
" />
<path d="M101364 30256.2 A8.20079 8.20079 0.0 0 0 101363 30262.9" />
<path d="M101376 30245.1 A33.9634 33.9634 0.0 0 0 101364 30256.2" />
<path d="M101375 30245
L101595 30121
" />
<path d="M101595 30121
L101818 29995
" />
<path d="M101825 29996.4 A5.41732 5.41732 0.0 0 0 101818 29995.5" />
<path d="M101829 30000.8 A45.5929 45.5929 0.0 0 0 101825 29996.4" />
<path d="M101828 30000
L101900 30094
" />
<path d="M101900 30094
L101981 30199
" />
<path d="M101981 30199
L102076 30322
" />
<path d="M97764 30433
L97863 30492
" />
<path d="M97925 30535.7 A702.129 702.129 0.0 0 0 97863.8 30493" />
<path d="M97974.2 30579.6 A499.576 499.576 0.0 0 0 97925 30535.7" />
<path d="M97974 30579
L98029 30640
" />
<path d="M98029 30640
L98071 30686
" />
<path d="M98071 30686
L98122 30739
" />
<path d="M98122 30739
L98174 30789
" />
<path d="M98174 30789
L98219 30829
" />
<path d="M98219 30829
L98278 30883
" />
<path d="M98322.4 30932.5 A468.919 468.919 0.0 0 0 98278.8 30883.1" />
<path d="M98366.8 30997.1 A767.16 767.16 0.0 0 0 98322.4 30932.5" />
<path d="M98366 30997
L98433 31109
" />
<path d="M98433 31109
L98485 31200
" />
<path d="M98485 31200
L98516 31260
" />
<path d="M98516 31260
L98534 31302
" />
<path d="M98530.2 31314 A9.3815 9.3815 0.0 0 0 98534.4 31302.4" />
<path d="M98516 31319.8 A65.663 65.663 0.0 0 0 98530.2 31314" />
<path d="M98515 31319
L98325 31371
" />
<path d="M98325 31371
L98110 31430
" />
<path d="M98110 31430
L97858 31497
" />
<path d="M97858 31497
L97606 31565
" />
<path d="M97606 31565
L97391 31622
" />
<path d="M97391 31622
L97200 31673
" />
<path d="M97200 31673
L97187 31677
" />
<path d="M97181.6 31678.5 A16.6732 16.6732 0.0 0 0 97187.5 31677.7" />
<path d="M97177.5 31676.7 A6.12362 6.12362 0.0 0 0 97181.6 31678.5" />
<path d="M97175.7 31672.5 A6.16969 6.16969 0.0 0 0 97177.5 31676.7" />
<path d="M97176.6 31666.6 A16.9134 16.9134 0.0 0 0 97175.7 31672.5" />
<path d="M97176 31666
L97180 31653
" />
<path d="M97180 31653
L97227 31478
" />
<path d="M97227 31478
L97280 31281
" />
<path d="M97280 31281
L97342 31050
" />
<path d="M97342 31050
L97489 30500
" />
<path d="M97489 30500
L97524 30377
" />
<path d="M97545.8 30325.7 A309.531 309.531 0.0 0 0 97524.5 30377.6" />
<path d="M97566.7 30319.3 A15.3024 15.3024 0.0 0 0 97545.8 30325.7" />
<path d="M97566 30319
L97582 30328
" />
<path d="M97582 30328
L97634 30358
" />
<path d="M97634 30358
L97696 30393
" />
<path d="M97696 30393
L97764 30433
" />
<path d="M101463 31000
L101533 31260
" />
<path d="M101533 31260
L101591 31479
" />
<path d="M101591 31479
L101643 31677
" />
<path d="M101643 31679.6 A1.9937 1.9937 0.0 0 0 101644 31677.7" />
<path d="M101629 31683.2 A14.087 14.087 0.0 0 0 101643 31679.6" />
<path d="M101629 31683
L100957 31498
" />
<path d="M100957 31498
L100284 31312
" />
<path d="M100279 31303.7 A7.74882 7.74882 0.0 0 0 100285 31312.6" />
<path d="M100282 31295 A29.6709 29.6709 0.0 0 0 100279 31303.7" />
<path d="M100282 31294
L100313 31239
" />
<path d="M100313 31239
L100349 31174
" />
<path d="M100349 31174
L100391 31100
" />
<path d="M100391 31100
L100456 30992
" />
<path d="M100500 30929.1 A763.82 763.82 0.0 0 0 100456 30993" />
<path d="M100543 30880.2 A472.719 472.719 0.0 0 0 100500 30929.1" />
<path d="M100542 30880
L100600 30827
" />
<path d="M100600 30827
L100644 30788
" />
<path d="M100644 30788
L100695 30738
" />
<path d="M100695 30738
L100746 30686
" />
<path d="M100746 30686
L100788 30639
" />
<path d="M100788 30639
L100845 30577
" />
<path d="M100896 30533 A475.944 475.944 0.0 0 0 100845 30577.4" />
<path d="M100961 30488.8 A744.682 744.682 0.0 0 0 100896 30533" />
<path d="M100960 30488
L101073 30421
" />
<path d="M101073 30421
L101149 30379
" />
<path d="M101149 30379
L101213 30344
" />
<path d="M101213 30344
L101269 30315
" />
<path d="M101276 30316.1 A5.15748 5.15748 0.0 0 0 101270 30315.2" />
<path d="M101280 30322.4 A13.8157 13.8157 0.0 0 0 101276 30316.1" />
<path d="M101279 30322
L101333 30519
" />
<path d="M101333 30519
L101393 30739
" />
<path d="M101393 30739
L101463 31000
" />
<path d="M98839 31176
L98974 31213
" />
<path d="M98974 31213
L99126 31244
" />
<path d="M99126 31244
L99277 31264
" />
<path d="M99277 31264.5 A1318 1318 0.0 0 0 99408.7 31271.1" />
<path d="M99408.7 31271.1 A1434.65 1434.65 0.0 0 0 99606.7 31257.4" />
<path d="M99606.7 31257.4 A2461.02 2461.02 0.0 0 0 99830.3 31215.7" />
<path d="M99830.3 31215.7 A2443.52 2443.52 0.0 0 0 100048 31153.7" />
<path d="M100048 31153.7 A1356.41 1356.41 0.0 0 0 100228 31078.6" />
<path d="M100227 31078
L100315 31034
" />
<path d="M100315 31034
L100288 31080
" />
<path d="M100288 31080
L100268 31115
" />
<path d="M100268 31115
L100144 31330
" />
<path d="M100144 31330
L100001 31579
" />
<path d="M100001 31579
L99835 31866
" />
<path d="M99835 31866
L99409 32607
" />
<path d="M99409 32607
L99386 32569
" />
<path d="M99386 32569
L99340 32491
" />
<path d="M99340 32491
L98948 31811
" />
<path d="M98948 31811
L98550 31120
" />
<path d="M98550 31120
L98521 31067
" />
<path d="M98514.8 31050.8 A77.8429 77.8429 0.0 0 0 98521.3 31067.3" />
<path d="M98519 31046.2 A3.6878 3.6878 0.0 0 0 98514.8 31050.8" />
<path d="M98534.9 31051.4 A58.4421 58.4421 0.0 0 0 98519 31046.2" />
<path d="M98534 31051
L98590 31079
" />
<path d="M98590 31079
L98634 31099
" />
<path d="M98634 31099
L98699 31125
" />
<path d="M98699 31125
L98770 31152
" />
<path d="M98770 31152
L98839 31176
" />
<path d="M98724 31612
L98772 31696
" />
<path d="M98772 31696
L98813 31770
" />
<path d="M98813 31770
L98848 31833
" />
<path d="M98853.1 31845.5 A53.2736 53.2736 0.0 0 0 98848.4 31833.9" />
<path d="M98847.8 31861.8 A15.5736 15.5736 0.0 0 0 98853.1 31845.5" />
<path d="M98847 31861
L98537 32107
" />
<path d="M98537 32107
L98230 32349
" />
<path d="M98202.9 32359.6 A45.6429 45.6429 0.0 0 0 98230.3 32349.8" />
<path d="M98196.2 32353.8 A6.59921 6.59921 0.0 0 0 98202.9 32359.6" />
<path d="M98196 32353
L98144 31951
" />
<path d="M98144 31951
L98092 31550
" />
<path d="M98096.6 31538.4 A15.0079 15.0079 0.0 0 0 98092.3 31550.9" />
<path d="M98100.9 31535.8 A10.0866 10.0866 0.0 0 0 98096.6 31538.4" />
<path d="M98100 31535
L98172 31515
" />
<path d="M100689 27365.4 A146.833 146.833 0.0 0 0 100707 27356.5" />
<path d="M100666 27372.8 A237.699 237.699 0.0 0 0 100689 27365.4" />
<path d="M100666 27372
L100632 27381
" />
<path d="M100632 27381
L100567 27399
" />
<path d="M100567 27399
L100491 27419
" />
<path d="M100491 27419
L100412 27440
" />
<path d="M100412 27440
L100218 27492
" />
<path d="M100218 27492
L100093 27276
" />
<path d="M100093 27276
L100045 27193
" />
<path d="M100725 27340 A103.142 103.142 0.0 0 0 100724 27327.1" />
<path d="M100721 27347.5 A9.51339 9.51339 0.0 0 0 100725 27340" />
<path d="M100707 27356.5 A105.278 105.278 0.0 0 0 100721 27347.5" />
<path d="M100045 27193
L100003 27120
" />
<path d="M100003 27120
L99968 27057
" />
<path d="M99964.2 27045.9 A51.3185 51.3185 0.0 0 0 99968.8 27057.1" />
<path d="M99971.6 27023.7 A21.0311 21.0311 0.0 0 0 99964.2 27045.9" />
<path d="M99971 27023
L100283 26781
" />
<path d="M100283 26781
L100596 26540
" />
<path d="M100616 26542.2 A14.1488 14.1488 0.0 0 0 100597 26540.4" />
<path d="M100620 26550.8 A16.7343 16.7343 0.0 0 0 100616 26542.2" />
<path d="M100620 26550
L100636 26662
" />
<path d="M100636 26662
L100654 26788
" />
<path d="M100654 26788
L100674 26937
" />
<path d="M97881 27399
L98133 27468
" />
<path d="M98133 27468
L98346 27526
" />
<path d="M98346 27526
L98537 27579
" />
<path d="M98542.2 27582.1 A10.3283 10.3283 0.0 0 0 98537.7 27579.5" />
<path d="M98542.8 27586.3 A3.55236 3.55236 0.0 0 0 98542.2 27582.1" />
<path d="M98508.4 29106.6 A3370.46 3370.46 0.0 0 0 98192.1 29173.9" />
<path d="M98508 29106
L98871 29059
" />
<path d="M98871 29059
L98940 29053
" />
<path d="M98940 29053
L99001 29047
" />
<path d="M99001 29047
L99053 29041
" />
<path d="M99053 29041
L99062 29040
" />
<path d="M99064.4 29043.4 A1.69921 1.69921 0.0 0 0 99062.8 29040.7" />
<path d="M99064 29043
L99050 29061
" />
<path d="M99050 29061
L99030 29085
" />
<path d="M99030 29085
L99003 29114
" />
<path d="M100273 29100.1 A3653.62 3653.62 0.0 0 0 99925.5 29059.6" />
<path d="M100618 29173.9 A3783.39 3783.39 0.0 0 0 100273 29100.1" />
<path d="M100911 29265.5 A3343.01 3343.01 0.0 0 0 100618 29173.9" />
<path d="M101066 29359.7 A463.978 463.978 0.0 0 0 100911 29265.5" />
<path d="M101089 29397.7 A81.7134 81.7134 0.0 0 0 101066 29359.7" />
<path d="M101098 29457.2 A252.995 252.995 0.0 0 0 101089 29397.7" />
<path d="M101093 29516 A246.203 246.203 0.0 0 0 101098 29457.2" />
<path d="M101073 29551.5 A64.0909 64.0909 0.0 0 0 101093 29516" />
<path d="M100999 29600.3 A352.377 352.377 0.0 0 0 101073 29551.5" />
<path d="M100999 29600
L100875 29656
" />
<path d="M100875 29656
L100729 29710
" />
<path d="M100729 29710
L100579 29753
" />
<path d="M100579 29753
L100404 29791
" />
<path d="M100404 29791
L100170 29828
" />
<path d="M100170 29828
L99942 29857
" />
<path d="M99797.8 29865.6 A1300.05 1300.05 0.0 0 0 99942.8 29857.5" />
<path d="M99797 29865
L99757 29865
" />
<path d="M99757 29865
L99819 29796
" />
<path d="M99819.7 29796.5 A586.686 586.686 0.0 0 0 99925.9 29627.7" />
<path d="M99925.9 29627.7 A452.25 452.25 0.0 0 0 99959.9 29444.5" />
<path d="M99959.9 29444.5 A453.311 453.311 0.0 0 0 99917.1 29262.9" />
<path d="M99917.1 29262.9 A591.062 591.062 0.0 0 0 99802.9 29099" />
<path d="M99802 29098
L99776 29070
" />
<path d="M99762.5 29053 A129.084 129.084 0.0 0 0 99776.1 29070.8" />
<path d="M99761.7 29045.4 A8.39921 8.39921 0.0 0 0 99762.5 29053" />
<path d="M99767.1 29042.8 A4.45276 4.45276 0.0 0 0 99761.7 29045.4" />
<path d="M99767.1 29042.8 A112.939 112.939 0.0 0 0 99784.5 29046.3" />
<path d="M99784 29046
L99824 29050
" />
<path d="M99824 29050
L99873 29055
" />
<path d="M99873 29055
L99925 29059
" />
<path d="M99527.6 29342.7 A86.2713 86.2713 0.0 0 0 99507 29323.8" />
<path d="M99546.5 29371.7 A198.241 198.241 0.0 0 0 99527.6 29342.7" />
<path d="M99561 29405.4 A216.814 216.814 0.0 0 0 99546.5 29371.7" />
<path d="M99568.2 29438.5 A159.56 159.56 0.0 0 0 99561 29405.4" />
<path d="M99569.2 29478.2 A240.057 240.057 0.0 0 0 99568.2 29438.5" />
<path d="M99562.6 29510.3 A113.478 113.478 0.0 0 0 99569.2 29478.2" />
<path d="M99547 29539.6 A117.131 117.131 0.0 0 0 99562.6 29510.3" />
<path d="M99520.3 29570.7 A267.083 267.083 0.0 0 0 99547 29539.6" />
<path d="M99492.6 29595.7 A364.989 364.989 0.0 0 0 99520.3 29570.7" />
<path d="M99470.3 29609.2 A91.6343 91.6343 0.0 0 0 99492.6 29595.7" />
<path d="M99445.2 29615.6 A89.6 89.6 0.0 0 0 99470.3 29609.2" />
<path d="M99408.7 29617.6 A339.857 339.857 0.0 0 0 99445.2 29615.6" />
<path d="M99372.3 29615.6 A339.857 339.857 0.0 0 0 99408.7 29617.6" />
<path d="M99347.2 29609.2 A89.6 89.6 0.0 0 0 99372.3 29615.6" />
<path d="M99324.8 29595.7 A91.6343 91.6343 0.0 0 0 99347.2 29609.2" />
<path d="M99297.1 29570.7 A364.989 364.989 0.0 0 0 99324.8 29595.7" />
<path d="M99273.2 29544.3 A347.12 347.12 0.0 0 0 99297.1 29570.7" />
<path d="M99259.5 29522.1 A102.633 102.633 0.0 0 0 99273.2 29544.3" />
<path d="M99252.5 29498.6 A87.8433 87.8433 0.0 0 0 99259.5 29522.1" />
<path d="M99250.3 29468 A207.754 207.754 0.0 0 0 99252.5 29498.6" />
<path d="M99255.4 29413.1 A294.228 294.228 0.0 0 0 99250.3 29468" />
<path d="M99271.2 29370.6 A136.612 136.612 0.0 0 0 99255.4 29413.1" />
<path d="M99298.8 29337.9 A118.894 118.894 0.0 0 0 99271.2 29370.6" />
<path d="M99339.6 29312.5 A186.179 186.179 0.0 0 0 99298.8 29337.9" />
<path d="M99383.3 29298 A210.761 210.761 0.0 0 0 99339.6 29312.5" />
<path d="M99425.7 29295 A153.572 153.572 0.0 0 0 99383.3 29298" />
<path d="M99466.8 29303.7 A150.332 150.332 0.0 0 0 99425.7 29295" />
<path d="M99507 29323.8 A194.545 194.545 0.0 0 0 99466.8 29303.7" />
<path d="M97805.1 29706.1 A927.661 927.661 0.0 0 0 97965.4 29775.9" />
<path d="M97965 29775
L98198 29843
" />
<path d="M98198 29843
L98472 29901
" />
<path d="M98472 29901
L98761 29943
" />
<path d="M98761 29943
L99027 29963
" />
<path d="M99027 29963
L99408 29969
" />
<path d="M99408 29969
L99789 29963
" />
<path d="M99789 29963
L100056 29943
" />
<path d="M100056 29943
L100345 29901
" />
<path d="M100345 29901
L100618 29843
" />
<path d="M100618 29843
L100852 29775
" />
<path d="M100852 29775.8 A930.115 930.115 0.0 0 0 101013 29705.9" />
<path d="M101012 29705
L101036 29693
" />
<path d="M101036 29693
L101056 29683
" />
<path d="M101056 29683
L101074 29675
" />
<path d="M101077 29676.4 A3.1315 3.1315 0.0 0 0 101074 29675.8" />
<path d="M101079 29680.2 A4.40276 4.40276 0.0 0 0 101077 29676.4" />
<path d="M101078 29680
L101074 29709
" />
<path d="M101074 29709
L101068 29743
" />
<path d="M101068 29743
L101060 29783
" />
<path d="M100945 30138.7 A1649.36 1649.36 0.0 0 0 101061 29783.4" />
<path d="M100751 30462.4 A1711.59 1711.59 0.0 0 0 100945 30138.7" />
<path d="M100491 30735.9 A1713.07 1713.07 0.0 0 0 100751 30462.4" />
<path d="M100179 30943.1 A1655.69 1655.69 0.0 0 0 100491 30735.9" />
<path d="M99989.9 31028.1 A2003.66 2003.66 0.0 0 0 100179 30943.1" />
<path d="M99809.5 31084.2 A1379.74 1379.74 0.0 0 0 99989.9 31028.1" />
<path d="M99621.3 31115.6 A1409.31 1409.31 0.0 0 0 99809.5 31084.2" />
<path d="M99408.7 31126 A2181.73 2181.73 0.0 0 0 99621.3 31115.6" />
<path d="M99196.1 31115.6 A2181.73 2181.73 0.0 0 0 99408.7 31126" />
<path d="M99008 31084.2 A1409.31 1409.31 0.0 0 0 99196.1 31115.6" />
<path d="M98827.6 31028.1 A1379.74 1379.74 0.0 0 0 99008 31084.2" />
</g>
<g style="fill:#FFFFFF; fill-opacity:0.0; 
stroke:#FFFFFF; stroke-width:59.0551; stroke-opacity:1; 
stroke-linecap:round; stroke-linejoin:round;">
<path d="M99167 31173
L99917 31078
" />
<path d="M98468 31015
L98490 30950
" />
<path d="M99917 31078
L100435 30909
" />
<path d="M98468 27960
L98383 28023
" />
<path d="M100984 28509
L100805 28383
" />
<path d="M100879 28403
L100795 28287
" />
<path d="M101175 29523
L101112 29080
" />
<path d="M98352 30846
L98543 30994
" />
<path d="M97929 30413
L98468 31015
" />
<path d="M100372 30962
L100952 30379
" />
<path d="M100952 30379
L100974 30316
" />
<path d="M98637 27832
L98342 27980
" />
<path d="M97972 30370
L97929 30413
" />
<path d="M98490 30940
L99167 31173
" />
<path d="M98383 28023
L97803 28541
" />
</g>
<g style="fill:#FFFFFF; fill-opacity:0.0; 
stroke:#FFFFFF; stroke-width:157.48; stroke-opacity:1; 
stroke-linecap:round; stroke-linejoin:round;">
<circle cx="99415.3" cy="29448.2" r="488.548" /> 
</g>
<g style="fill:#FFFFFF; fill-opacity:0.0; 
stroke:#FFFFFF; stroke-width:59.0551; stroke-opacity:1; 
stroke-linecap:round; stroke-linejoin:round;">
<path d="M100277 27885
L100488 27970
" />
<path d="M97887 28562
L97655 29344
" />
<path d="M98543 30994
L98490 30940
" />
<path d="M97962 28466
L97887 28562
" />
<path d="M97696 29608
L97824 30106
" />
<path d="M97982 30496
L97972 30370
" />
<path d="M100868 30423
L101049 30147
" />
<path d="M98490 30950
L98448 30909
" />
<path d="M97909 30444
L97982 30496
" />
<path d="M100899 30328
L100868 30423
" />
<path d="M98342 27980
L98468 27960
" />
<path d="M97655 29344
L97696 29608
" />
<path d="M100974 30316
L100899 30328
" />
<path d="M98448 30909
L98352 30846
" />
<path d="M97803 28541
L97962 28466
" />
<path d="M101112 29080
L100879 28403
" />
<path d="M101049 30147
L101175 29523
" />
<path d="M100795 28287
L100984 28509
" />
<path d="M100805 28383
L100277 27885
" />
<path d="M100435 30909
L100372 30962
" />
<path d="M97824 30106
L97909 30444
" />
<text x="77893.7" y="23356.3"
textLength="4005.44" font-size="524.934" lengthAdjust="spacingAndGlyphs"
text-anchor="middle" opacity="0">EXTERNAL IN</text>
<path d="M76112 23131
L76243 23131
" />
<path d="M76300 23337
L76112 23337
L76112 22943
L76300 22943
" />
<path d="M76431 22943
L76693 23337
" />
<path d="M76693 22943
L76431 23337
" />
<path d="M76787 22943
L77012 22943
" />
<path d="M76900 23337
L76900 22943
" />
<path d="M77143 23131
L77275 23131
" />
<path d="M77331 23337
L77143 23337
L77143 22943
L77331 22943
" />
<path d="M77724 23337
L77593 23150
" />
<path d="M77500 23337
L77500 22943
L77649 22943
L77687 22962
L77706 22981
L77724 23018
L77724 23075
L77706 23112
L77687 23131
L77649 23150
L77500 23150
" />
<path d="M77893 23337
L77893 22943
L78118 23337
L78118 22943
" />
<path d="M78287 23225
L78474 23225
" />
<path d="M78249 23337
L78381 22943
L78512 23337
" />
<path d="M78831 23337
L78643 23337
L78643 22943
" />
<path d="M79262 23337
L79262 22943
" />
<path d="M79449 23337
L79449 22943
L79674 23337
L79674 22943
" />
<text x="88444.9" y="26899.6"
textLength="1426.6" font-size="524.934" lengthAdjust="spacingAndGlyphs"
text-anchor="middle" opacity="0">ICSP</text>
<path d="M87863 26880
L87863 26487
" />
<path d="M88276 26843
L88257 26862
L88201 26880
L88163 26880
L88107 26862
L88069 26824
L88051 26787
L88032 26712
L88032 26655
L88051 26580
L88069 26543
L88107 26505
L88163 26487
L88201 26487
L88257 26505
L88276 26524
" />
<path d="M88426 26862
L88482 26880
L88576 26880
L88613 26862
L88632 26843
L88651 26805
L88651 26768
L88632 26730
L88613 26712
L88576 26693
L88501 26674
L88463 26655
L88444 26637
L88426 26599
L88426 26562
L88444 26524
L88463 26505
L88501 26487
L88594 26487
L88651 26505
" />
<path d="M88819 26880
L88819 26487
L88969 26487
L89007 26505
L89026 26524
L89044 26562
L89044 26618
L89026 26655
L89007 26674
L88969 26693
L88819 26693
" />
<text x="96889.8" y="20255.9"
textLength="2195.26" font-size="524.934" lengthAdjust="spacingAndGlyphs"
text-anchor="middle" opacity="0">MIDI IN</text>
<path d="M95924 20237
L95924 19843
L96055 20124
L96186 19843
L96186 20237
" />
<path d="M96374 20237
L96374 19843
" />
<path d="M96561 20237
L96561 19843
L96655 19843
L96711 19862
L96749 19899
L96767 19937
L96786 20012
L96786 20068
L96767 20143
L96749 20180
L96711 20218
L96655 20237
L96561 20237
" />
<path d="M96955 20237
L96955 19843
" />
<path d="M97442 20237
L97442 19843
" />
<path d="M97630 20237
L97630 19843
L97855 20237
L97855 19843
" />
<text x="69448.8" y="20255.9"
textLength="2720.19" font-size="524.934" lengthAdjust="spacingAndGlyphs"
text-anchor="middle" opacity="0">MIDI OUT</text>
<path d="M68220 20237
L68220 19843
L68352 20124
L68483 19843
L68483 20237
" />
<path d="M68670 20237
L68670 19843
" />
<path d="M68858 20237
L68858 19843
L68952 19843
L69008 19862
L69045 19899
L69064 19937
L69083 20012
L69083 20068
L69064 20143
L69045 20180
L69008 20218
L68952 20237
L68858 20237
" />
<path d="M69251 20237
L69251 19843
" />
<path d="M69814 19843
L69889 19843
L69926 19862
L69964 19899
L69983 19974
L69983 20105
L69964 20180
L69926 20218
L69889 20237
L69814 20237
L69776 20218
L69739 20180
L69720 20105
L69720 19974
L69739 19899
L69776 19862
L69814 19843
" />
<path d="M70151 19843
L70151 20162
L70170 20199
L70189 20218
L70226 20237
L70301 20237
L70339 20218
L70358 20199
L70376 20162
L70376 19843
" />
<path d="M70508 19843
L70733 19843
" />
<path d="M70620 20237
L70620 19843
" />
</g>
<g style="fill:#FFFFFF; fill-opacity:0.0; 
stroke:#FFFFFF; stroke-width:39.3701; stroke-opacity:1; 
stroke-linecap:round; stroke-linejoin:round;">
<path d="M65019 13188
L101318 13188
" />
<path d="M101318 15748
L101318 13188
" />
<path d="M103681 15748
L101318 15748
" />
<path d="M103681 15748
L103681 31968
" />
<path d="M101318 31968
L103681 31968
" />
<path d="M101318 34527
L101318 31968
" />
<path d="M65019 32007
L65019 34527
" />
<path d="M65019 34527
L101318 34527
" />
<path d="M62657 32007
L65019 32007
" />
<path d="M62657 32007
L62657 15748
" />
<path d="M62657 15748
L65019 15748
" />
<path d="M65019 13188
L65019 15748
" />
</g>
<g style="fill:#FFFFFF; fill-opacity:0.0; 
stroke:#FFFFFF; stroke-width:47.2441; stroke-opacity:1; 
stroke-linecap:round; stroke-linejoin:round;">
<path d="M75925 35114
L75925 34917
" />
<path d="M79862 35114
L75925 35114
" />
<path d="M79862 34917
L79862 35114
" />
<path d="M75925 24326
L79860 24326
" />
<path d="M75925 25822
L75925 24326
" />
<path d="M73956 25822
L75925 25822
" />
<path d="M79860 25822
L79860 24326
" />
<path d="M81830 25822
L79860 25822
" />
<path d="M73956 33972
L73956 25822
" />
<path d="M74842 33972
L73956 33972
" />
<path d="M81830 25822
L81830 33972
" />
<path d="M80944 33972
L80944 34917
" />
<path d="M80944 34917
L74842 34917
" />
<path d="M74842 34917
L74842 33972
" />
<path d="M81830 33972
L80944 33972
" />
<path d="M87435 15346
L87435 16562
" />
<circle cx="88442.9" cy="15954.7" r="984.252" /> 
<path d="M87435 16562.9 A1177.17 1177.17 0.0 0 0 89620.1 15954.5" />
<path d="M89620.1 15954.9 A1177.17 1177.17 0.0 0 0 87435 15346.5" />
<path d="M82159 15346
L82159 16562
" />
<circle cx="83167.3" cy="15954.7" r="984.252" /> 
<path d="M82159.4 16562.9 A1177.17 1177.17 0.0 0 0 84344.5 15954.5" />
<path d="M84344.5 15954.9 A1177.17 1177.17 0.0 0 0 82159.4 15346.5" />
<path d="M76883 15346
L76883 16562
" />
<circle cx="77891.7" cy="15954.7" r="984.252" /> 
<path d="M76883.9 16562.9 A1177.17 1177.17 0.0 0 0 79068.9 15954.5" />
<path d="M79068.9 15954.9 A1177.17 1177.17 0.0 0 0 76883.9 15346.5" />
<path d="M94468 26279
L94468 25208
" />
<path d="M94468 22507
L94468 21437
" />
<path d="M99311 23240
L99311 24476
" />
<path d="M99311 21437
L99311 22507
" />
<circle cx="96850.4" cy="23842.5" r="1802.78" /> 
<path d="M99311 25208
L99311 26279
" />
<path d="M94468 21437
L99311 21437
" />
<path d="M94468 24476
L94468 23240
" />
<path d="M99311 26279
L94468 26279
" />
<path d="M67027 26299
L67027 25228
" />
<path d="M67027 22527
L67027 21456
" />
<path d="M71870 23259
L71870 24496
" />
<path d="M71870 21456
L71870 22527
" />
<circle cx="69409.4" cy="23862.2" r="1802.78" /> 
<path d="M71870 25228
L71870 26299
" />
<path d="M67027 21456
L71870 21456
" />
<path d="M67027 24496
L67027 23259
" />
<path d="M71870 26299
L67027 26299
" />
<path d="M89561 24322
L90053 24322
" />
<path d="M89561 20275
L89561 24322
" />
<path d="M91332 20275
L89561 20275
" />
<path d="M91332 24322
L91332 20275
" />
<path d="M90840 24322
L91332 24322
" />
<path d="M90840.6 24322.8 A393.701 393.701 0.0 0 0 90053.1 24322.8" />
</g>
<g style="fill:#FFFFFF; fill-opacity:0.0; 
stroke:#FFFFFF; stroke-width:39.3701; stroke-opacity:1; 
stroke-linecap:round; stroke-linejoin:round;">
<path d="M85688 28818
L84409 28818
" />
<path d="M84409 28818
L84409 34921
" />
<path d="M84409 34921
L92480 34921
" />
<path d="M92480 34921
L92480 28818
" />
<path d="M92480 28818
L91200 28818
" />
</g>
<g style="fill:#FFFFFF; fill-opacity:1.0; 
stroke:#FFFFFF; stroke-width:0; stroke-opacity:1; 
stroke-linecap:round; stroke-linejoin:round;">
<circle cx="92696.9" cy="30000" r="39.3701" /> 
<circle cx="92775.6" cy="30000" r="39.3701" /> 
</g>
<g style="fill:#FFFFFF; fill-opacity:0.0; 
stroke:#FFFFFF; stroke-width:78.7402; stroke-opacity:1; 
stroke-linecap:round; stroke-linejoin:round;">
<path d="M92696.9 30000 A39.3701 39.3701 0.0 0 0 92775.6 30000" />
<path d="M92775.6 30000 A39.3701 39.3701 0.0 0 0 92696.9 30000" />
</g>
<g style="fill:#FFFFFF; fill-opacity:0.0; 
stroke:#FFFFFF; stroke-width:39.3701; stroke-opacity:1; 
stroke-linecap:round; stroke-linejoin:round;">
<path d="M72204 18897
L73484 18897
" />
<path d="M73484 18897
L73484 12795
" />
<path d="M73484 12795
L65413 12795
" />
<path d="M65413 12795
L65413 18897
" />
<path d="M65413 18897
L66692 18897
" />
</g>
<g style="fill:#FFFFFF; fill-opacity:1.0; 
stroke:#FFFFFF; stroke-width:0; stroke-opacity:1; 
stroke-linecap:round; stroke-linejoin:round;">
<circle cx="65196.9" cy="17716.5" r="39.3701" /> 
<circle cx="65118.1" cy="17716.5" r="39.3701" /> 
</g>
<g style="fill:#FFFFFF; fill-opacity:0.0; 
stroke:#FFFFFF; stroke-width:78.7402; stroke-opacity:1; 
stroke-linecap:round; stroke-linejoin:round;">
<path d="M65196.9 17716.5 A39.3701 39.3701 0.0 0 0 65118.1 17716.5" />
<path d="M65118.1 17716.5 A39.3701 39.3701 0.0 0 0 65196.9 17716.5" />
</g>
<g style="fill:#FFFFFF; fill-opacity:1.0; 
stroke:#FFFFFF; stroke-width:0; stroke-opacity:1; 
stroke-linecap:round; stroke-linejoin:round;">
<circle cx="92559.1" cy="17716.5" r="39.3701" /> 
<circle cx="92637.8" cy="17716.5" r="39.3701" /> 
</g>
<g style="fill:#FFFFFF; fill-opacity:1.0; 
stroke:#FFFFFF; stroke-width:39.3701; stroke-opacity:1; 
stroke-linecap:round; stroke-linejoin:round;">
</g>
<g style="fill:#FFFFFF; fill-opacity:0.0; 
stroke:#FFFFFF; stroke-width:39.3701; stroke-opacity:1; 
stroke-linecap:round; stroke-linejoin:round;">
<path d="M92854 18897
L94133 18897
" />
<path d="M92854 12795
L92854 18897
" />
<path d="M100925 12795
L92854 12795
" />
<path d="M100925 18897
L100925 12795
" />
<path d="M99645 18897
L100925 18897
" />
</g>
<g style="fill:#FFFFFF; fill-opacity:0.0; 
stroke:#FFFFFF; stroke-width:78.7402; stroke-opacity:1; 
stroke-linecap:round; stroke-linejoin:round;">
<path d="M92559.1 17716.5 A39.3701 39.3701 0.0 0 0 92637.8 17716.5" />
<path d="M92637.8 17716.5 A39.3701 39.3701 0.0 0 0 92559.1 17716.5" />
</g>
<g style="fill:#FFFFFF; fill-opacity:0.0; 
stroke:#FFFFFF; stroke-width:47.2441; stroke-opacity:1; 
stroke-linecap:round; stroke-linejoin:round;">
<path d="M67854 28385
L67854 29409
" />
<path d="M62066 28385
L67854 28385
" />
<path d="M67854 32007
L67106 32007
" />
<path d="M67854 30944
L67854 32007
" />
<path d="M62066 32007
L62066 28385
" />
<path d="M65531 32007
L62066 32007
" />
<path d="M67519 28307
L67933 28307
" />
<path d="M67933 28720
L67933 28307
" />
<g >
</g>
<g >
</g>
<g >
</g>
<g >
</g>
<g >
</g>
<g >
</g>
<g >
</g>
<g >
</g>
<g >
</g>
<g >
</g>
<g >
</g>
<g >
</g>
<g >
</g>
<g >
</g>
<g >
</g>
<g >
</g>
<g >
</g>
<g >
</g>
<g >
</g>
<g >
</g>
<g >
</g>
<g >
</g>
<g >
</g>
<g >
</g>
<g >
</g>
<g >
</g>
<g >
</g>
<g >
</g>
<g >
</g>
<g >
</g>
<g >
</g>
<g >
</g>
<g >
</g>
<g >
</g>
<g >
</g>
<g >
</g>
<g >
</g>
<g >
</g>
<g >
</g>
<g >
</g>
<g >
</g>
<g >
</g>
<g >
</g>
<g >
</g>
<g >
</g>
<g >
</g>
<g >
</g>
<g >
</g>
<g >
</g>
<g >
</g>
<g >
</g>
<g >
</g>
<g >
</g>
<g >
</g>
<g >
</g>
<g >
</g>
<g >
</g>
<g >
</g>
<g >
</g>
<g >
</g>
<g >
</g>
<g >
</g>
</g>
<g style="fill:#FFFFFF; fill-opacity:0.0; 
stroke:#FFFFFF; stroke-width:47.2441; stroke-opacity:1; 
stroke-linecap:round; stroke-linejoin:round;">
</g>
<g style="fill:#FFFFFF; fill-opacity:0.0; 
stroke:#FFFFFF; stroke-width:100; stroke-opacity:1; 
stroke-linecap:round; stroke-linejoin:round;">
<g transform="rotate(-90 77893.7 32318.9)">
<text x="77893.7" y="32568.9"
textLength="933.915" font-size="666.667" lengthAdjust="spacingAndGlyphs"
text-anchor="middle" opacity="0">J5</text>
</g>
<path d="M77619 32485
L77977 32485
L78048 32509
L78096 32556
L78119 32628
L78119 32676
" />
<path d="M77619 32009
L77619 32247
L77857 32271
L77834 32247
L77810 32199
L77810 32080
L77834 32033
L77857 32009
L77905 31985
L78024 31985
L78072 32009
L78096 32033
L78119 32080
L78119 32199
L78096 32247
L78072 32271
" />
</g>
<g style="fill:#FFFFFF; fill-opacity:0.0; 
stroke:#FFFFFF; stroke-width:59.0551; stroke-opacity:1; 
stroke-linecap:round; stroke-linejoin:round;">
<text x="88503.9" y="14624"
textLength="898.654" font-size="524.934" lengthAdjust="spacingAndGlyphs"
text-anchor="middle" opacity="0">D4</text>
<path d="M88213 14605
L88213 14211
L88307 14211
L88363 14230
L88400 14267
L88419 14305
L88438 14380
L88438 14436
L88419 14511
L88400 14549
L88363 14586
L88307 14605
L88213 14605
" />
<path d="M88775 14342
L88775 14605
" />
<path d="M88682 14192
L88588 14474
L88832 14474
" />
<text x="83167.3" y="14592.5"
textLength="845.426" font-size="524.934" lengthAdjust="spacingAndGlyphs"
text-anchor="middle" opacity="0">D2</text>
<path d="M82876 14573
L82876 14180
L82970 14180
L83026 14198
L83064 14236
L83082 14273
L83101 14348
L83101 14405
L83082 14480
L83064 14517
L83026 14555
L82970 14573
L82876 14573
" />
<path d="M83251 14217
L83270 14198
L83307 14180
L83401 14180
L83439 14198
L83457 14217
L83476 14255
L83476 14292
L83457 14348
L83232 14573
L83476 14573
" />
<text x="77891.7" y="14592.5"
textLength="845.426" font-size="524.934" lengthAdjust="spacingAndGlyphs"
text-anchor="middle" opacity="0">D3</text>
<path d="M77601 14573
L77601 14180
L77694 14180
L77751 14198
L77788 14236
L77807 14273
L77826 14348
L77826 14405
L77807 14480
L77788 14517
L77751 14555
L77694 14573
L77601 14573
" />
<path d="M77957 14180
L78201 14180
L78069 14330
L78126 14330
L78163 14348
L78182 14367
L78201 14405
L78201 14498
L78182 14536
L78163 14555
L78126 14573
L78013 14573
L77976 14555
L77957 14536
" />
<text x="96956.7" y="26874"
textLength="1276.62" font-size="524.934" lengthAdjust="spacingAndGlyphs"
text-anchor="middle" opacity="0">SW2</text>
<path d="M96431 26836
L96488 26855
L96581 26855
L96619 26836
L96637 26817
L96656 26780
L96656 26742
L96637 26705
L96619 26686
L96581 26667
L96506 26649
L96469 26630
L96450 26611
L96431 26574
L96431 26536
L96450 26499
L96469 26480
L96506 26461
L96600 26461
L96656 26480
" />
<path d="M96787 26461
L96881 26855
L96956 26574
L97031 26855
L97125 26461
" />
<path d="M97256 26499
L97275 26480
L97312 26461
L97406 26461
L97444 26480
L97462 26499
L97481 26536
L97481 26574
L97462 26630
L97237 26855
L97481 26855
" />
<text x="69515.7" y="26893.7"
textLength="1276.62" font-size="524.934" lengthAdjust="spacingAndGlyphs"
text-anchor="middle" opacity="0">SW1</text>
<path d="M68990 26856
L69047 26874
L69140 26874
L69178 26856
L69197 26837
L69215 26799
L69215 26762
L69197 26724
L69178 26706
L69140 26687
L69065 26668
L69028 26649
L69009 26631
L68990 26593
L68990 26556
L69009 26518
L69028 26500
L69065 26481
L69159 26481
L69215 26500
" />
<path d="M69347 26481
L69440 26874
L69515 26593
L69590 26874
L69684 26481
" />
<path d="M70040 26874
L69815 26874
" />
<path d="M69928 26874
L69928 26481
L69890 26537
L69853 26574
L69815 26593
" />
<text x="90446.9" y="24913.4"
textLength="864.173" font-size="524.934" lengthAdjust="spacingAndGlyphs"
text-anchor="middle" opacity="0">U2</text>
<path d="M90146 24500
L90146 24819
L90165 24857
L90184 24875
L90221 24894
L90296 24894
L90334 24875
L90353 24857
L90371 24819
L90371 24500
" />
<path d="M90540 24538
L90559 24519
L90596 24500
L90690 24500
L90728 24519
L90746 24538
L90765 24575
L90765 24613
L90746 24669
L90521 24894
L90765 24894
" />
</g>
<g style="fill:#FFFFFF; fill-opacity:0.0; 
stroke:#FFFFFF; stroke-width:100; stroke-opacity:1; 
stroke-linecap:round; stroke-linejoin:round;">
<text x="93700.8" y="33950.2"
textLength="933.915" font-size="666.667" lengthAdjust="spacingAndGlyphs"
text-anchor="middle" opacity="0">J4</text>
<path d="M93534 33426
L93534 33783
L93510 33854
L93462 33902
L93391 33926
L93343 33926
" />
<path d="M93986 33593
L93986 33926
" />
<path d="M93867 33402
L93748 33759
L94057 33759
" />
<text x="74694.9" y="17926.5"
textLength="987.143" font-size="666.667" lengthAdjust="spacingAndGlyphs"
text-anchor="middle" opacity="0">J2</text>
<path d="M74528 17402
L74528 17759
L74504 17831
L74456 17878
L74385 17902
L74337 17902
" />
<path d="M74742 17450
L74766 17426
L74813 17402
L74932 17402
L74980 17426
L75004 17450
L75028 17497
L75028 17545
L75004 17617
L74718 17902
L75028 17902
" />
<text x="91663.4" y="17927.2"
textLength="987.143" font-size="666.667" lengthAdjust="spacingAndGlyphs"
text-anchor="middle" opacity="0">J1</text>
<path d="M91496 17403
L91496 17760
L91472 17831
L91425 17879
L91353 17903
L91306 17903
" />
<path d="M91996 17903
L91711 17903
" />
<path d="M91853 17903
L91853 17403
L91806 17474
L91758 17522
L91711 17546
" />
</g>
<g style="fill:#FFFFFF; fill-opacity:0.0; 
stroke:#FFFFFF; stroke-width:59.0551; stroke-opacity:1; 
stroke-linecap:round; stroke-linejoin:round;">
<g transform="rotate(-90 68622 30196.9)">
<text x="68622" y="30393.7"
textLength="804.916" font-size="524.934" lengthAdjust="spacingAndGlyphs"
text-anchor="middle" opacity="0">J3</text>
</g>
<path d="M68406 30328
L68687 30328
L68743 30346
L68781 30384
L68800 30440
L68800 30478
" />
<path d="M68406 30178
L68406 29934
L68556 30065
L68556 30009
L68575 29971
L68593 29953
L68631 29934
L68725 29934
L68762 29953
L68781 29971
L68800 30009
L68800 30121
L68781 30159
L68762 30178
" />
<g >
</g>
</g> 
</svg>
