<?xml version="1.0" standalone="no"?>
 <!DOCTYPE svg PUBLIC "-//W3C//DTD SVG 1.1//EN" 
 "http://www.w3.org/Graphics/SVG/1.1/DTD/svg11.dtd"> 
<svg
  xmlns:svg="http://www.w3.org/2000/svg"
  xmlns="http://www.w3.org/2000/svg"
  xmlns:xlink="http://www.w3.org/1999/xlink"
  version="1.1"
  width="29.700220cm" height="21.000720cm" viewBox="0 0 116930 82680">
<title>SVG Picture created as schematic-F_Mask.svg date 2021/05/19 12:18:09 </title>
  <desc>Picture generated by PCBNEW </desc>
<g style="fill:#000000; fill-opacity:1;stroke:#000000; stroke-opacity:1;
stroke-linecap:round; stroke-linejoin:round;"
 transform="translate(0 0) scale(1 1)">
</g>
<g style="fill:#000000; fill-opacity:0.0; 
stroke:#000000; stroke-width:-0.000393701; stroke-opacity:1; 
stroke-linecap:round; stroke-linejoin:round;">
</g>
<g style="fill:#000000; fill-opacity:0.0; 
stroke:#000000; stroke-width:196.85; stroke-opacity:1; 
stroke-linecap:round; stroke-linejoin:round;">
<text x="82539.4" y="11870.1"
textLength="5644.83" font-size="1574.8" lengthAdjust="spacingAndGlyphs"
text-anchor="middle" opacity="0">FRONT</text>
<path d="M80430 11195
L80036 11195
" />
<path d="M80036 11813
L80036 10632
L80598 10632
" />
<path d="M81723 11813
L81330 11251
" />
<path d="M81048 11813
L81048 10632
L81498 10632
L81611 10688
L81667 10745
L81723 10857
L81723 11026
L81667 11138
L81611 11195
L81498 11251
L81048 11251
" />
<path d="M82455 10632
L82679 10632
L82792 10688
L82904 10801
L82961 11026
L82961 11420
L82904 11645
L82792 11757
L82679 11813
L82455 11813
L82342 11757
L82230 11645
L82173 11420
L82173 11026
L82230 10801
L82342 10688
L82455 10632
" />
<path d="M83467 11813
L83467 10632
L84142 11813
L84142 10632
" />
<path d="M84535 10632
L85210 10632
" />
<path d="M84873 11813
L84873 10632
" />
</g>
<g style="fill:#000000; fill-opacity:0.0; 
stroke:#000000; stroke-width:39.3701; stroke-opacity:1; 
stroke-linecap:round; stroke-linejoin:round;">
<path d="M65019 13188
L101318 13188
" />
<path d="M101318 15748
L101318 13188
" />
<path d="M103681 15748
L101318 15748
" />
<path d="M103681 15748
L103681 31968
" />
<path d="M101318 31968
L103681 31968
" />
<path d="M101318 34527
L101318 31968
" />
<path d="M65019 32007
L65019 34527
" />
<path d="M65019 34527
L101318 34527
" />
<path d="M62657 32007
L65019 32007
" />
<path d="M62657 32007
L62657 15748
" />
<path d="M62657 15748
L65019 15748
" />
<path d="M65019 13188
L65019 15748
" />
</g>
<g style="fill:#000000; fill-opacity:0.0; 
stroke:#000000; stroke-width:196.85; stroke-opacity:1; 
stroke-linecap:round; stroke-linejoin:round;">
<text x="82539.4" y="11870.1"
textLength="5823.96" font-size="1574.8" lengthAdjust="spacingAndGlyphs"
text-anchor="middle" opacity="0">FRONT</text>
<path d="M80430 11195
L80036 11195
" />
<path d="M80036 11813
L80036 10632
L80598 10632
" />
<path d="M81723 11813
L81330 11251
" />
<path d="M81048 11813
L81048 10632
L81498 10632
L81611 10688
L81667 10745
L81723 10857
L81723 11026
L81667 11138
L81611 11195
L81498 11251
L81048 11251
" />
<path d="M82455 10632
L82679 10632
L82792 10688
L82904 10801
L82961 11026
L82961 11420
L82904 11645
L82792 11757
L82679 11813
L82455 11813
L82342 11757
L82230 11645
L82173 11420
L82173 11026
L82230 10801
L82342 10688
L82455 10632
" />
<path d="M83467 11813
L83467 10632
L84142 11813
L84142 10632
" />
<path d="M84535 10632
L85210 10632
" />
<path d="M84873 11813
L84873 10632
" />
</g>
<g style="fill:#000000; fill-opacity:0.0; 
stroke:#000000; stroke-width:39.3701; stroke-opacity:1; 
stroke-linecap:round; stroke-linejoin:round;">
<path d="M65019 13188
L101318 13188
" />
<path d="M101318 15748
L101318 13188
" />
<path d="M103681 15748
L101318 15748
" />
<path d="M103681 15748
L103681 31968
" />
<path d="M101318 31968
L103681 31968
" />
<path d="M101318 34527
L101318 31968
" />
<path d="M65019 32007
L65019 34527
" />
<path d="M65019 34527
L101318 34527
" />
<path d="M62657 32007
L65019 32007
" />
<path d="M62657 32007
L62657 15748
" />
<path d="M62657 15748
L65019 15748
" />
<path d="M65019 13188
L65019 15748
" />
<g >
</g>
<g >
</g>
<g style="fill:#000000; fill-opacity:0.0; 
stroke:#000000; stroke-width:39.3701; stroke-opacity:1; 
stroke-linecap:round; stroke-linejoin:round;">
</g>
<g style="fill:#000000; fill-opacity:1.0; 
stroke:#000000; stroke-width:0; stroke-opacity:1; 
stroke-linecap:round; stroke-linejoin:round;">
<circle cx="69448.8" cy="33267.7" r="1122.05" /> 
</g>
<g style="fill:#000000; fill-opacity:1.0; 
stroke:#000000; stroke-width:39.3701; stroke-opacity:1; 
stroke-linecap:round; stroke-linejoin:round;">
</g>
<g >
</g>
<g style="fill:#000000; fill-opacity:1.0; 
stroke:#000000; stroke-width:39.3701; stroke-opacity:1; 
stroke-linecap:round; stroke-linejoin:round;">
</g>
<g style="fill:#000000; fill-opacity:1.0; 
stroke:#000000; stroke-width:0; stroke-opacity:1; 
stroke-linecap:round; stroke-linejoin:round;">
<circle cx="96889.8" cy="33267.7" r="1122.05" /> 
</g>
<g style="fill:#000000; fill-opacity:1.0; 
stroke:#000000; stroke-width:39.3701; stroke-opacity:1; 
stroke-linecap:round; stroke-linejoin:round;">
</g>
<g >
</g>
<g style="fill:#000000; fill-opacity:1.0; 
stroke:#000000; stroke-width:39.3701; stroke-opacity:1; 
stroke-linecap:round; stroke-linejoin:round;">
</g>
<g style="fill:#000000; fill-opacity:1.0; 
stroke:#000000; stroke-width:0; stroke-opacity:1; 
stroke-linecap:round; stroke-linejoin:round;">
<circle cx="91082.7" cy="14448.8" r="1122.05" /> 
</g>
<g style="fill:#000000; fill-opacity:1.0; 
stroke:#000000; stroke-width:39.3701; stroke-opacity:1; 
stroke-linecap:round; stroke-linejoin:round;">
</g>
<g >
</g>
<g style="fill:#000000; fill-opacity:1.0; 
stroke:#000000; stroke-width:39.3701; stroke-opacity:1; 
stroke-linecap:round; stroke-linejoin:round;">
</g>
<g style="fill:#000000; fill-opacity:1.0; 
stroke:#000000; stroke-width:0; stroke-opacity:1; 
stroke-linecap:round; stroke-linejoin:round;">
<circle cx="75255.9" cy="14448.8" r="1122.05" /> 
</g>
<g style="fill:#000000; fill-opacity:1.0; 
stroke:#000000; stroke-width:39.3701; stroke-opacity:1; 
stroke-linecap:round; stroke-linejoin:round;">
</g>
<g >
</g>
<g style="fill:#000000; fill-opacity:1.0; 
stroke:#000000; stroke-width:39.3701; stroke-opacity:1; 
stroke-linecap:round; stroke-linejoin:round;">
</g>
<g style="fill:#000000; fill-opacity:1.0; 
stroke:#000000; stroke-width:0; stroke-opacity:1; 
stroke-linecap:round; stroke-linejoin:round;">
<circle cx="60000" cy="37755.9" r="1122.05" /> 
</g>
<g style="fill:#000000; fill-opacity:1.0; 
stroke:#000000; stroke-width:39.3701; stroke-opacity:1; 
stroke-linecap:round; stroke-linejoin:round;">
</g>
<g >
</g>
<g style="fill:#000000; fill-opacity:1.0; 
stroke:#000000; stroke-width:39.3701; stroke-opacity:1; 
stroke-linecap:round; stroke-linejoin:round;">
</g>
<g style="fill:#000000; fill-opacity:1.0; 
stroke:#000000; stroke-width:0; stroke-opacity:1; 
stroke-linecap:round; stroke-linejoin:round;">
<circle cx="106260" cy="37755.9" r="1122.05" /> 
</g>
<g style="fill:#000000; fill-opacity:1.0; 
stroke:#000000; stroke-width:39.3701; stroke-opacity:1; 
stroke-linecap:round; stroke-linejoin:round;">
</g>
<g >
</g>
<g style="fill:#000000; fill-opacity:1.0; 
stroke:#000000; stroke-width:39.3701; stroke-opacity:1; 
stroke-linecap:round; stroke-linejoin:round;">
</g>
<g style="fill:#000000; fill-opacity:1.0; 
stroke:#000000; stroke-width:0; stroke-opacity:1; 
stroke-linecap:round; stroke-linejoin:round;">
<circle cx="106260" cy="10196.9" r="1122.05" /> 
</g>
<g style="fill:#000000; fill-opacity:1.0; 
stroke:#000000; stroke-width:39.3701; stroke-opacity:1; 
stroke-linecap:round; stroke-linejoin:round;">
</g>
<g >
</g>
<g style="fill:#000000; fill-opacity:1.0; 
stroke:#000000; stroke-width:39.3701; stroke-opacity:1; 
stroke-linecap:round; stroke-linejoin:round;">
</g>
<g style="fill:#000000; fill-opacity:1.0; 
stroke:#000000; stroke-width:0; stroke-opacity:1; 
stroke-linecap:round; stroke-linejoin:round;">
<circle cx="60000" cy="10196.9" r="1122.05" /> 
</g>
<g style="fill:#000000; fill-opacity:1.0; 
stroke:#000000; stroke-width:39.3701; stroke-opacity:1; 
stroke-linecap:round; stroke-linejoin:round;">
</g>
<g >
</g>
<g >
</g>
<g >
</g>
<g >
</g>
<g >
</g>
<g style="fill:#000000; fill-opacity:1.0; 
stroke:#000000; stroke-width:39.3701; stroke-opacity:1; 
stroke-linecap:round; stroke-linejoin:round;">
</g>
<g style="fill:#000000; fill-opacity:1.0; 
stroke:#000000; stroke-width:0; stroke-opacity:1; 
stroke-linecap:round; stroke-linejoin:round;">
<circle cx="74645.7" cy="29897.6" r="590.551" /> 
</g>
<g style="fill:#000000; fill-opacity:1.0; 
stroke:#000000; stroke-width:39.3701; stroke-opacity:1; 
stroke-linecap:round; stroke-linejoin:round;">
</g>
<g style="fill:#000000; fill-opacity:1.0; 
stroke:#000000; stroke-width:0; stroke-opacity:1; 
stroke-linecap:round; stroke-linejoin:round;">
<circle cx="81141.7" cy="29897.6" r="590.551" /> 
</g>
<g style="fill:#000000; fill-opacity:1.0; 
stroke:#000000; stroke-width:39.3701; stroke-opacity:1; 
stroke-linecap:round; stroke-linejoin:round;">
</g>
<g style="fill:#000000; fill-opacity:1.0; 
stroke:#000000; stroke-width:0; stroke-opacity:1; 
stroke-linecap:round; stroke-linejoin:round;">
<circle cx="81141.7" cy="27397.6" r="590.551" /> 
</g>
<g style="fill:#000000; fill-opacity:1.0; 
stroke:#000000; stroke-width:39.3701; stroke-opacity:1; 
stroke-linecap:round; stroke-linejoin:round;">
</g>
<g style="fill:#000000; fill-opacity:1.0; 
stroke:#000000; stroke-width:0; stroke-opacity:1; 
stroke-linecap:round; stroke-linejoin:round;">
<circle cx="81141.7" cy="32397.6" r="590.551" /> 
</g>
<g style="fill:#000000; fill-opacity:1.0; 
stroke:#000000; stroke-width:39.3701; stroke-opacity:1; 
stroke-linecap:round; stroke-linejoin:round;">
</g>
<g style="fill:#000000; fill-opacity:1.0; 
stroke:#000000; stroke-width:0; stroke-opacity:1; 
stroke-linecap:round; stroke-linejoin:round;">
<circle cx="74645.7" cy="32397.6" r="590.551" /> 
</g>
<g style="fill:#000000; fill-opacity:1.0; 
stroke:#000000; stroke-width:39.3701; stroke-opacity:1; 
stroke-linecap:round; stroke-linejoin:round;">
</g>
<g style="fill:#000000; fill-opacity:1.0; 
stroke:#000000; stroke-width:0; stroke-opacity:1; 
stroke-linecap:round; stroke-linejoin:round;">
<circle cx="74645.7" cy="27397.6" r="590.551" /> 
</g>
<g style="fill:#000000; fill-opacity:1.0; 
stroke:#000000; stroke-width:39.3701; stroke-opacity:1; 
stroke-linecap:round; stroke-linejoin:round;">
</g>
<g >
</g>
<g >
</g>
<g style="fill:#000000; fill-opacity:1.0; 
stroke:#000000; stroke-width:39.3701; stroke-opacity:1; 
stroke-linecap:round; stroke-linejoin:round;">
</g>
<g style="fill:#000000; fill-opacity:1.0; 
stroke:#000000; stroke-width:0; stroke-opacity:1; 
stroke-linecap:round; stroke-linejoin:round;">
<circle cx="88942.9" cy="15954.7" r="354.331" /> 
</g>
<g style="fill:#000000; fill-opacity:1.0; 
stroke:#000000; stroke-width:39.3701; stroke-opacity:1; 
stroke-linecap:round; stroke-linejoin:round;">
</g>
<g style="fill:#000000; fill-opacity:1.0; 
stroke:#000000; stroke-width:0; stroke-opacity:1; 
stroke-linecap:round; stroke-linejoin:round;">
<path style="fill:#000000; fill-opacity:1.0; 
stroke:#000000; stroke-width:0; stroke-opacity:1; 
stroke-linecap:round; stroke-linejoin:round;fill-rule:evenodd;"
d="M 87588.6,16309.1
87588.6,15600.4
88297.2,15600.4
88297.2,16309.1
Z" /> 
</g>
<g >
</g>
<g style="fill:#000000; fill-opacity:1.0; 
stroke:#000000; stroke-width:0; stroke-opacity:1; 
stroke-linecap:round; stroke-linejoin:round;">
<circle cx="83667.3" cy="15954.7" r="354.331" /> 
</g>
<g style="fill:#000000; fill-opacity:1.0; 
stroke:#000000; stroke-width:39.3701; stroke-opacity:1; 
stroke-linecap:round; stroke-linejoin:round;">
</g>
<g style="fill:#000000; fill-opacity:1.0; 
stroke:#000000; stroke-width:0; stroke-opacity:1; 
stroke-linecap:round; stroke-linejoin:round;">
<path style="fill:#000000; fill-opacity:1.0; 
stroke:#000000; stroke-width:0; stroke-opacity:1; 
stroke-linecap:round; stroke-linejoin:round;fill-rule:evenodd;"
d="M 82313,16309.1
82313,15600.4
83021.7,15600.4
83021.7,16309.1
Z" /> 
</g>
<g >
</g>
<g style="fill:#000000; fill-opacity:1.0; 
stroke:#000000; stroke-width:0; stroke-opacity:1; 
stroke-linecap:round; stroke-linejoin:round;">
<circle cx="78391.7" cy="15954.7" r="354.331" /> 
</g>
<g style="fill:#000000; fill-opacity:1.0; 
stroke:#000000; stroke-width:39.3701; stroke-opacity:1; 
stroke-linecap:round; stroke-linejoin:round;">
</g>
<g style="fill:#000000; fill-opacity:1.0; 
stroke:#000000; stroke-width:0; stroke-opacity:1; 
stroke-linecap:round; stroke-linejoin:round;">
<path style="fill:#000000; fill-opacity:1.0; 
stroke:#000000; stroke-width:0; stroke-opacity:1; 
stroke-linecap:round; stroke-linejoin:round;fill-rule:evenodd;"
d="M 77037.4,16309.1
77037.4,15600.4
77746.1,15600.4
77746.1,16309.1
Z" /> 
</g>
<g >
</g>
<g style="fill:#000000; fill-opacity:1.0; 
stroke:#000000; stroke-width:0; stroke-opacity:1; 
stroke-linecap:round; stroke-linejoin:round;">
</g>
<g style="fill:#000000; fill-opacity:1.0; 
stroke:#000000; stroke-width:1259.84; stroke-opacity:1; 
stroke-linecap:round; stroke-linejoin:round;">
</g>
<g style="fill:#000000; fill-opacity:0.0; 
stroke:#000000; stroke-width:1259.84; stroke-opacity:1; 
stroke-linecap:round; stroke-linejoin:round;">
<path d="M99606 22874
L99094 22874
" />
<path d="M99606 24842
L99094 24842
" />
<path d="M94685 22874
L94173 22874
" />
<path d="M94685 24842
L94173 24842
" />
</g>
<g >
</g>
<g style="fill:#000000; fill-opacity:0.0; 
stroke:#000000; stroke-width:1259.84; stroke-opacity:1; 
stroke-linecap:round; stroke-linejoin:round;">
<path d="M72165 22893
L71653 22893
" />
<path d="M72165 24862
L71653 24862
" />
<path d="M67244 22893
L66732 22893
" />
<path d="M67244 24862
L66732 24862
" />
</g>
<g >
</g>
<g >
</g>
<g >
</g>
<g >
</g>
<g >
</g>
<g >
</g>
<g style="fill:#000000; fill-opacity:0.0; 
stroke:#000000; stroke-width:1259.84; stroke-opacity:1; 
stroke-linecap:round; stroke-linejoin:round;">
</g>
<g style="fill:#000000; fill-opacity:0.0; 
stroke:#000000; stroke-width:629.921; stroke-opacity:1; 
stroke-linecap:round; stroke-linejoin:round;">
<path d="M89104 23799
L88789 23799
" />
<path d="M92104 20799
L91789 20799
" />
<path d="M89104 22799
L88789 22799
" />
<path d="M92104 21799
L91789 21799
" />
<path d="M89104 21799
L88789 21799
" />
<path d="M92104 22799
L91789 22799
" />
<path d="M89104 20799
L88789 20799
" />
</g>
<g style="fill:#000000; fill-opacity:0.0; 
stroke:#000000; stroke-width:0; stroke-opacity:1; 
stroke-linecap:round; stroke-linejoin:round;">
</g>
<g style="fill:#000000; fill-opacity:1.0; 
stroke:#000000; stroke-width:0; stroke-opacity:1; 
stroke-linecap:round; stroke-linejoin:round;">
<path style="fill:#000000; fill-opacity:1.0; 
stroke:#000000; stroke-width:0; stroke-opacity:1; 
stroke-linecap:round; stroke-linejoin:round;fill-rule:evenodd;"
d="M 92419.3,23484.3
92419.3,24114.2
91474.4,24114.2
91474.4,23484.3
Z" /> 
</g>
<g >
</g>
<g >
</g>
<g >
</g>
<g >
</g>
<g >
</g>
<g >
</g>
<g >
</g>
<g style="fill:#000000; fill-opacity:1.0; 
stroke:#000000; stroke-width:0; stroke-opacity:1; 
stroke-linecap:round; stroke-linejoin:round;">
<circle cx="91397.6" cy="30000" r="413.386" /> 
</g>
<g style="fill:#000000; fill-opacity:1.0; 
stroke:#000000; stroke-width:39.3701; stroke-opacity:1; 
stroke-linecap:round; stroke-linejoin:round;">
</g>
<g style="fill:#000000; fill-opacity:1.0; 
stroke:#000000; stroke-width:0; stroke-opacity:1; 
stroke-linecap:round; stroke-linejoin:round;">
<circle cx="88444.9" cy="30000" r="413.386" /> 
</g>
<g style="fill:#000000; fill-opacity:1.0; 
stroke:#000000; stroke-width:39.3701; stroke-opacity:1; 
stroke-linecap:round; stroke-linejoin:round;">
</g>
<g style="fill:#000000; fill-opacity:1.0; 
stroke:#000000; stroke-width:0; stroke-opacity:1; 
stroke-linecap:round; stroke-linejoin:round;">
<circle cx="85492.1" cy="30000" r="413.386" /> 
</g>
<g style="fill:#000000; fill-opacity:1.0; 
stroke:#000000; stroke-width:39.3701; stroke-opacity:1; 
stroke-linecap:round; stroke-linejoin:round;">
</g>
<g style="fill:#000000; fill-opacity:1.0; 
stroke:#000000; stroke-width:0; stroke-opacity:1; 
stroke-linecap:round; stroke-linejoin:round;">
<circle cx="90413.4" cy="29015.7" r="413.386" /> 
</g>
<g style="fill:#000000; fill-opacity:1.0; 
stroke:#000000; stroke-width:39.3701; stroke-opacity:1; 
stroke-linecap:round; stroke-linejoin:round;">
</g>
<g style="fill:#000000; fill-opacity:1.0; 
stroke:#000000; stroke-width:0; stroke-opacity:1; 
stroke-linecap:round; stroke-linejoin:round;">
<circle cx="86476.4" cy="29015.7" r="413.386" /> 
</g>
<g style="fill:#000000; fill-opacity:1.0; 
stroke:#000000; stroke-width:39.3701; stroke-opacity:1; 
stroke-linecap:round; stroke-linejoin:round;">
</g>
<g style="fill:#000000; fill-opacity:1.0; 
stroke:#000000; stroke-width:0; stroke-opacity:1; 
stroke-linecap:round; stroke-linejoin:round;">
<circle cx="90413.4" cy="33740.2" r="366.142" /> 
</g>
<g style="fill:#000000; fill-opacity:1.0; 
stroke:#000000; stroke-width:39.3701; stroke-opacity:1; 
stroke-linecap:round; stroke-linejoin:round;">
</g>
<g style="fill:#000000; fill-opacity:1.0; 
stroke:#000000; stroke-width:0; stroke-opacity:1; 
stroke-linecap:round; stroke-linejoin:round;">
<circle cx="86476.4" cy="33740.2" r="366.142" /> 
</g>
<g style="fill:#000000; fill-opacity:1.0; 
stroke:#000000; stroke-width:39.3701; stroke-opacity:1; 
stroke-linecap:round; stroke-linejoin:round;">
</g>
<g style="fill:#000000; fill-opacity:1.0; 
stroke:#000000; stroke-width:0; stroke-opacity:1; 
stroke-linecap:round; stroke-linejoin:round;">
<circle cx="88444.9" cy="28031.5" r="413.386" /> 
</g>
<g style="fill:#000000; fill-opacity:1.0; 
stroke:#000000; stroke-width:39.3701; stroke-opacity:1; 
stroke-linecap:round; stroke-linejoin:round;">
</g>
<g >
</g>
<g style="fill:#000000; fill-opacity:1.0; 
stroke:#000000; stroke-width:39.3701; stroke-opacity:1; 
stroke-linecap:round; stroke-linejoin:round;">
</g>
<g style="fill:#000000; fill-opacity:1.0; 
stroke:#000000; stroke-width:0; stroke-opacity:1; 
stroke-linecap:round; stroke-linejoin:round;">
<circle cx="66496.1" cy="17716.5" r="413.386" /> 
</g>
<g style="fill:#000000; fill-opacity:1.0; 
stroke:#000000; stroke-width:39.3701; stroke-opacity:1; 
stroke-linecap:round; stroke-linejoin:round;">
</g>
<g style="fill:#000000; fill-opacity:1.0; 
stroke:#000000; stroke-width:0; stroke-opacity:1; 
stroke-linecap:round; stroke-linejoin:round;">
<circle cx="69448.8" cy="17716.5" r="413.386" /> 
</g>
<g style="fill:#000000; fill-opacity:1.0; 
stroke:#000000; stroke-width:39.3701; stroke-opacity:1; 
stroke-linecap:round; stroke-linejoin:round;">
</g>
<g style="fill:#000000; fill-opacity:1.0; 
stroke:#000000; stroke-width:0; stroke-opacity:1; 
stroke-linecap:round; stroke-linejoin:round;">
<circle cx="72401.6" cy="17716.5" r="413.386" /> 
</g>
<g style="fill:#000000; fill-opacity:1.0; 
stroke:#000000; stroke-width:39.3701; stroke-opacity:1; 
stroke-linecap:round; stroke-linejoin:round;">
</g>
<g style="fill:#000000; fill-opacity:1.0; 
stroke:#000000; stroke-width:0; stroke-opacity:1; 
stroke-linecap:round; stroke-linejoin:round;">
<circle cx="67480.3" cy="18700.8" r="413.386" /> 
</g>
<g style="fill:#000000; fill-opacity:1.0; 
stroke:#000000; stroke-width:39.3701; stroke-opacity:1; 
stroke-linecap:round; stroke-linejoin:round;">
</g>
<g style="fill:#000000; fill-opacity:1.0; 
stroke:#000000; stroke-width:0; stroke-opacity:1; 
stroke-linecap:round; stroke-linejoin:round;">
<circle cx="71417.3" cy="18700.8" r="413.386" /> 
</g>
<g style="fill:#000000; fill-opacity:1.0; 
stroke:#000000; stroke-width:39.3701; stroke-opacity:1; 
stroke-linecap:round; stroke-linejoin:round;">
</g>
<g style="fill:#000000; fill-opacity:1.0; 
stroke:#000000; stroke-width:0; stroke-opacity:1; 
stroke-linecap:round; stroke-linejoin:round;">
<circle cx="67480.3" cy="13976.4" r="366.142" /> 
</g>
<g style="fill:#000000; fill-opacity:1.0; 
stroke:#000000; stroke-width:39.3701; stroke-opacity:1; 
stroke-linecap:round; stroke-linejoin:round;">
</g>
<g style="fill:#000000; fill-opacity:1.0; 
stroke:#000000; stroke-width:0; stroke-opacity:1; 
stroke-linecap:round; stroke-linejoin:round;">
<circle cx="71417.3" cy="13976.4" r="366.142" /> 
</g>
<g style="fill:#000000; fill-opacity:1.0; 
stroke:#000000; stroke-width:39.3701; stroke-opacity:1; 
stroke-linecap:round; stroke-linejoin:round;">
</g>
<g >
</g>
<g style="fill:#000000; fill-opacity:1.0; 
stroke:#000000; stroke-width:39.3701; stroke-opacity:1; 
stroke-linecap:round; stroke-linejoin:round;">
</g>
<g style="fill:#000000; fill-opacity:1.0; 
stroke:#000000; stroke-width:0; stroke-opacity:1; 
stroke-linecap:round; stroke-linejoin:round;">
<circle cx="98858.3" cy="13976.4" r="366.142" /> 
</g>
<g style="fill:#000000; fill-opacity:1.0; 
stroke:#000000; stroke-width:39.3701; stroke-opacity:1; 
stroke-linecap:round; stroke-linejoin:round;">
</g>
<g style="fill:#000000; fill-opacity:1.0; 
stroke:#000000; stroke-width:0; stroke-opacity:1; 
stroke-linecap:round; stroke-linejoin:round;">
<circle cx="94921.3" cy="13976.4" r="366.142" /> 
</g>
<g style="fill:#000000; fill-opacity:1.0; 
stroke:#000000; stroke-width:39.3701; stroke-opacity:1; 
stroke-linecap:round; stroke-linejoin:round;">
</g>
<g style="fill:#000000; fill-opacity:1.0; 
stroke:#000000; stroke-width:0; stroke-opacity:1; 
stroke-linecap:round; stroke-linejoin:round;">
<circle cx="98858.3" cy="18700.8" r="413.386" /> 
</g>
<g style="fill:#000000; fill-opacity:1.0; 
stroke:#000000; stroke-width:39.3701; stroke-opacity:1; 
stroke-linecap:round; stroke-linejoin:round;">
</g>
<g style="fill:#000000; fill-opacity:1.0; 
stroke:#000000; stroke-width:0; stroke-opacity:1; 
stroke-linecap:round; stroke-linejoin:round;">
<circle cx="94921.3" cy="18700.8" r="413.386" /> 
</g>
<g style="fill:#000000; fill-opacity:1.0; 
stroke:#000000; stroke-width:39.3701; stroke-opacity:1; 
stroke-linecap:round; stroke-linejoin:round;">
</g>
<g style="fill:#000000; fill-opacity:1.0; 
stroke:#000000; stroke-width:0; stroke-opacity:1; 
stroke-linecap:round; stroke-linejoin:round;">
<circle cx="99842.5" cy="17716.5" r="413.386" /> 
</g>
<g style="fill:#000000; fill-opacity:1.0; 
stroke:#000000; stroke-width:39.3701; stroke-opacity:1; 
stroke-linecap:round; stroke-linejoin:round;">
</g>
<g style="fill:#000000; fill-opacity:1.0; 
stroke:#000000; stroke-width:0; stroke-opacity:1; 
stroke-linecap:round; stroke-linejoin:round;">
<circle cx="96889.8" cy="17716.5" r="413.386" /> 
</g>
<g style="fill:#000000; fill-opacity:1.0; 
stroke:#000000; stroke-width:39.3701; stroke-opacity:1; 
stroke-linecap:round; stroke-linejoin:round;">
</g>
<g style="fill:#000000; fill-opacity:1.0; 
stroke:#000000; stroke-width:0; stroke-opacity:1; 
stroke-linecap:round; stroke-linejoin:round;">
<circle cx="93937" cy="17716.5" r="413.386" /> 
</g>
<g style="fill:#000000; fill-opacity:1.0; 
stroke:#000000; stroke-width:39.3701; stroke-opacity:1; 
stroke-linecap:round; stroke-linejoin:round;">
</g>
<g >
</g>
<g >
</g>
<g >
</g>
<g >
</g>
<g >
</g>
<g >
</g>
<g >
</g>
<g >
</g>
<g >
</g>
<g >
</g>
<g >
</g>
<g >
</g>
<g >
</g>
<g >
</g>
<g >
</g>
<g >
</g>
<g >
</g>
<g >
</g>
<g >
</g>
<g >
</g>
<g >
</g>
<g >
</g>
<g >
</g>
<g >
</g>
<g >
</g>
<g >
</g>
<g >
</g>
<g style="fill:#000000; fill-opacity:1.0; 
stroke:#000000; stroke-width:39.3701; stroke-opacity:1; 
stroke-linecap:round; stroke-linejoin:round;">
</g>
<g style="fill:#000000; fill-opacity:1.0; 
stroke:#000000; stroke-width:0; stroke-opacity:1; 
stroke-linecap:round; stroke-linejoin:round;">
<path style="fill:#000000; fill-opacity:1.0; 
stroke:#000000; stroke-width:0; stroke-opacity:1; 
stroke-linecap:round; stroke-linejoin:round;fill-rule:evenodd;"
d="M 66697.2,31359.9
66730.6,31364.9
66763.4,31373.1
66795.2,31384.5
66825.8,31398.9
66854.8,31416.3
66881.9,31436.5
66907,31459.2
66929.7,31484.2
66949.8,31511.4
66967.2,31540.4
66981.7,31570.9
66993,31602.8
67001.3,31635.5
67006.2,31669
67007.9,31702.8
67007.9,32391.7
67006.2,32425.5
67001.3,32458.9
66993,32491.7
66981.7,32523.6
66967.2,32554.1
66949.8,32583.1
66929.7,32610.3
66907,32635.3
66881.9,32658
66854.8,32678.2
66825.8,32695.5
66795.2,32710
66763.4,32721.4
66730.6,32729.6
66697.2,32734.6
66663.4,32736.2
65974.4,32736.2
65940.6,32734.6
65907.2,32729.6
65874.4,32721.4
65842.6,32710
65812,32695.5
65783,32678.2
65755.9,32658
65730.8,32635.3
65708.1,32610.3
65688,32583.1
65670.6,32554.1
65656.1,32523.6
65644.8,32491.7
65636.5,32458.9
65631.6,32425.5
65629.9,32391.7
65629.9,31702.8
65631.6,31669
65636.5,31635.5
65644.8,31602.8
65656.1,31570.9
65670.6,31540.4
65688,31511.4
65708.1,31484.2
65730.8,31459.2
65755.9,31436.5
65783,31416.3
65812,31398.9
65842.6,31384.5
65874.4,31373.1
65907.2,31364.9
65940.6,31359.9
65974.4,31358.3
66663.4,31358.3
Z" /> 
<path style="fill:#000000; fill-opacity:1.0; 
stroke:#000000; stroke-width:0; stroke-opacity:1; 
stroke-linecap:round; stroke-linejoin:round;fill-rule:evenodd;"
d="M 65462,29509.3
65490.7,29513.5
65518.8,29520.6
65546.1,29530.4
65572.3,29542.7
65597.1,29557.6
65620.4,29574.9
65641.9,29594.4
65661.3,29615.8
65678.6,29639.1
65693.5,29664
65705.9,29690.2
65715.6,29717.4
65722.7,29745.5
65726.9,29774.2
65728.3,29803.1
65728.3,30590.6
65726.9,30619.5
65722.7,30648.2
65715.6,30676.3
65705.9,30703.5
65693.5,30729.7
65678.6,30754.6
65661.3,30777.9
65641.9,30799.3
65620.4,30818.8
65597.1,30836.1
65572.3,30851
65546.1,30863.4
65518.8,30873.1
65490.7,30880.2
65462,30884.4
65433.1,30885.8
64842.5,30885.8
64813.6,30884.4
64784.9,30880.2
64756.8,30873.1
64729.5,30863.4
64703.3,30851
64678.5,30836.1
64655.2,30818.8
64633.7,30799.3
64614.3,30777.9
64597,30754.6
64582.1,30729.7
64569.7,30703.5
64560,30676.3
64552.9,30648.2
64548.7,30619.5
64547.2,30590.6
64547.2,29803.1
64548.7,29774.2
64552.9,29745.5
64560,29717.4
64569.7,29690.2
64582.1,29664
64597,29639.1
64614.3,29615.8
64633.7,29594.4
64655.2,29574.9
64678.5,29557.6
64703.3,29542.7
64729.5,29530.4
64756.8,29520.6
64784.9,29513.5
64813.6,29509.3
64842.5,29507.9
65433.1,29507.9
Z" /> 
<path style="fill:#000000; fill-opacity:1.0; 
stroke:#000000; stroke-width:0; stroke-opacity:1; 
stroke-linecap:round; stroke-linejoin:round;fill-rule:evenodd;"
d="M 66811,30885.8
66811,29507.9
68189,29507.9
68189,30885.8
Z" /> 
</g>
<g >
</g>
<g >
</g>
<g >
</g>
</g>
<g style="fill:#000000; fill-opacity:1.0; 
stroke:#000000; stroke-width:39.3701; stroke-opacity:1; 
stroke-linecap:round; stroke-linejoin:round;">
<path style="fill:#000000; fill-opacity:1.0; 
stroke:#000000; stroke-width:39.3701; stroke-opacity:1; 
stroke-linecap:round; stroke-linejoin:round;fill-rule:evenodd;"
d="M 65630.7,32391.7
65637.3,32458.8
65656.9,32523.3
65688.6,32582.7
65731.4,32634.8
65783.5,32677.5
65842.9,32709.3
65907.4,32728.8
65974.5,32735.4
65975.1,32735.9
65975,32736.7
65974.4,32737
65952.2,32737
65952.1,32737
65887.4,32730.6
65887.2,32730.6
65827.3,32712.4
65827.1,32712.3
65771.8,32682.8
65771.7,32682.7
65723.3,32643
65723.2,32642.9
65683.4,32594.4
65683.3,32594.3
65653.8,32539
65653.7,32538.9
65635.5,32478.9
65635.5,32478.8
65629.1,32414
65629.1,32413.9
65629.1,32391.7
65629.5,32391.1
65630.3,32391.1
Z" /> 
<path style="fill:#000000; fill-opacity:1.0; 
stroke:#000000; stroke-width:39.3701; stroke-opacity:1; 
stroke-linecap:round; stroke-linejoin:round;fill-rule:evenodd;"
d="M 67008.3,32391.1
67008.7,32391.7
67008.7,32413.9
67008.7,32414
67002.3,32478.8
67002.2,32478.9
66984.1,32538.9
66984,32539
66954.5,32594.3
66954.4,32594.4
66914.6,32642.9
66914.5,32643
66866.1,32682.7
66865.9,32682.8
66810.7,32712.3
66810.5,32712.4
66750.6,32730.6
66750.4,32730.6
66685.7,32737
66685.6,32737
66663.4,32737
66662.7,32736.6
66662.7,32735.8
66663.3,32735.4
66730.4,32728.8
66794.9,32709.3
66854.3,32677.5
66906.4,32634.8
66949.2,32582.7
66980.9,32523.3
67000.5,32458.8
67007.1,32391.7
67007.5,32391
Z" /> 
<path style="fill:#000000; fill-opacity:1.0; 
stroke:#000000; stroke-width:39.3701; stroke-opacity:1; 
stroke-linecap:round; stroke-linejoin:round;fill-rule:evenodd;"
d="M 65975.1,31357.9
65975.1,31358.7
65974.5,31359.1
65907.4,31365.7
65842.9,31385.2
65783.5,31417
65731.4,31459.7
65688.6,31511.8
65656.9,31571.2
65637.3,31635.7
65630.7,31702.8
65630.2,31703.5
65629.5,31703.4
65629.1,31702.8
65629.1,31680.6
65629.1,31680.5
65635.5,31615.7
65635.5,31615.6
65653.7,31555.6
65653.8,31555.5
65683.3,31500.2
65683.4,31500.1
65723.2,31451.6
65723.3,31451.5
65771.7,31411.8
65771.8,31411.7
65827.1,31382.1
65827.3,31382.1
65887.2,31363.9
65887.4,31363.9
65952.1,31357.5
65952.2,31357.5
65974.4,31357.5
Z" /> 
<path style="fill:#000000; fill-opacity:1.0; 
stroke:#000000; stroke-width:39.3701; stroke-opacity:1; 
stroke-linecap:round; stroke-linejoin:round;fill-rule:evenodd;"
d="M 66685.7,31357.5
66750.4,31363.9
66750.6,31363.9
66810.5,31382.1
66810.7,31382.1
66865.9,31411.7
66866.1,31411.8
66914.5,31451.5
66914.6,31451.6
66954.4,31500.1
66954.5,31500.2
66984,31555.5
66984.1,31555.6
67002.2,31615.6
67002.3,31615.7
67008.7,31680.5
67008.7,31680.6
67008.7,31702.8
67008.3,31703.4
67007.5,31703.4
67007.1,31702.8
67000.5,31635.7
66980.9,31571.2
66949.2,31511.8
66906.4,31459.7
66854.3,31417
66794.9,31385.2
66730.4,31365.7
66663.3,31359.1
66662.7,31358.6
66662.7,31357.8
66663.4,31357.5
66685.6,31357.5
Z" /> 
<path style="fill:#000000; fill-opacity:1.0; 
stroke:#000000; stroke-width:39.3701; stroke-opacity:1; 
stroke-linecap:round; stroke-linejoin:round;fill-rule:evenodd;"
d="M 64548,30590.5
64553.7,30648
64570.5,30703.2
64597.7,30754.2
64634.3,30798.8
64678.9,30835.4
64729.8,30862.6
64785.1,30879.4
64842.6,30885
64843.2,30885.5
64843.2,30886.3
64842.5,30886.6
64820.3,30886.6
64820.3,30886.6
64765.1,30881.2
64764.9,30881.1
64714.2,30865.8
64714.1,30865.7
64667.3,30840.7
64667.2,30840.6
64626.2,30807
64626.1,30806.9
64592.4,30765.9
64592.4,30765.8
64567.4,30719
64567.3,30718.9
64551.9,30668.1
64551.9,30668
64546.5,30612.8
64546.5,30612.7
64546.5,30590.6
64546.9,30589.9
64547.6,30589.9
Z" /> 
<path style="fill:#000000; fill-opacity:1.0; 
stroke:#000000; stroke-width:39.3701; stroke-opacity:1; 
stroke-linecap:round; stroke-linejoin:round;fill-rule:evenodd;"
d="M 65728.8,30589.9
65729.1,30590.6
65729.1,30612.7
65729.1,30612.8
65723.7,30668
65723.7,30668.1
65708.3,30718.9
65708.2,30719
65683.2,30765.8
65683.1,30765.9
65649.5,30806.9
65649.4,30807
65608.4,30840.6
65608.3,30840.7
65561.5,30865.7
65561.4,30865.8
65510.7,30881.1
65510.5,30881.2
65455.3,30886.6
65455.3,30886.6
65433.1,30886.6
65432.4,30886.2
65432.4,30885.4
65433,30885
65490.5,30879.4
65545.8,30862.6
65596.7,30835.4
65641.3,30798.8
65677.9,30754.2
65705.1,30703.2
65721.9,30648
65727.6,30590.5
65728,30589.8
Z" /> 
<path style="fill:#000000; fill-opacity:1.0; 
stroke:#000000; stroke-width:39.3701; stroke-opacity:1; 
stroke-linecap:round; stroke-linejoin:round;fill-rule:evenodd;"
d="M 64843.2,29507.5
64843.2,29508.3
64842.6,29508.7
64785.1,29514.3
64729.8,29531.1
64678.9,29558.3
64634.3,29594.9
64597.7,29639.5
64570.5,29690.5
64553.7,29745.7
64548,29803.2
64547.6,29803.9
64546.8,29803.8
64546.5,29803.1
64546.5,29781
64546.5,29780.9
64551.9,29725.7
64551.9,29725.6
64567.3,29674.8
64567.4,29674.7
64592.4,29627.9
64592.4,29627.8
64626.1,29586.8
64626.2,29586.7
64667.2,29553.1
64667.3,29553
64714.1,29528
64714.2,29527.9
64764.9,29512.6
64765.1,29512.5
64820.3,29507.1
64820.3,29507.1
64842.5,29507.1
Z" /> 
<path style="fill:#000000; fill-opacity:1.0; 
stroke:#000000; stroke-width:39.3701; stroke-opacity:1; 
stroke-linecap:round; stroke-linejoin:round;fill-rule:evenodd;"
d="M 65455.3,29507.1
65510.5,29512.5
65510.7,29512.6
65561.4,29527.9
65561.5,29528
65608.3,29553
65608.4,29553.1
65649.4,29586.7
65649.5,29586.8
65683.1,29627.8
65683.2,29627.9
65708.2,29674.7
65708.3,29674.8
65723.7,29725.6
65723.7,29725.7
65729.1,29780.9
65729.1,29781
65729.1,29803.1
65728.7,29803.8
65728,29803.8
65727.6,29803.2
65721.9,29745.7
65705.1,29690.5
65677.9,29639.5
65641.3,29594.9
65596.7,29558.3
65545.8,29531.1
65490.5,29514.3
65433,29508.7
65432.4,29508.2
65432.4,29507.4
65433.1,29507.1
65455.3,29507.1
Z" /> 
</g> 
</svg>
