<?xml version="1.0" standalone="no"?>
 <!DOCTYPE svg PUBLIC "-//W3C//DTD SVG 1.1//EN" 
 "http://www.w3.org/Graphics/SVG/1.1/DTD/svg11.dtd"> 
<svg
  xmlns:svg="http://www.w3.org/2000/svg"
  xmlns="http://www.w3.org/2000/svg"
  xmlns:xlink="http://www.w3.org/1999/xlink"
  version="1.1"
  width="29.700220cm" height="21.000720cm" viewBox="0 0 116930 82680">
<title>SVG Picture created as schematic-Dwgs_User.svg date 2021/05/19 12:18:16 </title>
  <desc>Picture generated by PCBNEW </desc>
<g style="fill:#000000; fill-opacity:1;stroke:#000000; stroke-opacity:1;
stroke-linecap:round; stroke-linejoin:round;"
 transform="translate(0 0) scale(1 1)">
</g>
<g style="fill:#000000; fill-opacity:0.0; 
stroke:#000000; stroke-width:-0.000393701; stroke-opacity:1; 
stroke-linecap:round; stroke-linejoin:round;">
</g>
<g style="fill:#000000; fill-opacity:0.0; 
stroke:#000000; stroke-width:59.0551; stroke-opacity:1; 
stroke-linecap:round; stroke-linejoin:round;">
<path d="M21535 31417
L21535 32637
" />
<path d="M21535 32637
L21535 33858
" />
<path d="M20314 32637
L21535 32637
" />
<path d="M21535 32637
L20314 32637
" />
<path d="M21535 32637
L22755 32637
" />
<path d="M21535 49685
L21535 48464
" />
<path d="M22755 48464
L21535 48464
" />
<path d="M21535 48464
L21535 47244
" />
<path d="M20314 48464
L21535 48464
" />
<path d="M40354 53051
L40354 54271
" />
<path d="M39133 54271
L40354 54271
" />
<path d="M40354 54271
L40354 55492
" />
<path d="M40354 55492
L40354 54271
" />
<path d="M40354 54271
L41574 54271
" />
<path d="M40354 28051
L40354 26830
" />
<path d="M39133 26830
L40354 26830
" />
<path d="M40354 26830
L40354 25610
" />
<path d="M40354 26830
L41574 26830
" />
<path d="M37283 66023
L37283 61358
" />
<path d="M17027 54271
L20118 54271
" />
<path d="M41771 45826
L44178 45829
" />
<path d="M41771 35275
L44862 35275
" />
<path d="M20118 26830
L17027 26830
" />
<path d="M37283 61358
L37283 53484
" />
<path d="M20118 54271
L27992 54271
" />
<path d="M20118 26830
L27992 26830
" />
<path d="M41771 35275
L33897 35275
" />
<path d="M41771 45826
L33897 45826
" />
<path d="M19133 8385
L42755 8385
" />
</g>
<g style="fill:#000000; fill-opacity:0.0; 
stroke:#000000; stroke-width:2.5; stroke-opacity:1; 
stroke-linecap:round; stroke-linejoin:round;">
<circle cx="47772.9" cy="45829.2" r="1259.84" /> 
<path d="M46546 48580
L47772 49766
" />
<path d="M47772 49766
L50922 49766
" />
<path d="M50922 49766
L50922 45829
" />
<path d="M50922 45829
L50922 41892
" />
<path d="M50922 41892
L47772 41892
" />
<path d="M47772 41892
L46546 43078
" />
<path d="M50331 49766
L50331 47417
" />
<path d="M50331 44241
L50331 41892
" />
</g>
<g style="fill:#000000; fill-opacity:0.0; 
stroke:#000000; stroke-width:78.7402; stroke-opacity:1; 
stroke-linecap:round; stroke-linejoin:round;">
<path d="M44178 45829
L51367 45829
" />
<path d="M47772 49510
L47772 42148
" />
</g>
<g style="fill:#000000; fill-opacity:0.0; 
stroke:#000000; stroke-width:2.5; stroke-opacity:1; 
stroke-linecap:round; stroke-linejoin:round;">
<path d="M52070.4 49136.3 A196.85 196.85 0.0 0 0 51959.1 49170.8" />
<path d="M51165.5 49170.8 A701.587 701.587 0.0 0 0 51959.1 49170.8" />
<path d="M51165.5 49170.8 A196.85 196.85 0.0 0 0 51054.2 49136.3" />
<path d="M51054 49136
L50922 49136
" />
<path d="M52070.4 48978.8 A354.331 354.331 0.0 0 0 51870 49040.9" />
<path d="M51254.6 49040.9 A544.107 544.107 0.0 0 0 51870 49040.9" />
<path d="M51254.6 49040.9 A354.331 354.331 0.0 0 0 51054.2 48978.8" />
<path d="M51054 48978
L50922 48978
" />
<path d="M51870 42617.5 A354.331 354.331 0.0 0 0 52070.4 42679.6" />
<path d="M51870 42617.5 A544.107 544.107 0.0 0 0 51254.6 42617.5" />
<path d="M51054.2 42679.6 A354.331 354.331 0.0 0 0 51254.6 42617.5" />
<path d="M51054 42679
L50922 42679
" />
<path d="M51959.1 42487.6 A196.851 196.851 0.0 0 0 52070.4 42522.1" />
<path d="M51959.1 42487.6 A701.587 701.587 0.0 0 0 51165.5 42487.6" />
<path d="M51054.2 42522.1 A196.85 196.85 0.0 0 0 51165.5 42487.6" />
<path d="M51054 42522
L50922 42522
" />
<path d="M45627 47068
L47772 48306
" />
<path d="M47772 48306
L49918 47068
" />
<path d="M49918 47068
L49918 44590
" />
<path d="M49918 44590
L47772 43351
" />
<path d="M47772 43351
L45627 44590
" />
<path d="M45627 44590
L45627 47068
" />
<circle cx="47772.9" cy="45829.2" r="3011.81" /> 
<path d="M45722 43623
L45577 42974
" />
<path d="M45857 43504
L45731 42940
" />
<path d="M46099.2 42474.7 A666.072 666.072 0.0 0 0 45794.7 42535.7" />
<path d="M45794.7 42535.7 A390.13 390.13 0.0 0 0 45577.6 42975" />
<path d="M46093.3 42632.1 A508.592 508.592 0.0 0 0 45860.8 42678.6" />
<path d="M45860.8 42678.6 A232.65 232.65 0.0 0 0 45731.3 42940.6" />
<path d="M47130 42513
L46099 42474
" />
<path d="M46973 42665
L46093 42632
" />
</g>
<g style="fill:#000000; fill-opacity:0.0; 
stroke:#000000; stroke-width:59.0551; stroke-opacity:1; 
stroke-linecap:round; stroke-linejoin:round;">
<path d="M50964 61574
L50964 19527
" />
<path d="M50964 35275
L47027 35275
" />
<path d="M47027 35275
L47027 37440
" />
<path d="M47027 35275
L47027 33110
" />
<path d="M47027 35275
L44862 35275
" />
</g>
<g style="fill:#000000; fill-opacity:0.0; 
stroke:#000000; stroke-width:39.3701; stroke-opacity:1; 
stroke-linecap:round; stroke-linejoin:round;">
<path d="M53877 61653
L41771 61358
" />
<path d="M53877 19448
L41771 19744
" />
<path d="M53129 62401
L42500 62086
" />
<path d="M53129 18700
L42500 19015
" />
<path d="M42500 62086
L42500 19015
" />
<path d="M53129 18700
L53129 62401
" />
<path d="M42500 19015
L42500 62086
" />
</g>
<g style="fill:#000000; fill-opacity:0.0; 
stroke:#000000; stroke-width:59.0551; stroke-opacity:1; 
stroke-linecap:round; stroke-linejoin:round;">
<path d="M42692 70551
L19196 70551
" />
<path d="M37283 67992
L39251 67992
" />
<path d="M35314 67992
L37283 67992
" />
<path d="M37283 66023
L37283 70551
" />
</g>
<g style="fill:#000000; fill-opacity:0.0; 
stroke:#000000; stroke-width:39.3701; stroke-opacity:1; 
stroke-linecap:round; stroke-linejoin:round;">
<path d="M19389 62086
L42499 62086
" />
<path d="M20118 61358
L41771 61358
" />
<path d="M20118 61358
L41771 61358
" />
<path d="M19389 62086
L42499 62086
" />
<path d="M20118 61358
L41771 61358
" />
<path d="M19389 62086
L42499 62086
" />
<path d="M20118 61358
L41771 61358
" />
<path d="M19389 62086
L42499 62086
" />
<path d="M19881 73464
L20118 61358
" />
<path d="M42007 73464
L41771 61358
" />
<path d="M42755 72716
L19133 72716
" />
<path d="M19389 62086
L19133 72716
" />
<path d="M42755 72716
L42499 62086
" />
</g>
<g style="fill:#000000; fill-opacity:0.0; 
stroke:#000000; stroke-width:59.0551; stroke-opacity:1; 
stroke-linecap:round; stroke-linejoin:round;">
<path d="M10925 62322
L10925 19527
" />
</g>
<g style="fill:#000000; fill-opacity:0.0; 
stroke:#000000; stroke-width:39.3701; stroke-opacity:1; 
stroke-linecap:round; stroke-linejoin:round;">
<path d="M8759 62401
L19389 62086
" />
</g>
<g style="fill:#000000; fill-opacity:0.0; 
stroke:#000000; stroke-width:59.0551; stroke-opacity:1; 
stroke-linecap:round; stroke-linejoin:round;">
<path d="M10925 26830
L14862 26830
" />
<path d="M10925 54271
L14862 54271
" />
<path d="M14862 26830
L14862 28996
" />
<path d="M14862 26830
L17027 26830
" />
<path d="M14862 26830
L14862 24665
" />
<path d="M14862 54271
L14862 52106
" />
<path d="M14862 54271
L17027 54271
" />
<path d="M14862 54271
L14862 56437
" />
</g>
<g style="fill:#000000; fill-opacity:0.0; 
stroke:#000000; stroke-width:39.3701; stroke-opacity:1; 
stroke-linecap:round; stroke-linejoin:round;">
<path d="M8759 62401
L8759 18700
" />
<path d="M8011 19448
L20117 19744
" />
<path d="M8759 18700
L19389 19015
" />
<path d="M19389 19015
L19389 62086
" />
<path d="M8011 61653
L20117 61358
" />
<path d="M42500 19015
L19389 19015
" />
<path d="M22480 58995
L22480 61358
" />
<path d="M41771 19744
L20118 19744
" />
<path d="M20118 19744
L20118 61358
" />
<circle cx="40728.4" cy="60255.8" r="590.551" /> 
<circle cx="21161.6" cy="20846.4" r="590.551" /> 
<circle cx="21161.6" cy="60255.8" r="590.551" /> 
<path d="M19389 62086
L42500 62086
" />
<path d="M41771 61358
L41771 19744
" />
<circle cx="40728.4" cy="20846.4" r="590.551" /> 
<path d="M19389 19015
L19389 62086
" />
<path d="M42500 62086
L42500 19015
" />
<path d="M39409 22106
L39409 19744
" />
<path d="M41771 22106
L39409 22106
" />
<path d="M20118 61358
L41771 61358
" />
<path d="M41771 19744
L20118 19744
" />
<path d="M42500 19015
L19389 19015
" />
<path d="M20118 58995
L22480 58995
" />
<path d="M22480 22106
L20118 22106
" />
<path d="M39409 58995
L41771 58995
" />
<path d="M22480 19744
L22480 22106
" />
<path d="M39409 61358
L39409 58995
" />
</g>
<g style="fill:#000000; fill-opacity:0.0; 
stroke:#000000; stroke-width:59.0551; stroke-opacity:1; 
stroke-linecap:round; stroke-linejoin:round;">
<path d="M23041 35277
L23041 36450
" />
<path d="M23041 35277
L24212 35277
" />
<path d="M23041 35277
L23041 34106
" />
<path d="M23041 35277
L21872 35277
" />
<path d="M23041 40553
L24212 40553
" />
<path d="M23041 40553
L23041 41726
" />
<path d="M23041 40553
L23041 39381
" />
<path d="M23041 40553
L21870 40553
" />
<path d="M23041 45828
L24212 45828
" />
<path d="M23041 45828
L23041 47000
" />
<path d="M23041 45828
L23041 44657
" />
<path d="M23041 45828
L21872 45828
" />
<path d="M30929 26870
L29131 26870
" />
<path d="M30929 26870
L30929 28667
" />
<path d="M30929 26870
L32726 26870
" />
<path d="M30929 26870
L30929 25072
" />
<path d="M30948 54311
L32746 54311
" />
<path d="M30948 54311
L30948 56108
" />
<path d="M30948 54311
L30948 52513
" />
<path d="M30948 54311
L29151 54311
" />
</g>
<g style="fill:#000000; fill-opacity:0.0; 
stroke:#000000; stroke-width:2.5; stroke-opacity:1; 
stroke-linecap:round; stroke-linejoin:round;">
<path d="M43612 42678
L43612 42521
" />
<path d="M43612 48977
L43612 49135
" />
</g>
<g style="fill:#000000; fill-opacity:0.0; 
stroke:#000000; stroke-width:39.3701; stroke-opacity:1; 
stroke-linecap:round; stroke-linejoin:round;">
<path d="M42500 62086
L42500 19015
" />
<path d="M19389 19015
L19389 62086
" />
<path d="M41771 61358
L41771 19744
" />
<path d="M20118 19744
L20118 61358
" />
<path d="M65019 13188
L101318 13188
" />
<path d="M101318 15748
L101318 13188
" />
<path d="M103681 15748
L101318 15748
" />
<path d="M103681 15748
L103681 31968
" />
<path d="M101318 31968
L103681 31968
" />
<path d="M101318 34527
L101318 31968
" />
<path d="M65019 32007
L65019 34527
" />
<path d="M65019 34527
L101318 34527
" />
<path d="M62657 32007
L65019 32007
" />
<path d="M62657 32007
L62657 15748
" />
<path d="M62657 15748
L65019 15748
" />
<path d="M65019 13188
L65019 15748
" />
<path d="M61318 35669
L105019 35669
" />
<path d="M105019 35669
L105019 12047
" />
<path d="M104271 12795
L62066 12795
" />
<path d="M62066 12795
L62066 34921
" />
<path d="M62066 34921
L104271 34921
" />
<path d="M104271 34921
L104271 12795
" />
<path d="M106915 18627
L106296 18627
" />
<path d="M107027 18571
L106915 18627
" />
<path d="M107083 18459
L107027 18571
" />
<path d="M107083 18290
L107083 18459
" />
<path d="M107027 18177
L107083 18290
" />
<path d="M106915 18121
L107027 18177
" />
<path d="M106915 18121
L106296 18121
" />
<path d="M107027 18065
L106915 18121
" />
<path d="M107083 17952
L107027 18065
" />
<path d="M107083 17784
L107083 17952
" />
<path d="M107027 17671
L107083 17784
" />
<path d="M106971 17615
L107027 17671
" />
<path d="M106296 17615
L107083 17615
" />
<path d="M106296 16884
L106296 16715
" />
<path d="M106352 16996
L106296 16884
" />
<path d="M106408 17052
L106352 16996
" />
<path d="M106521 17109
L106408 17052
" />
<path d="M106858 17109
L106521 17109
" />
<path d="M106971 17052
L106858 17109
" />
<path d="M107027 16996
L106971 17052
" />
<path d="M107083 16884
L107027 16996
" />
<path d="M107083 16715
L107083 16884
" />
<path d="M107027 16602
L107083 16715
" />
<path d="M106971 16546
L107027 16602
" />
<path d="M106858 16490
L106971 16546
" />
<path d="M106521 16490
L106858 16490
" />
<path d="M106408 16546
L106521 16490
" />
<path d="M106352 16602
L106408 16546
" />
<path d="M106296 16715
L106352 16602
" />
<path d="M106296 16040
L106296 16153
" />
<path d="M106352 15928
L106296 16040
" />
<path d="M106465 15871
L106352 15928
" />
<path d="M107477 15871
L106465 15871
" />
<path d="M107083 15703
L107083 16153
" />
<path d="M106296 15365
L106296 15478
" />
<path d="M106352 15253
L106296 15365
" />
<path d="M106465 15196
L106352 15253
" />
<path d="M107477 15196
L106465 15196
" />
<path d="M107083 15028
L107083 15478
" />
<path d="M106296 14465
L106296 14297
" />
<path d="M106352 14578
L106296 14465
" />
<path d="M106408 14634
L106352 14578
" />
<path d="M106521 14690
L106408 14634
" />
<path d="M106858 14690
L106521 14690
" />
<path d="M106971 14634
L106858 14690
" />
<path d="M107027 14578
L106971 14634
" />
<path d="M107083 14465
L107027 14578
" />
<path d="M107083 14297
L107083 14465
" />
<path d="M107027 14184
L107083 14297
" />
<path d="M106971 14128
L107027 14184
" />
<path d="M106858 14072
L106971 14128
" />
<path d="M106521 14072
L106858 14072
" />
<path d="M106408 14128
L106521 14072
" />
<path d="M106352 14184
L106408 14128
" />
<path d="M106296 14297
L106352 14184
" />
<path d="M106915 13340
L106915 12947
" />
<path d="M106971 13453
L106915 13340
" />
<path d="M107027 13509
L106971 13453
" />
<path d="M107140 13565
L107027 13509
" />
<path d="M107252 13565
L107140 13565
" />
<path d="M107365 13509
L107252 13565
" />
<path d="M107421 13453
L107365 13509
" />
<path d="M107477 13340
L107421 13453
" />
<path d="M107477 12947
L107477 13340
" />
<path d="M106296 12947
L107477 12947
" />
<path d="M106296 13397
L106296 12947
" />
<path d="M106352 13509
L106296 13397
" />
<path d="M106408 13565
L106352 13509
" />
<path d="M106521 13622
L106408 13565
" />
<path d="M106690 13622
L106521 13622
" />
<path d="M106802 13565
L106690 13622
" />
<path d="M106858 13509
L106802 13565
" />
<path d="M106915 13340
L106858 13509
" />
<path d="M101909 34921
L101909 32559
" />
<path d="M101909 32559
L104271 32559
" />
<path d="M104271 15157
L101909 15157
" />
<path d="M101909 15157
L101909 12795
" />
<path d="M64429 12795
L64429 15157
" />
<path d="M64429 15157
L62066 15157
" />
<path d="M62066 32559
L64429 32559
" />
<path d="M64429 32559
L64429 34921
" />
<circle cx="63169.3" cy="13858.3" r="590.551" /> 
<circle cx="63169.3" cy="33858.3" r="590.551" /> 
<circle cx="103169" cy="33858.3" r="590.551" /> 
<path d="M19133 8385
L19389 19015
" />
<path d="M42500 19015
L42755 8385
" />
<path d="M105019 12047
L61318 12047
" />
<path d="M61318 12047
L61318 35669
" />
<path d="M19881 7637
L20118 19744
" />
<path d="M42007 7637
L41771 19744
" />
<path d="M42500 19015
L19389 19015
" />
<path d="M41771 19744
L20118 19744
" />
<circle cx="103169" cy="13858.3" r="590.551" /> 
<path d="M22480 58995
L22480 61358
" />
<circle cx="21161.6" cy="60255.8" r="590.551" /> 
<circle cx="21161.6" cy="20846.4" r="590.551" /> 
<circle cx="40728.4" cy="60255.8" r="590.551" /> 
<circle cx="40728.4" cy="20846.4" r="590.551" /> 
<path d="M19389 62086
L42500 62086
" />
<path d="M20118 61358
L41771 61358
" />
<path d="M41771 22106
L39409 22106
" />
<path d="M39409 22106
L39409 19744
" />
<path d="M39409 61358
L39409 58995
" />
<path d="M22480 19744
L22480 22106
" />
<path d="M39409 58995
L41771 58995
" />
<path d="M22480 22106
L20118 22106
" />
<path d="M20118 58995
L22480 58995
" />
<path d="M42500 19015
L19389 19015
" />
<path d="M41771 19744
L20118 19744
" />
</g>
<g style="fill:#000000; fill-opacity:0.0; 
stroke:#000000; stroke-width:47.2441; stroke-opacity:1; 
stroke-linecap:round; stroke-linejoin:round;">
<path d="M69448 33267
L69448 32047
" />
<path d="M69448 33267
L68228 33267
" />
<path d="M69448 33267
L69448 34488
" />
<path d="M69448 33267
L70669 33267
" />
<path d="M96889 33267
L98110 33267
" />
<path d="M96889 33267
L96889 34488
" />
<path d="M96889 33267
L95669 33267
" />
<path d="M96889 33267
L96889 32047
" />
<path d="M91082 14448
L91082 13228
" />
<path d="M91082 14448
L89862 14448
" />
<path d="M91082 14448
L91082 15669
" />
<path d="M91082 14448
L92303 14448
" />
<path d="M75255 14448
L76476 14448
" />
<path d="M75255 14448
L75255 15669
" />
<path d="M75255 14448
L74035 14448
" />
<path d="M75255 14448
L75255 13228
" />
<path d="M88442 15954
L88442 14781
" />
<path d="M88442 15954
L89620 15954
" />
<path d="M88442 15954
L88442 17131
" />
<path d="M88442 15954
L87265 15954
" />
<path d="M83167 15954
L83167 14777
" />
<path d="M83167 15954
L84344 15954
" />
<path d="M83167 15954
L83167 17131
" />
<path d="M83167 15954
L81990 15954
" />
<path d="M77891 15954
L77891 14781
" />
<path d="M77891 15954
L79068 15954
" />
<path d="M77891 15954
L77891 17131
" />
<path d="M77891 15954
L76714 15954
" />
<path d="M96850 23842
L98649 23842
" />
<path d="M96850 23842
L96850 22039
" />
<path d="M96850 23842
L95047 23842
" />
<path d="M96850 23842
L96850 25645
" />
<path d="M69409 23862
L71212 23862
" />
<path d="M69409 23862
L69409 25665
" />
<path d="M69409 23862
L67606 23862
" />
<path d="M69409 23862
L69409 22059
" />
</g>
<g style="fill:#000000; fill-opacity:0.0; 
stroke:#000000; stroke-width:78.7402; stroke-opacity:1; 
stroke-linecap:round; stroke-linejoin:round;">
<path d="M84409 34921
L92480 34921
" />
<path d="M92480 34921
L92480 28818
" />
<path d="M92480 28818
L84409 28818
" />
<path d="M84409 28818
L84409 34921
" />
</g>
<g style="fill:#000000; fill-opacity:0.0; 
stroke:#000000; stroke-width:39.3701; stroke-opacity:1; 
stroke-linecap:round; stroke-linejoin:round;">
<path d="M84015 28208
L92874 28208
" />
<path d="M92874 28208
L92874 35314
" />
<path d="M92874 35314
L84015 35314
" />
<path d="M84015 35314
L84015 28208
" />
</g>
<g style="fill:#000000; fill-opacity:0.0; 
stroke:#000000; stroke-width:78.7402; stroke-opacity:1; 
stroke-linecap:round; stroke-linejoin:round;">
<path d="M73484 12795
L65413 12795
" />
<path d="M65413 12795
L65413 18897
" />
<path d="M65413 18897
L73484 18897
" />
<path d="M73484 18897
L73484 12795
" />
</g>
<g style="fill:#000000; fill-opacity:0.0; 
stroke:#000000; stroke-width:39.3701; stroke-opacity:1; 
stroke-linecap:round; stroke-linejoin:round;">
<path d="M73877 19507
L65019 19507
" />
<path d="M65019 19507
L65019 12401
" />
<path d="M65019 12401
L73877 12401
" />
<path d="M73877 12401
L73877 19507
" />
<path d="M101318 12401
L101318 19507
" />
<path d="M92460 12401
L101318 12401
" />
<path d="M92460 19507
L92460 12401
" />
<path d="M101318 19507
L92460 19507
" />
</g>
<g style="fill:#000000; fill-opacity:0.0; 
stroke:#000000; stroke-width:78.7402; stroke-opacity:1; 
stroke-linecap:round; stroke-linejoin:round;">
<path d="M100925 18897
L100925 12795
" />
<path d="M92854 18897
L100925 18897
" />
<path d="M92854 12795
L92854 18897
" />
<path d="M100925 12795
L92854 12795
" />
<g >
</g>
<g >
</g>
<g >
</g>
<g >
</g>
<g >
</g>
<g >
</g>
<g >
</g>
<g >
</g>
<g >
</g>
<g >
</g>
<g >
</g>
<g >
</g>
<g >
</g>
<g >
</g>
<g >
</g>
<g >
</g>
<g >
</g>
<g >
</g>
<g >
</g>
<g >
</g>
<g >
</g>
<g >
</g>
<g >
</g>
<g >
</g>
<g >
</g>
<g >
</g>
<g >
</g>
<g >
</g>
<g >
</g>
<g >
</g>
<g >
</g>
<g >
</g>
<g >
</g>
<g >
</g>
<g >
</g>
<g >
</g>
<g >
</g>
<g >
</g>
<g >
</g>
<g >
</g>
<g >
</g>
<g >
</g>
<g >
</g>
<g >
</g>
<g >
</g>
<g >
</g>
<g >
</g>
<g >
</g>
<g >
</g>
<g >
</g>
<g >
</g>
<g >
</g>
<g >
</g>
<g >
</g>
<g >
</g>
<g >
</g>
<g >
</g>
<g >
</g>
<g >
</g>
<g >
</g>
<g >
</g>
<g >
</g>
<g >
</g>
</g> 
</svg>
